<svg width="307" height="307" viewBox="0 0 307 307" fill="none" xmlns="http://www.w3.org/2000/svg">
<g clip-path="url(#clip0_23_886)">
<path d="M307 0H0V307H307V0Z" fill="white"/>
<path d="M153.5 265.862C215.556 265.862 265.862 215.556 265.862 153.5C265.862 91.4442 215.556 41.138 153.5 41.138C91.4441 41.138 41.1379 91.4442 41.1379 153.5C41.1379 215.556 91.4441 265.862 153.5 265.862Z" fill="#F2E6DC"/>
<path d="M117.13 172.283C123.528 165.885 123.528 155.511 117.13 149.113C110.731 142.715 100.358 142.715 93.9592 149.113C87.5609 155.511 87.5609 165.885 93.9592 172.283C100.358 178.682 110.731 178.682 117.13 172.283Z" fill="#363E44"/>
<path d="M135.029 145.841C135.029 145.841 148.072 146.737 147.428 137.405C146.784 128.073 136.16 129.36 130.691 132.256C125.223 135.153 116.535 129.36 112.03 133.222C107.524 137.083 109.16 155.011 118.157 156.989C127.154 158.966 135.029 145.841 135.029 145.841Z" fill="#363E44"/>
<path d="M162.44 185.639C189.47 196.86 202.661 206.388 197.578 216.272C194.63 222.005 175.454 221.035 153.658 213.311C155.851 204.326 159.546 196.45 162.44 185.639Z" fill="#E2A18D"/>
<path d="M73.8381 184.849C63.777 195.601 32.9315 224.985 44.7371 236.949C54.5022 246.845 83.3483 216.991 93.9983 206.914C87.2783 199.559 80.5582 192.204 73.8381 184.849Z" fill="#E2A18D"/>
<path d="M65.6704 182.841C65.6704 182.841 92.6076 170.035 117.337 172.243C142.066 174.451 166.243 184.166 166.243 184.166L154.431 214.194L157.963 252.027H70.5279L77.1518 216.071L65.6704 182.841Z" fill="#8B865C"/>
<path d="M170.659 209.17C170.659 209.17 170.658 209.169 170.659 209.168C180.339 184.514 186.734 166.836 188.923 161.457C189.152 160.893 189.552 159.897 190.404 158.792C193.558 154.695 197.854 155.663 203.136 152.869C209.13 149.7 210.711 144.521 212.316 145.17C213.433 145.622 213.386 147.743 211.724 151.683C213.331 148.835 215.68 145.067 217.251 145.96C219.011 147.088 216.772 151.838 215.277 154.646C217.086 151.248 219.065 149.982 219.817 150.698C221.001 151.825 220.212 154.787 217.646 159.186C220.266 156.643 221.281 156.417 221.792 157.212C222.724 158.664 220.546 162.241 218.137 165.107C215.424 168.335 212.201 169.897 210.145 170.833C210.145 170.833 210.144 170.834 210.144 170.834C205.155 188.805 201.97 200.367 198.235 214.963C197.471 217.949 194.313 219.64 191.403 218.622C183.537 215.872 179.158 214.182 170.659 209.17Z" fill="#E2A18D"/>
<path d="M170.768 209.16C170.735 209.16 170.702 209.154 170.669 209.141C170.53 209.086 170.462 208.929 170.516 208.79C172.654 203.342 174.757 197.918 176.945 192.209C176.998 192.069 177.155 192 177.295 192.053C177.434 192.106 177.504 192.263 177.45 192.403C175.263 198.113 173.159 203.538 171.02 208.988C170.979 209.095 170.876 209.16 170.768 209.16Z" fill="#363E44"/>
<path d="M198.889 156.562C200.936 150.173 200.321 147.435 199.298 147.142C197.578 146.651 193.597 151.39 189.428 160.35C192.159 159.531 196.158 157.381 198.889 156.562Z" fill="#E2A18D"/>
<path d="M199.79 167.972C199.762 167.972 199.735 167.968 199.707 167.959C199.565 167.914 199.486 167.761 199.532 167.619C199.905 166.448 200.707 164.765 202.404 163.395C204.807 161.456 207.516 161.39 208.57 161.452C208.719 161.46 208.833 161.588 208.824 161.738C208.815 161.887 208.69 161.998 208.538 161.992C207.548 161.934 205 161.996 202.744 163.816C201.151 165.103 200.398 166.683 200.047 167.783C200.011 167.899 199.904 167.972 199.79 167.972Z" fill="#363E44"/>
<path d="M193.115 156.978C193.019 156.978 192.927 156.928 192.878 156.838C192.806 156.706 192.854 156.542 192.985 156.47C194.299 155.751 195.749 155.362 197.285 154.951C197.999 154.76 198.737 154.562 199.5 154.322C199.643 154.277 199.795 154.356 199.84 154.499C199.885 154.641 199.806 154.793 199.663 154.838C198.889 155.082 198.145 155.281 197.425 155.474C195.922 155.876 194.502 156.257 193.245 156.945C193.204 156.968 193.159 156.978 193.115 156.978Z" fill="#363E44"/>
<path d="M207.189 156.041C207.095 156.041 207.005 155.993 206.955 155.906C206.879 155.777 206.923 155.611 207.052 155.536C207.744 155.134 208.401 154.666 209.005 154.145C209.881 153.39 210.655 152.517 211.305 151.551C211.388 151.427 211.557 151.393 211.681 151.477C211.805 151.561 211.838 151.729 211.754 151.853C211.077 152.859 210.271 153.768 209.358 154.555C208.73 155.097 208.045 155.585 207.325 156.004C207.282 156.029 207.235 156.041 207.189 156.041Z" fill="#363E44"/>
<path d="M210.96 158.555C210.867 158.555 210.776 158.507 210.726 158.42C210.651 158.291 210.695 158.125 210.824 158.05C211.516 157.647 212.173 157.18 212.776 156.659C213.653 155.903 214.426 155.031 215.076 154.065C215.159 153.941 215.328 153.907 215.452 153.991C215.576 154.074 215.609 154.243 215.526 154.367C214.849 155.373 214.043 156.282 213.13 157.069C212.501 157.611 211.817 158.099 211.096 158.518C211.053 158.543 211.006 158.555 210.96 158.555Z" fill="#363E44"/>
<path d="M213.223 163.583C213.129 163.583 213.039 163.535 212.988 163.448C212.913 163.319 212.957 163.153 213.086 163.078C213.778 162.676 214.435 162.208 215.039 161.687C215.915 160.932 216.689 160.059 217.339 159.093C217.422 158.969 217.59 158.936 217.715 159.019C217.839 159.103 217.872 159.271 217.788 159.395C217.111 160.401 216.305 161.31 215.392 162.098C214.764 162.639 214.08 163.127 213.359 163.546C213.316 163.571 213.269 163.583 213.223 163.583Z" fill="#363E44"/>
<path d="M55.7213 215.088C67.0945 217.563 94.166 222.065 96.7911 222.609C101.698 223.627 127.892 229.775 127.415 233.651C127.187 235.503 122.087 234.547 120.372 234.173C121.608 235.157 126.765 238.423 125.979 240.362C125.057 242.64 118.316 239.689 118.183 239.709C119.539 240.581 125.084 243.837 124.552 245.314C123.859 247.235 117.793 245.753 115.997 245.225C116.113 245.526 121.571 249.016 121.098 250.174C120.574 251.458 114.884 250.211 112.584 249.927C108.223 249.026 91.0887 246.433 82.7054 245.57C63.0163 243.542 56.9403 241.289 47.593 238.634C43.9338 237.594 50.1406 217.936 55.7213 215.088Z" fill="#E2A18D"/>
<path d="M76.4162 218.991C76.4001 218.991 76.3837 218.99 76.3674 218.987C70.8528 217.982 59.4295 215.877 55.6663 215.102C55.5198 215.072 55.4256 214.929 55.4557 214.782C55.4858 214.636 55.6291 214.542 55.7754 214.572C59.5339 215.346 70.9519 217.45 76.4644 218.454C76.6115 218.481 76.7092 218.622 76.6823 218.769C76.6584 218.9 76.5446 218.991 76.4162 218.991Z" fill="#363E44"/>
<path d="M120.47 234.275C120.422 234.275 120.372 234.262 120.328 234.234C119.446 233.689 118.519 233.2 117.574 232.783C115.874 232.032 114.075 231.491 112.228 231.174C112.081 231.149 111.982 231.008 112.007 230.861C112.032 230.714 112.172 230.616 112.32 230.64C114.211 230.964 116.052 231.519 117.792 232.287C118.76 232.715 119.709 233.215 120.613 233.773C120.74 233.852 120.78 234.019 120.701 234.146C120.65 234.229 120.561 234.275 120.47 234.275Z" fill="#363E44"/>
<path d="M118.306 239.874C118.267 239.874 118.227 239.866 118.19 239.848C117.993 239.754 117.792 239.662 117.586 239.57C115.887 238.82 114.088 238.279 112.241 237.962C112.094 237.937 111.995 237.797 112.02 237.649C112.045 237.502 112.184 237.403 112.333 237.428C114.223 237.752 116.065 238.306 117.805 239.075C118.016 239.169 118.222 239.263 118.423 239.359C118.558 239.424 118.615 239.585 118.551 239.72C118.504 239.817 118.407 239.874 118.306 239.874Z" fill="#363E44"/>
<path d="M115.889 245.418C115.86 245.418 115.831 245.413 115.801 245.404C114.654 245.01 113.46 244.706 112.254 244.499C112.106 244.473 112.007 244.333 112.033 244.186C112.058 244.038 112.198 243.939 112.345 243.965C113.58 244.177 114.802 244.488 115.977 244.891C116.119 244.94 116.194 245.094 116.145 245.235C116.107 245.348 116.002 245.418 115.889 245.418Z" fill="#363E44"/>
<path d="M104.212 174.985L114.879 152.371L127.749 154.408L124.072 174.728L104.212 174.985Z" fill="#E2A18D"/>
<path d="M126.833 174.829C126.833 176.577 121.346 177.994 114.577 177.994C107.808 177.994 102.32 176.577 102.32 174.829C102.32 173.081 107.808 171.204 114.577 171.204C121.346 171.204 126.833 173.08 126.833 174.829Z" fill="#E2A18D"/>
<path d="M138.592 143.624C138.592 143.624 136.602 163.019 128.403 163.64C123.443 164.015 118.897 158.312 117.795 155.634C116.692 152.957 117.795 148.581 117.795 148.581C117.795 148.581 119.461 150.141 120.799 149.111C122.137 148.08 120.591 141.602 126.477 141.867C132.362 142.132 133 144.62 138.592 143.624Z" fill="#E2A18D"/>
<path d="M120.547 150.554C121.049 152.119 120.564 154.969 118.998 155.471C117.433 155.973 115.381 153.936 114.879 152.371C114.377 150.806 115.239 149.13 116.805 148.628C118.37 148.127 120.045 148.989 120.547 150.554Z" fill="#E2A18D"/>
<path d="M125.941 147.778C125.944 147.818 125.918 147.849 125.921 147.888C125.921 147.89 125.922 147.891 125.922 147.893C125.792 148.434 125.654 149.006 125.428 149.514C125.328 149.74 125.169 149.863 125.05 150.064C124.963 150.212 124.881 150.354 124.789 150.496C123.542 149.135 123.122 147.44 123.122 147.44C123.122 147.44 124.476 147.325 125.941 147.778Z" fill="white"/>
<path d="M127.579 148.576C129.345 149.83 130.004 151.987 130.105 152.351C130.084 152.373 130.062 152.394 130.041 152.415C129.61 152.441 127.401 152.508 125.663 151.274C125.338 151.043 125.053 150.779 124.799 150.503C124.784 150.352 124.776 150.2 124.784 150.044C124.829 149.122 125.275 148.317 125.943 147.781C126.49 147.954 127.056 148.204 127.579 148.576Z" fill="#363E44"/>
<path d="M136.168 152.015C136.147 152.672 136.009 153.166 135.625 153.666C134.066 153.495 132.868 152.82 132.868 152.82C132.868 152.82 134.154 151.209 136.079 150.539C136.229 151 136.182 151.547 136.168 152.015Z" fill="white"/>
<path d="M135.659 153.669C135.226 152.645 135.37 151.441 136.081 150.542C136.298 150.469 136.521 150.403 136.753 150.357C139.078 149.893 141.286 151.14 141.286 151.14C141.286 151.14 139.726 153.138 137.401 153.602C136.8 153.722 136.208 153.727 135.659 153.669Z" fill="#363E44"/>
<path d="M116.458 152.782C116.342 152.782 116.236 152.708 116.199 152.592C116.165 152.482 116.14 152.368 116.125 152.252C116.065 151.794 116.161 151.342 116.394 150.978C116.638 150.599 117 150.361 117.414 150.307C117.624 150.279 117.835 150.301 118.039 150.372C118.18 150.421 118.255 150.575 118.206 150.717C118.157 150.858 118.003 150.933 117.862 150.883C117.738 150.841 117.611 150.828 117.484 150.844C117.231 150.877 117.006 151.029 116.85 151.27C116.685 151.527 116.618 151.851 116.662 152.182C116.673 152.267 116.691 152.351 116.716 152.431C116.761 152.574 116.681 152.726 116.538 152.77C116.512 152.778 116.485 152.782 116.458 152.782Z" fill="#363E44"/>
<path d="M131.753 155.944C131.674 155.944 131.595 155.909 131.541 155.842C131.448 155.725 131.468 155.555 131.585 155.462C131.791 155.297 131.907 155.126 131.929 154.954C131.95 154.79 131.88 154.659 131.744 154.422C131.64 154.24 131.509 154.013 131.416 153.71C131.298 153.324 131.267 152.907 131.327 152.468C131.347 152.32 131.485 152.218 131.631 152.236C131.78 152.256 131.883 152.393 131.863 152.541C131.815 152.901 131.838 153.241 131.934 153.551C132.009 153.796 132.113 153.977 132.214 154.152C132.36 154.407 132.511 154.671 132.466 155.023C132.426 155.339 132.243 155.629 131.922 155.885C131.872 155.925 131.813 155.944 131.753 155.944Z" fill="#363E44"/>
<path d="M129.391 158.401C129.105 158.401 128.847 158.328 128.619 158.182C127.946 157.749 127.823 156.836 127.818 156.797C127.799 156.649 127.904 156.513 128.053 156.494C128.201 156.477 128.336 156.58 128.355 156.728C128.356 156.737 128.454 157.434 128.914 157.727C129.157 157.882 129.474 157.9 129.857 157.781C129.999 157.736 130.151 157.816 130.196 157.959C130.24 158.101 130.161 158.253 130.018 158.297C129.797 158.367 129.588 158.401 129.391 158.401Z" fill="#363E44"/>
<path d="M116.94 157.396C119.922 156.643 121.497 152.698 120.458 148.584C119.419 144.469 116.16 141.744 113.179 142.497C110.197 143.25 108.622 147.195 109.661 151.31C110.699 155.424 113.958 158.149 116.94 157.396Z" fill="#EFBC73"/>
<path d="M115.914 147.425C115.764 147.425 115.643 147.304 115.643 147.154V140.237C115.333 133.799 119.939 129.753 123.977 128.247C128.392 126.602 132.744 127.45 135.066 130.407C135.159 130.525 135.138 130.695 135.021 130.787C134.903 130.88 134.733 130.86 134.64 130.742C132.467 127.973 128.355 127.193 124.166 128.755C120.299 130.196 115.888 134.065 116.185 140.224L116.185 147.154C116.185 147.304 116.064 147.425 115.914 147.425Z" fill="#EFBC73"/>
<path d="M114.496 154.776C114.462 154.776 114.427 154.77 114.394 154.756C112.995 154.184 111.84 152.697 111.38 150.875C111.048 149.563 111.109 148.232 111.55 147.128C112.002 145.994 112.801 145.231 113.798 144.979C114.941 144.691 116.174 145.12 117.18 146.159C117.284 146.266 117.282 146.438 117.174 146.542C117.067 146.646 116.896 146.643 116.791 146.536C115.923 145.64 114.88 145.263 113.931 145.504C113.106 145.712 112.439 146.36 112.053 147.329C111.654 148.327 111.601 149.54 111.905 150.742C112.324 152.401 113.356 153.747 114.598 154.255C114.737 154.312 114.803 154.47 114.747 154.608C114.704 154.713 114.603 154.776 114.496 154.776Z" fill="#363E44"/>
<path d="M126.478 161.924C118.969 161.924 116.755 156.232 116.732 156.169C116.68 156.029 116.751 155.873 116.891 155.821C117.031 155.769 117.187 155.84 117.239 155.98C117.337 156.24 119.73 162.338 128.436 161.257C128.584 161.236 128.719 161.344 128.738 161.492C128.756 161.641 128.651 161.776 128.503 161.794C127.789 161.883 127.114 161.924 126.478 161.924Z" fill="#363E44"/>
<path d="M130.335 162.569C131.061 161.843 131.061 160.665 130.335 159.939C129.609 159.213 128.432 159.213 127.706 159.939C126.98 160.665 126.98 161.843 127.706 162.569C128.432 163.295 129.609 163.295 130.335 162.569Z" fill="#363E44"/>
<path d="M166.159 105.929C166.01 105.929 165.889 105.808 165.889 105.659V87.2607C165.889 87.1139 166.005 86.9942 166.152 86.9899L225.949 85.3556C226.025 85.3582 226.093 85.3815 226.145 85.4322C226.197 85.4833 226.227 85.5533 226.227 85.6262V100.636C226.227 100.786 226.106 100.907 225.956 100.907C225.807 100.907 225.686 100.786 225.686 100.636V85.9046L166.43 87.5241V105.659C166.43 105.808 166.309 105.929 166.159 105.929Z" fill="#363E44"/>
<path d="M166.159 104.536C165.033 104.536 164.112 103.615 164.112 102.489V97.0895C164.112 95.9635 165.033 95.0423 166.159 95.0423C167.285 95.0423 168.207 95.9635 168.207 97.0895V102.489C168.207 103.615 167.285 104.536 166.159 104.536Z" fill="#363E44"/>
<path d="M225.791 101.632C224.666 101.632 223.744 100.711 223.744 99.5849V94.1855C223.744 93.0595 224.666 92.1384 225.791 92.1384C226.917 92.1384 227.839 93.0597 227.839 94.1855V99.5849C227.839 100.711 226.917 101.632 225.791 101.632Z" fill="#363E44"/>
<path d="M166.159 146.091C171.518 146.091 175.863 136.372 175.863 124.384C175.863 112.395 171.518 102.677 166.159 102.677C160.8 102.677 156.456 112.395 156.456 124.384C156.456 136.372 160.8 146.091 166.159 146.091Z" fill="#EFBC73"/>
<path d="M237.792 256.014C237.779 256.014 237.766 256.013 237.753 256.011C237.605 255.989 237.502 255.852 237.524 255.704L251.985 156.129L228.79 111.164L212.162 117.398C212.022 117.45 211.866 117.38 211.813 117.239C211.761 117.099 211.832 116.943 211.972 116.891L228.826 110.572C228.955 110.524 229.098 110.58 229.161 110.702L252.506 155.958C252.532 156.008 252.542 156.065 252.534 156.121L238.06 255.781C238.04 255.917 237.924 256.014 237.792 256.014Z" fill="#363E44"/>
<path d="M217.247 112.452L210.412 114.581C209.145 114.976 208.431 116.335 208.826 117.602C209.22 118.868 210.58 119.582 211.846 119.187L218.682 117.058C219.948 116.664 220.662 115.304 220.267 114.038C219.873 112.771 218.514 112.057 217.247 112.452Z" fill="#363E44"/>
<path d="M197.348 131.805L182.069 136.564C178.49 137.679 174.685 135.681 173.57 132.102L171.785 126.372C170.67 122.793 172.668 118.988 176.247 117.873L191.526 113.114L197.348 131.805Z" fill="#40484C"/>
<path d="M182.874 120.455C182.644 119.716 181.859 119.304 181.12 119.534C180.381 119.764 179.969 120.549 180.199 121.288C180.429 122.026 181.215 122.439 181.953 122.209C182.692 121.978 183.104 121.193 182.874 120.455Z" fill="#2D353A"/>
<path d="M184.362 125.231C184.132 124.492 183.346 124.08 182.608 124.31C181.869 124.54 181.457 125.326 181.687 126.064C181.917 126.803 182.702 127.215 183.441 126.985C184.18 126.755 184.592 125.97 184.362 125.231Z" fill="#2D353A"/>
<path d="M184.591 132.079C185.365 132.079 185.992 131.452 185.992 130.678C185.992 129.905 185.365 129.278 184.591 129.278C183.818 129.278 183.191 129.905 183.191 130.678C183.191 131.452 183.818 132.079 184.591 132.079Z" fill="#2D353A"/>
<path d="M178.16 121.133C178.751 120.633 178.824 119.75 178.324 119.159C177.824 118.569 176.941 118.495 176.35 118.995C175.76 119.495 175.686 120.379 176.186 120.969C176.686 121.56 177.57 121.633 178.16 121.133Z" fill="#2D353A"/>
<path d="M180.089 124.422C179.859 123.684 179.074 123.272 178.335 123.502C177.596 123.732 177.184 124.517 177.414 125.256C177.644 125.994 178.429 126.407 179.168 126.176C179.907 125.946 180.319 125.161 180.089 124.422Z" fill="#2D353A"/>
<path d="M181.554 130.518C181.913 129.833 181.649 128.986 180.965 128.627C180.28 128.267 179.433 128.531 179.073 129.216C178.714 129.901 178.978 130.747 179.663 131.107C180.347 131.466 181.194 131.203 181.554 130.518Z" fill="#2D353A"/>
<path d="M182.89 134.808C183.25 134.123 182.986 133.277 182.301 132.917C181.616 132.558 180.769 132.821 180.41 133.506C180.05 134.191 180.314 135.038 180.999 135.397C181.684 135.757 182.531 135.493 182.89 134.808Z" fill="#2D353A"/>
<path d="M175.63 122.711C175.4 121.972 174.615 121.56 173.876 121.79C173.137 122.02 172.725 122.806 172.955 123.544C173.185 124.283 173.971 124.695 174.709 124.465C175.448 124.235 175.86 123.45 175.63 122.711Z" fill="#2D353A"/>
<path d="M177.118 127.487C176.888 126.749 176.102 126.337 175.364 126.567C174.625 126.797 174.213 127.582 174.443 128.321C174.673 129.059 175.458 129.471 176.197 129.241C176.936 129.011 177.348 128.226 177.118 127.487Z" fill="#2D353A"/>
<path d="M178.583 133.583C178.942 132.898 178.679 132.051 177.994 131.691C177.309 131.332 176.462 131.596 176.102 132.281C175.743 132.966 176.007 133.812 176.692 134.172C177.376 134.531 178.223 134.268 178.583 133.583Z" fill="#2D353A"/>
<path d="M206.296 108.52L188.102 114.187L193.924 132.879L212.118 127.212L206.296 108.52Z" fill="#363E44"/>
<path d="M184.841 111.854C183.569 112.251 182.859 113.603 183.255 114.875L189.54 135.052C189.937 136.324 191.289 137.034 192.561 136.638C193.833 136.242 194.543 134.89 194.147 133.617L187.862 113.44C187.465 112.168 186.113 111.458 184.841 111.854Z" fill="#EFBC73"/>
<path d="M207.64 104.753C206.368 105.149 205.658 106.501 206.055 107.773L212.34 127.951C212.736 129.223 214.088 129.933 215.36 129.536C216.632 129.14 217.342 127.788 216.946 126.516L210.661 106.338C210.265 105.066 208.912 104.356 207.64 104.753Z" fill="#EFBC73"/>
<path d="M245.031 259.591C244.967 259.591 244.902 259.587 244.836 259.579C243.936 259.473 243.293 258.657 243.399 257.757L255.505 155.249L242.017 97.7735H196.61L198.565 112.951C198.681 113.85 198.046 114.672 197.147 114.788C196.248 114.902 195.426 114.269 195.31 113.37L193.117 96.3423C193.057 95.8748 193.201 95.4033 193.512 95.0494C193.824 94.6951 194.273 94.4921 194.744 94.4921H243.317C244.079 94.4921 244.74 95.0165 244.914 95.7578L258.766 154.78C258.809 154.966 258.82 155.158 258.798 155.348L246.658 258.142C246.56 258.977 245.851 259.59 245.031 259.591Z" fill="#363E44"/>
<path d="M193.981 103.999C197.594 103.999 200.524 101.07 200.524 97.4558C200.524 93.8418 197.594 90.9122 193.981 90.9122C190.367 90.9122 187.437 93.8418 187.437 97.4558C187.437 101.07 190.367 103.999 193.981 103.999Z" fill="#EFBC73"/>
<path d="M198.146 99.177C199.098 96.8791 198.007 94.2446 195.709 93.2928C193.411 92.3409 190.777 93.4321 189.825 95.73C188.873 98.0279 189.964 100.662 192.262 101.614C194.56 102.566 197.195 101.475 198.146 99.177Z" fill="#FFD092"/>
<path d="M243.317 102.677C246.931 102.677 249.86 99.7468 249.86 96.1329C249.86 92.5189 246.931 89.5892 243.317 89.5892C239.703 89.5892 236.773 92.5189 236.773 96.1329C236.773 99.7468 239.703 102.677 243.317 102.677Z" fill="#EFBC73"/>
<path d="M244.043 100.575C246.498 100.177 248.165 97.8634 247.767 95.4083C247.368 92.9532 245.055 91.286 242.6 91.6844C240.145 92.0829 238.478 94.3961 238.876 96.8512C239.275 99.3063 241.588 100.974 244.043 100.575Z" fill="#FFD092"/>
<path d="M258.911 162.538C262.999 161.573 265.531 157.476 264.566 153.388C263.6 149.299 259.503 146.768 255.415 147.733C251.327 148.698 248.795 152.795 249.761 156.883C250.726 160.972 254.823 163.503 258.911 162.538Z" fill="#EFBC73"/>
<path d="M258.366 160.23C261.18 159.566 262.922 156.746 262.258 153.932C261.593 151.119 258.774 149.377 255.96 150.041C253.146 150.705 251.404 153.525 252.068 156.338C252.733 159.152 255.552 160.894 258.366 160.23Z" fill="#FFD092"/>
<path d="M265.582 247.438H41.1381V265.862H265.582V247.438Z" fill="#D3BBA3"/>
<path d="M107.346 126.907C107.276 126.907 107.207 126.88 107.155 126.828L95.2451 114.918H49.8373C49.6877 114.918 49.5665 114.797 49.5665 114.647V76.5544C49.5665 76.4047 49.6877 76.2836 49.8373 76.2836H113.177C113.326 76.2836 113.448 76.4047 113.448 76.5544V114.647C113.448 114.797 113.326 114.918 113.177 114.918H107.617V126.636C107.617 126.746 107.551 126.845 107.45 126.886C107.416 126.901 107.381 126.907 107.346 126.907ZM50.1081 114.376H95.3572C95.429 114.376 95.4978 114.405 95.5486 114.456L107.075 125.983V114.647C107.075 114.497 107.197 114.376 107.346 114.376H112.906V76.8251H50.1081V114.376Z" fill="#D3BBA3"/>
<path d="M78.7556 66.0946C74.9994 66.0946 71.9543 69.1397 71.9543 72.8959V89.6219C71.9543 93.3782 74.9994 96.4232 78.7556 96.4232C82.5118 96.4232 85.557 93.3781 85.557 89.6219V72.8959C85.5569 69.1396 82.5118 66.0946 78.7556 66.0946Z" fill="#D87355"/>
<path d="M87.6746 101.008H69.8364C69.6869 101.008 69.5657 100.887 69.5657 100.737V87.3652C69.5657 87.2155 69.6869 87.0944 69.8364 87.0944C69.986 87.0944 70.1072 87.2155 70.1072 87.3652V100.466H87.4039V87.3652C87.4039 87.2155 87.5251 87.0944 87.6746 87.0944C87.8242 87.0944 87.9454 87.2155 87.9454 87.3652V100.737C87.9454 100.887 87.8242 101.008 87.6746 101.008Z" fill="#363E44"/>
<path d="M78.7555 106.892C78.6059 106.892 78.4847 106.771 78.4847 106.621V103.523C78.4847 103.373 78.6059 103.252 78.7555 103.252C78.9051 103.252 79.0263 103.373 79.0263 103.523V106.621C79.0263 106.771 78.9051 106.892 78.7555 106.892Z" fill="#363E44"/>
<path d="M89.4376 109.81H68.0735C67.9239 109.81 67.8027 109.689 67.8027 109.539C67.8027 109.389 67.9239 109.268 68.0735 109.268H89.4376C89.5872 109.268 89.7084 109.389 89.7084 109.539C89.7084 109.689 89.5872 109.81 89.4376 109.81Z" fill="#363E44"/>
<path d="M191.843 185.958H105.143V247.438H191.843V185.958Z" fill="#363E44"/>
<path d="M157.62 248.741H155.053C155.053 250.666 153.492 252.227 151.567 252.227H145.42C143.495 252.227 141.934 250.666 141.934 248.741H139.367L136.8 262.382V263.523H160.186V262.382L157.62 248.741Z" fill="#363E44"/>
<path d="M160.187 265.219H136.8C136.651 265.219 136.53 265.098 136.53 264.948C136.53 264.799 136.651 264.678 136.8 264.678H160.187C160.336 264.678 160.457 264.799 160.457 264.948C160.457 265.098 160.336 265.219 160.187 265.219Z" fill="#363E44"/>
<path d="M119.248 80.819C119.099 80.819 118.977 80.6979 118.977 80.5482V71.8276C118.977 71.6779 119.099 71.5568 119.248 71.5568C119.398 71.5568 119.519 71.6779 119.519 71.8276V80.5482C119.519 80.6979 119.398 80.819 119.248 80.819Z" fill="#D3BBA3"/>
<path d="M124.399 88.0876C124.249 88.0876 124.128 87.9665 124.128 87.8169V64.5592C124.128 64.4095 124.249 64.2884 124.399 64.2884C124.549 64.2884 124.67 64.4095 124.67 64.5592V87.8169C124.67 87.9664 124.548 88.0876 124.399 88.0876Z" fill="#D3BBA3"/>
<path d="M129.55 95.0914C129.4 95.0914 129.279 94.9703 129.279 94.8206V57.5553C129.279 57.4056 129.4 57.2845 129.55 57.2845C129.699 57.2845 129.82 57.4056 129.82 57.5553V94.8206C129.82 94.9703 129.699 95.0914 129.55 95.0914Z" fill="#D3BBA3"/>
<path d="M134.7 84.4908C134.551 84.4908 134.43 84.3697 134.43 84.22V68.1558C134.43 68.0062 134.551 67.8851 134.7 67.8851C134.85 67.8851 134.971 68.0062 134.971 68.1558V84.22C134.971 84.3697 134.85 84.4908 134.7 84.4908Z" fill="#D3BBA3"/>
<path d="M139.851 78.5751C139.702 78.5751 139.58 78.454 139.58 78.3043V74.0714C139.58 73.9217 139.702 73.8006 139.851 73.8006C140.001 73.8006 140.122 73.9217 140.122 74.0714V78.3043C140.122 78.454 140.001 78.5751 139.851 78.5751Z" fill="#D3BBA3"/>
<path d="M142.401 80.819C142.251 80.819 142.13 80.6979 142.13 80.5482V71.8276C142.13 71.6779 142.251 71.5568 142.401 71.5568C142.551 71.5568 142.672 71.6779 142.672 71.8276V80.5482C142.672 80.6979 142.55 80.819 142.401 80.819Z" fill="#D3BBA3"/>
<path d="M147.552 88.0876C147.402 88.0876 147.281 87.9665 147.281 87.8169V64.5592C147.281 64.4095 147.402 64.2884 147.552 64.2884C147.701 64.2884 147.823 64.4095 147.823 64.5592V87.8169C147.823 87.9664 147.701 88.0876 147.552 88.0876Z" fill="#D3BBA3"/>
<path d="M152.702 82.3486C152.553 82.3486 152.432 82.2275 152.432 82.0778V70.2981C152.432 70.1484 152.553 70.0273 152.702 70.0273C152.852 70.0273 152.973 70.1484 152.973 70.2981V82.0779C152.973 82.2275 152.852 82.3486 152.702 82.3486Z" fill="#D3BBA3"/>
<path d="M157.853 84.4908C157.703 84.4908 157.582 84.3697 157.582 84.22V68.1558C157.582 68.0062 157.703 67.8851 157.853 67.8851C158.003 67.8851 158.124 68.0062 158.124 68.1558V84.22C158.124 84.3697 158.003 84.4908 157.853 84.4908Z" fill="#D3BBA3"/>
<path d="M163.004 78.5751C162.854 78.5751 162.733 78.454 162.733 78.3043V74.0714C162.733 73.9217 162.854 73.8006 163.004 73.8006C163.154 73.8006 163.275 73.9217 163.275 74.0714V78.3043C163.275 78.454 163.153 78.5751 163.004 78.5751Z" fill="#D3BBA3"/>
<path d="M255.925 225.356C255.862 225.356 255.798 225.334 255.747 225.29C255.634 225.191 255.622 225.021 255.721 224.908L257.034 223.397C257.132 223.284 257.303 223.273 257.416 223.371C257.529 223.469 257.541 223.64 257.443 223.753L256.129 225.263C256.076 225.325 256 225.356 255.925 225.356Z" fill="#363E44"/>
<path d="M255.41 230.379C255.343 230.379 255.277 230.355 255.224 230.306C255.115 230.203 255.11 230.032 255.213 229.923L256.895 228.133C256.998 228.024 257.17 228.019 257.278 228.122C257.387 228.224 257.392 228.396 257.29 228.505L255.607 230.294C255.554 230.351 255.482 230.379 255.41 230.379Z" fill="#363E44"/>
<path d="M254.163 236.798C254.082 236.798 254.003 236.762 253.949 236.694C253.857 236.576 253.878 236.406 253.996 236.314L256.523 234.346C256.64 234.255 256.811 234.276 256.903 234.394C256.995 234.511 256.973 234.682 256.855 234.773L254.329 236.741C254.28 236.78 254.221 236.798 254.163 236.798Z" fill="#363E44"/>
<path d="M253.306 241.39C253.22 241.39 253.135 241.349 253.082 241.272C252.998 241.148 253.03 240.98 253.154 240.896L254.893 239.715C255.017 239.631 255.185 239.663 255.269 239.787C255.353 239.911 255.321 240.079 255.197 240.163L253.458 241.344C253.412 241.375 253.359 241.39 253.306 241.39Z" fill="#363E44"/>
<path d="M251.833 245.97C251.733 245.97 251.636 245.914 251.589 245.818C251.523 245.684 251.579 245.522 251.713 245.456L253.581 244.542C253.715 244.476 253.878 244.532 253.944 244.666C254.009 244.8 253.954 244.963 253.819 245.028L251.951 245.943C251.913 245.962 251.873 245.97 251.833 245.97Z" fill="#363E44"/>
<path d="M262.479 238.131C264.459 228.863 261.616 220.399 256.129 219.227C250.642 218.054 244.589 224.618 242.609 233.887C240.629 243.155 243.472 251.619 248.959 252.791C254.446 253.964 260.499 247.4 262.479 238.131Z" fill="#8B865C"/>
<path d="M256.136 219.215C256.118 219.212 256.1 219.211 256.082 219.208L248.916 252.767C248.933 252.771 248.95 252.778 248.968 252.782C252.128 253.456 256.294 246.489 258.273 237.22C260.252 227.951 259.296 219.89 256.136 219.215Z" fill="#776E42"/>
<path d="M246.25 248.956C246.125 248.956 246.013 248.869 245.985 248.743C245.21 245.191 245.422 240.081 246.566 234.721C247.81 228.896 249.96 223.761 252.317 220.984C252.414 220.871 252.584 220.857 252.698 220.953C252.812 221.05 252.826 221.221 252.73 221.335C250.428 224.046 248.322 229.093 247.096 234.834C245.983 240.043 245.766 245.2 246.514 248.627C246.546 248.773 246.454 248.918 246.308 248.949C246.288 248.954 246.269 248.956 246.25 248.956Z" fill="#363E44"/>
<path d="M253.022 250.557C252.965 250.557 252.907 250.539 252.859 250.502C252.739 250.412 252.716 250.242 252.806 250.123C254.93 247.314 256.875 242.47 258.008 237.163C259.271 231.248 259.37 225.506 258.266 222.176C258.219 222.034 258.296 221.88 258.438 221.833C258.58 221.787 258.733 221.864 258.78 222.005C259.913 225.421 259.82 231.273 258.538 237.276C257.389 242.656 255.408 247.581 253.238 250.45C253.185 250.52 253.104 250.557 253.022 250.557Z" fill="#363E44"/>
<path d="M246.67 228.515C246.588 228.515 246.508 228.478 246.454 228.408L244.495 225.841C244.404 225.722 244.427 225.553 244.546 225.462C244.665 225.371 244.835 225.394 244.925 225.513L246.885 228.08C246.976 228.199 246.953 228.368 246.834 228.459C246.785 228.497 246.727 228.515 246.67 228.515Z" fill="#363E44"/>
<path d="M245.076 234.86C245.009 234.86 244.941 234.835 244.889 234.785L241.518 231.558C241.41 231.455 241.406 231.283 241.51 231.175C241.613 231.067 241.784 231.063 241.892 231.167L245.263 234.393C245.372 234.497 245.375 234.668 245.272 234.776C245.218 234.832 245.147 234.86 245.076 234.86Z" fill="#363E44"/>
<path d="M243.872 239.378C243.81 239.378 243.748 239.356 243.697 239.313L241.273 237.244C241.159 237.147 241.145 236.976 241.242 236.862C241.339 236.749 241.51 236.735 241.624 236.832L244.048 238.901C244.162 238.998 244.175 239.169 244.078 239.283C244.025 239.346 243.949 239.378 243.872 239.378Z" fill="#363E44"/>
<path d="M243.786 244.254C243.734 244.254 243.681 244.239 243.634 244.207L240.819 242.293C240.695 242.209 240.663 242.041 240.747 241.917C240.831 241.794 241 241.761 241.123 241.845L243.938 243.759C244.062 243.843 244.094 244.012 244.01 244.135C243.958 244.212 243.873 244.254 243.786 244.254Z" fill="#363E44"/>
<path d="M261.134 226.469C261.042 226.469 260.953 226.422 260.902 226.338C260.825 226.21 260.866 226.043 260.994 225.966L263.187 224.644C263.315 224.566 263.481 224.607 263.559 224.736C263.636 224.864 263.595 225.03 263.467 225.107L261.274 226.43C261.23 226.456 261.182 226.469 261.134 226.469Z" fill="#363E44"/>
<path d="M259.976 238.04C259.865 238.04 259.761 237.971 259.721 237.86C259.671 237.72 259.744 237.565 259.885 237.514L264.28 235.945C264.421 235.895 264.576 235.968 264.626 236.109C264.677 236.25 264.603 236.405 264.462 236.455L260.068 238.024C260.037 238.035 260.007 238.04 259.976 238.04Z" fill="#363E44"/>
<path d="M258.008 246.104C257.879 246.104 257.765 246.012 257.741 245.881C257.715 245.734 257.813 245.593 257.96 245.567L261.312 244.969C261.461 244.943 261.6 245.041 261.626 245.188C261.652 245.335 261.554 245.476 261.407 245.502L258.056 246.1C258.039 246.103 258.023 246.104 258.008 246.104Z" fill="#363E44"/>
<path d="M255.41 230.379C255.343 230.379 255.277 230.355 255.224 230.306C255.115 230.203 255.11 230.032 255.213 229.923L256.895 228.133C256.998 228.024 257.17 228.019 257.278 228.122C257.387 228.224 257.392 228.396 257.29 228.505L255.607 230.294C255.554 230.351 255.482 230.379 255.41 230.379Z" fill="#363E44"/>
<path d="M253.306 241.39C253.22 241.39 253.135 241.349 253.082 241.272C252.998 241.148 253.03 240.98 253.154 240.896L254.893 239.715C255.017 239.631 255.185 239.663 255.269 239.787C255.353 239.911 255.321 240.079 255.197 240.163L253.458 241.344C253.412 241.375 253.359 241.39 253.306 241.39Z" fill="#363E44"/>
<path d="M253.683 224.878C253.567 224.878 253.46 224.803 253.424 224.686L252.842 222.771C252.799 222.628 252.879 222.477 253.022 222.433C253.165 222.389 253.316 222.47 253.36 222.613L253.942 224.528C253.986 224.671 253.905 224.822 253.762 224.866C253.736 224.874 253.709 224.878 253.683 224.878Z" fill="#363E44"/>
<path d="M250.618 236.042C250.521 236.042 250.427 235.989 250.379 235.898L248.876 233.07C248.806 232.938 248.856 232.774 248.989 232.704C249.12 232.634 249.284 232.684 249.355 232.816L250.857 235.644C250.927 235.776 250.877 235.94 250.745 236.01C250.705 236.031 250.661 236.042 250.618 236.042Z" fill="#363E44"/>
<path d="M248.999 245.366C248.921 245.366 248.844 245.333 248.791 245.268L247.459 243.671C247.363 243.556 247.379 243.386 247.494 243.29C247.609 243.194 247.779 243.209 247.875 243.324L249.207 244.921C249.302 245.036 249.287 245.207 249.172 245.303C249.121 245.345 249.06 245.366 248.999 245.366Z" fill="#363E44"/>
<path d="M238.197 233.053C238.188 233.053 238.178 233.053 238.168 233.052C238.02 233.036 237.912 232.903 237.928 232.754L238.093 231.184C238.109 231.035 238.242 230.928 238.391 230.943C238.539 230.959 238.647 231.092 238.632 231.241L238.466 232.811C238.452 232.95 238.334 233.053 238.197 233.053Z" fill="#363E44"/>
<path d="M240.138 236.533C240.125 236.533 240.112 236.532 240.099 236.53C239.951 236.508 239.848 236.371 239.869 236.223L240.147 234.305C240.169 234.157 240.306 234.052 240.454 234.076C240.602 234.097 240.705 234.235 240.683 234.383L240.405 236.301C240.386 236.435 240.27 236.533 240.138 236.533Z" fill="#363E44"/>
<path d="M242.237 241.245C242.21 241.245 242.184 241.241 242.157 241.233C242.014 241.189 241.934 241.038 241.978 240.894L242.72 238.48C242.764 238.337 242.915 238.256 243.058 238.301C243.201 238.345 243.281 238.496 243.238 238.639L242.496 241.054C242.46 241.17 242.352 241.245 242.237 241.245Z" fill="#363E44"/>
<path d="M243.761 244.6C243.729 244.6 243.697 244.595 243.665 244.582C243.525 244.529 243.455 244.373 243.508 244.233L244.097 242.683C244.151 242.544 244.307 242.473 244.447 242.527C244.586 242.58 244.657 242.736 244.603 242.876L244.014 244.426C243.973 244.534 243.87 244.6 243.761 244.6Z" fill="#363E44"/>
<path d="M244.882 248.226C244.837 248.226 244.792 248.216 244.751 248.193C244.62 248.12 244.572 247.956 244.645 247.825L245.438 246.389C245.51 246.258 245.675 246.21 245.806 246.283C245.937 246.355 245.984 246.52 245.912 246.651L245.119 248.087C245.069 248.176 244.977 248.226 244.882 248.226Z" fill="#363E44"/>
<path d="M246.25 253.821C250.326 252.094 251.265 245.113 248.348 238.228C245.431 231.342 239.763 227.16 235.687 228.887C231.611 230.614 230.672 237.595 233.589 244.481C236.506 251.366 242.174 255.548 246.25 253.821Z" fill="#776E42"/>
<path d="M235.677 228.894C235.663 228.899 235.651 228.907 235.639 228.913L246.196 253.842C246.209 253.837 246.223 253.834 246.236 253.828C248.583 252.835 248.122 246.448 245.206 239.562C242.29 232.677 238.024 227.9 235.677 228.894Z" fill="#8B865C"/>
<path d="M242.625 252.681C242.559 252.681 242.494 252.657 242.442 252.609C240.328 250.66 238.146 247.254 236.457 243.265C234.621 238.93 233.685 234.629 233.952 231.759C233.966 231.611 234.094 231.499 234.247 231.515C234.396 231.529 234.505 231.661 234.491 231.81C234.232 234.594 235.153 238.797 236.956 243.054C238.592 246.917 240.78 250.34 242.809 252.211C242.919 252.313 242.926 252.484 242.824 252.594C242.771 252.652 242.698 252.681 242.625 252.681Z" fill="#363E44"/>
<path d="M247.727 250.652C247.723 250.652 247.72 250.652 247.717 250.652C247.567 250.647 247.45 250.521 247.456 250.372C247.557 247.604 246.623 243.603 244.957 239.668C243.1 235.283 240.572 231.536 238.359 229.889C238.239 229.8 238.214 229.63 238.303 229.51C238.393 229.391 238.562 229.365 238.682 229.455C240.968 231.156 243.563 234.988 245.455 239.457C247.151 243.461 248.101 247.549 247.997 250.391C247.992 250.538 247.872 250.652 247.727 250.652Z" fill="#363E44"/>
<path d="M232.864 235.311C232.833 235.311 232.802 235.306 232.771 235.294L230.875 234.597C230.735 234.545 230.663 234.389 230.714 234.249C230.766 234.109 230.922 234.037 231.062 234.089L232.958 234.786C233.098 234.838 233.17 234.993 233.118 235.134C233.078 235.243 232.975 235.311 232.864 235.311Z" fill="#363E44"/>
<path d="M235.487 244.102C235.474 244.102 235.46 244.101 235.446 244.099L231.807 243.539C231.659 243.516 231.558 243.378 231.581 243.23C231.604 243.082 231.741 242.982 231.89 243.004L235.528 243.564C235.676 243.587 235.777 243.725 235.755 243.873C235.734 244.007 235.619 244.102 235.487 244.102Z" fill="#363E44"/>
<path d="M236.22 250.793C236.072 250.793 235.951 250.675 235.949 250.526C235.947 250.377 236.066 250.254 236.216 250.252L238.901 250.215C239.046 250.201 239.174 250.332 239.176 250.482C239.178 250.631 239.058 250.755 238.909 250.757L236.223 250.793C236.222 250.793 236.221 250.793 236.22 250.793Z" fill="#363E44"/>
<path d="M244.374 234.74C244.334 234.74 244.293 234.731 244.254 234.712C244.12 234.645 244.066 234.482 244.132 234.349L245.267 232.068C245.334 231.934 245.496 231.879 245.63 231.946C245.764 232.013 245.819 232.175 245.752 232.309L244.617 234.59C244.57 234.685 244.474 234.74 244.374 234.74Z" fill="#363E44"/>
<path d="M248.162 242.738C248.102 242.738 248.043 242.719 247.993 242.679C247.876 242.586 247.857 242.415 247.95 242.299L249.519 240.334C249.613 240.217 249.783 240.198 249.9 240.292C250.017 240.385 250.036 240.555 249.943 240.672L248.373 242.636C248.32 242.703 248.241 242.738 248.162 242.738Z" fill="#363E44"/>
<path d="M238.197 233.053C238.188 233.053 238.178 233.053 238.168 233.052C238.02 233.036 237.912 232.903 237.928 232.754L238.093 231.184C238.109 231.035 238.242 230.928 238.391 230.943C238.539 230.959 238.647 231.092 238.632 231.241L238.466 232.811C238.452 232.95 238.334 233.053 238.197 233.053Z" fill="#363E44"/>
<path d="M242.237 241.245C242.21 241.245 242.184 241.241 242.157 241.233C242.014 241.189 241.934 241.038 241.978 240.894L242.72 238.48C242.764 238.337 242.915 238.256 243.058 238.301C243.201 238.345 243.281 238.496 243.238 238.639L242.496 241.054C242.46 241.17 242.352 241.245 242.237 241.245Z" fill="#363E44"/>
<path d="M244.882 248.226C244.837 248.226 244.792 248.216 244.751 248.193C244.62 248.12 244.572 247.956 244.645 247.825L245.438 246.389C245.51 246.258 245.675 246.21 245.806 246.283C245.937 246.355 245.984 246.52 245.912 246.651L245.119 248.087C245.069 248.176 244.977 248.226 244.882 248.226Z" fill="#363E44"/>
<path d="M237.68 237.573C237.625 237.573 237.569 237.556 237.521 237.521L235.951 236.386C235.83 236.298 235.802 236.129 235.89 236.008C235.978 235.887 236.147 235.86 236.268 235.947L237.839 237.082C237.96 237.17 237.987 237.34 237.9 237.461C237.846 237.534 237.764 237.573 237.68 237.573Z" fill="#363E44"/>
<path d="M240.952 245.789C240.916 245.789 240.88 245.782 240.845 245.767L239.322 245.112C239.184 245.052 239.121 244.893 239.18 244.756C239.239 244.618 239.398 244.555 239.536 244.614L241.059 245.27C241.196 245.329 241.26 245.488 241.201 245.625C241.157 245.728 241.057 245.789 240.952 245.789Z" fill="#363E44"/>
<path d="M258.675 259.741H235.003L232.297 248.216H261.38L258.675 259.741Z" fill="#D87355"/>
<path d="M260.015 215.37C260.015 218.232 258.165 220.551 255.884 220.551C253.602 220.551 251.753 218.232 251.753 215.37L253.48 216.346L254.757 215.07L256.034 216.121L257.461 214.995L258.513 216.046L260.015 215.37Z" fill="#EFBC73"/>
</g>
<defs>
<clipPath id="clip0_23_886">
<rect width="307" height="307" fill="white"/>
</clipPath>
</defs>
</svg>
