<svg width="225" height="225" viewBox="0 0 225 225" fill="none" xmlns="http://www.w3.org/2000/svg">
<g clip-path="url(#clip0_86_2)">
<mask id="mask0_86_2" style="mask-type:luminance" maskUnits="userSpaceOnUse" x="-41" y="-41" width="307" height="307">
<path d="M266 -41H-41V266H266V-41Z" fill="white"/>
</mask>
<g mask="url(#mask0_86_2)">
<path d="M112.5 224.862C174.556 224.862 224.862 174.556 224.862 112.5C224.862 50.4442 174.556 0.138 112.5 0.138C50.4441 0.138 0.137939 50.4442 0.137939 112.5C0.137939 174.556 50.4441 224.862 112.5 224.862Z" fill="#F2E6DC"/>
<path d="M76.1299 131.283C82.5279 124.885 82.5279 114.511 76.1299 108.113C69.7309 101.715 59.3579 101.715 52.9591 108.113C46.5608 114.511 46.5608 124.885 52.9591 131.283C59.3579 137.682 69.7309 137.682 76.1299 131.283Z" fill="#363E44"/>
<path d="M94.0289 104.841C94.0289 104.841 107.072 105.737 106.428 96.405C105.784 87.073 95.1599 88.36 89.6909 91.256C84.2229 94.153 75.5349 88.36 71.0299 92.222C66.5239 96.083 68.1599 114.011 77.1569 115.989C86.1539 117.966 94.0289 104.841 94.0289 104.841Z" fill="#363E44"/>
<path d="M121.44 144.639C148.47 155.86 161.661 165.388 156.578 175.272C153.63 181.005 134.454 180.035 112.658 172.311C114.851 163.326 118.546 155.45 121.44 144.639Z" fill="#E2A18D"/>
<path d="M32.838 143.849C22.7769 154.601 -8.06862 183.985 3.73698 195.949C13.5021 205.845 42.3482 175.991 52.9982 165.914C46.2782 158.559 39.5581 151.204 32.838 143.849Z" fill="#E2A18D"/>
<path d="M24.6704 141.841C24.6704 141.841 51.6076 129.035 76.337 131.243C101.066 133.451 125.243 143.166 125.243 143.166L113.431 173.194L116.963 211.027H29.5279L36.1518 175.071L24.6704 141.841Z" fill="#8B865C"/>
<path d="M129.659 168.17V168.168C139.339 143.514 145.734 125.836 147.923 120.457C148.152 119.893 148.552 118.897 149.404 117.792C152.558 113.695 156.854 114.663 162.136 111.869C168.13 108.7 169.711 103.521 171.316 104.17C172.433 104.622 172.386 106.743 170.724 110.683C172.331 107.835 174.68 104.067 176.251 104.96C178.011 106.088 175.772 110.838 174.277 113.646C176.086 110.248 178.065 108.982 178.817 109.698C180.001 110.825 179.212 113.787 176.646 118.186C179.266 115.643 180.281 115.417 180.792 116.212C181.724 117.664 179.546 121.241 177.137 124.107C174.424 127.335 171.201 128.897 169.145 129.833L169.144 129.834C164.155 147.805 160.97 159.367 157.235 173.963C156.471 176.949 153.313 178.64 150.403 177.622C142.537 174.872 138.158 173.182 129.659 168.17Z" fill="#E2A18D"/>
<path d="M129.768 168.16C129.735 168.16 129.702 168.154 129.669 168.141C129.53 168.086 129.462 167.929 129.516 167.79C131.654 162.342 133.757 156.918 135.945 151.209C135.998 151.069 136.155 151 136.295 151.053C136.434 151.106 136.504 151.263 136.45 151.403C134.263 157.113 132.159 162.538 130.02 167.988C129.979 168.095 129.876 168.16 129.768 168.16Z" fill="#363E44"/>
<path d="M157.889 115.562C159.936 109.173 159.321 106.435 158.298 106.142C156.578 105.651 152.597 110.39 148.428 119.35C151.159 118.531 155.158 116.381 157.889 115.562Z" fill="#E2A18D"/>
<path d="M158.79 126.972C158.762 126.972 158.735 126.968 158.707 126.959C158.565 126.914 158.486 126.761 158.532 126.619C158.905 125.448 159.707 123.765 161.404 122.395C163.807 120.456 166.516 120.39 167.57 120.452C167.719 120.46 167.833 120.588 167.824 120.738C167.815 120.887 167.69 120.998 167.538 120.992C166.548 120.934 164 120.996 161.744 122.816C160.151 124.103 159.398 125.683 159.047 126.783C159.011 126.899 158.904 126.972 158.79 126.972Z" fill="#363E44"/>
<path d="M152.115 115.978C152.019 115.978 151.927 115.928 151.878 115.838C151.806 115.706 151.854 115.542 151.985 115.47C153.299 114.751 154.749 114.362 156.285 113.951C156.999 113.76 157.737 113.562 158.5 113.322C158.643 113.277 158.795 113.356 158.84 113.499C158.885 113.641 158.806 113.793 158.663 113.838C157.889 114.082 157.145 114.281 156.425 114.474C154.922 114.876 153.502 115.257 152.245 115.945C152.204 115.968 152.159 115.978 152.115 115.978Z" fill="#363E44"/>
<path d="M166.189 115.041C166.095 115.041 166.005 114.993 165.955 114.906C165.879 114.777 165.923 114.611 166.052 114.536C166.744 114.134 167.401 113.666 168.005 113.145C168.881 112.39 169.655 111.517 170.305 110.551C170.388 110.427 170.557 110.393 170.681 110.477C170.805 110.561 170.838 110.729 170.754 110.853C170.077 111.859 169.271 112.768 168.358 113.555C167.73 114.097 167.045 114.585 166.325 115.004C166.282 115.029 166.235 115.041 166.189 115.041Z" fill="#363E44"/>
<path d="M169.96 117.555C169.867 117.555 169.776 117.507 169.726 117.42C169.651 117.291 169.695 117.125 169.824 117.05C170.516 116.647 171.173 116.18 171.776 115.659C172.653 114.903 173.426 114.031 174.076 113.065C174.159 112.941 174.328 112.907 174.452 112.991C174.576 113.074 174.609 113.243 174.526 113.367C173.849 114.373 173.043 115.282 172.13 116.069C171.501 116.611 170.817 117.099 170.096 117.518C170.053 117.543 170.006 117.555 169.96 117.555Z" fill="#363E44"/>
<path d="M172.223 122.583C172.129 122.583 172.039 122.535 171.988 122.448C171.913 122.319 171.957 122.153 172.086 122.078C172.778 121.676 173.435 121.208 174.039 120.687C174.915 119.932 175.689 119.059 176.339 118.093C176.422 117.969 176.59 117.936 176.715 118.019C176.839 118.103 176.872 118.271 176.788 118.395C176.111 119.401 175.305 120.31 174.392 121.098C173.764 121.639 173.08 122.127 172.359 122.546C172.316 122.571 172.269 122.583 172.223 122.583Z" fill="#363E44"/>
<path d="M14.7214 174.088C26.0946 176.563 53.1661 181.065 55.7912 181.609C60.6981 182.627 86.8921 188.775 86.4151 192.651C86.1871 194.503 81.0871 193.547 79.3721 193.173C80.6081 194.157 85.7651 197.423 84.9791 199.362C84.0571 201.64 77.3161 198.689 77.1831 198.709C78.5391 199.581 84.0841 202.837 83.5521 204.314C82.8591 206.235 76.7931 204.753 74.9971 204.225C75.1131 204.526 80.5711 208.016 80.0981 209.174C79.5741 210.458 73.8841 209.211 71.5841 208.927C67.2231 208.026 50.0888 205.433 41.7055 204.57C22.0164 202.542 15.9404 200.289 6.59309 197.634C2.93389 196.594 9.14069 176.936 14.7214 174.088Z" fill="#E2A18D"/>
<path d="M35.4163 177.991C35.4002 177.991 35.3838 177.99 35.3675 177.987C29.8529 176.982 18.4296 174.877 14.6664 174.102C14.5199 174.072 14.4257 173.929 14.4558 173.782C14.4859 173.636 14.6292 173.542 14.7755 173.572C18.534 174.346 29.952 176.45 35.4645 177.454C35.6116 177.481 35.7093 177.622 35.6824 177.769C35.6585 177.9 35.5447 177.991 35.4163 177.991Z" fill="#363E44"/>
<path d="M79.47 193.275C79.422 193.275 79.372 193.262 79.328 193.234C78.446 192.689 77.519 192.2 76.574 191.783C74.874 191.032 73.075 190.491 71.228 190.174C71.081 190.149 70.982 190.008 71.007 189.861C71.032 189.714 71.172 189.616 71.32 189.64C73.211 189.964 75.052 190.519 76.792 191.287C77.76 191.715 78.709 192.215 79.613 192.773C79.74 192.852 79.78 193.019 79.701 193.146C79.65 193.229 79.561 193.275 79.47 193.275Z" fill="#363E44"/>
<path d="M77.306 198.874C77.267 198.874 77.227 198.866 77.19 198.848C76.993 198.754 76.792 198.662 76.586 198.57C74.887 197.82 73.088 197.279 71.241 196.962C71.094 196.937 70.995 196.797 71.02 196.649C71.045 196.502 71.184 196.403 71.333 196.428C73.223 196.752 75.065 197.306 76.805 198.075C77.016 198.169 77.222 198.263 77.423 198.359C77.558 198.424 77.615 198.585 77.551 198.72C77.504 198.817 77.407 198.874 77.306 198.874Z" fill="#363E44"/>
<path d="M74.889 204.418C74.86 204.418 74.831 204.413 74.801 204.404C73.654 204.01 72.46 203.706 71.254 203.499C71.106 203.473 71.007 203.333 71.033 203.186C71.058 203.038 71.198 202.939 71.345 202.965C72.58 203.177 73.802 203.488 74.977 203.891C75.119 203.94 75.194 204.094 75.145 204.235C75.107 204.348 75.002 204.418 74.889 204.418Z" fill="#363E44"/>
<path d="M63.2119 133.985L73.8789 111.371L86.7489 113.408L83.0719 133.728L63.2119 133.985Z" fill="#E2A18D"/>
<path d="M85.8331 133.829C85.8331 135.577 80.3461 136.994 73.5771 136.994C66.8081 136.994 61.3201 135.577 61.3201 133.829C61.3201 132.081 66.8081 130.204 73.5771 130.204C80.3461 130.204 85.8331 132.08 85.8331 133.829Z" fill="#E2A18D"/>
<path d="M97.5919 102.624C97.5919 102.624 95.6019 122.019 87.4029 122.64C82.4429 123.015 77.8969 117.312 76.7949 114.634C75.6919 111.957 76.7949 107.581 76.7949 107.581C76.7949 107.581 78.4609 109.141 79.7989 108.111C81.1369 107.08 79.5909 100.602 85.4769 100.867C91.3619 101.132 91.9999 103.62 97.5919 102.624Z" fill="#E2A18D"/>
<path d="M79.5471 109.554C80.0491 111.119 79.5641 113.969 77.9981 114.471C76.4331 114.973 74.3811 112.936 73.8791 111.371C73.3771 109.806 74.2391 108.13 75.8051 107.628C77.3701 107.127 79.0451 107.989 79.5471 109.554Z" fill="#E2A18D"/>
<path d="M84.9411 106.778C84.9441 106.818 84.9181 106.849 84.9211 106.888C84.9211 106.89 84.9221 106.891 84.9221 106.893C84.7921 107.434 84.6541 108.006 84.4281 108.514C84.3281 108.74 84.1691 108.863 84.0501 109.064C83.9631 109.212 83.8811 109.354 83.7891 109.496C82.5421 108.135 82.1221 106.44 82.1221 106.44C82.1221 106.44 83.4761 106.325 84.9411 106.778Z" fill="white"/>
<path d="M86.5789 107.576C88.3449 108.83 89.0039 110.987 89.1049 111.351C89.0839 111.373 89.0619 111.394 89.0409 111.415C88.6099 111.441 86.4009 111.508 84.6629 110.274C84.3379 110.043 84.0529 109.779 83.7989 109.503C83.7839 109.352 83.7759 109.2 83.7839 109.044C83.8289 108.122 84.2749 107.317 84.9429 106.781C85.4899 106.954 86.0559 107.204 86.5789 107.576Z" fill="#363E44"/>
<path d="M95.1679 111.015C95.1469 111.672 95.0089 112.166 94.6249 112.666C93.0659 112.495 91.8679 111.82 91.8679 111.82C91.8679 111.82 93.1539 110.209 95.0789 109.539C95.2289 110 95.1819 110.547 95.1679 111.015Z" fill="white"/>
<path d="M94.659 112.669C94.226 111.645 94.37 110.441 95.081 109.542C95.298 109.469 95.521 109.403 95.753 109.357C98.078 108.893 100.286 110.14 100.286 110.14C100.286 110.14 98.726 112.138 96.401 112.602C95.8 112.722 95.208 112.727 94.659 112.669Z" fill="#363E44"/>
<path d="M75.4581 111.782C75.3421 111.782 75.2361 111.708 75.1991 111.592C75.1651 111.482 75.1401 111.368 75.1251 111.252C75.0651 110.794 75.1611 110.342 75.3941 109.978C75.6381 109.599 76.0001 109.361 76.4141 109.307C76.6241 109.279 76.8351 109.301 77.0391 109.372C77.1801 109.421 77.2551 109.575 77.2061 109.717C77.1571 109.858 77.0031 109.933 76.8621 109.883C76.7381 109.841 76.6111 109.828 76.4841 109.844C76.2311 109.877 76.0061 110.029 75.8501 110.27C75.6851 110.527 75.6181 110.851 75.6621 111.182C75.6731 111.267 75.6911 111.351 75.7161 111.431C75.7611 111.574 75.6811 111.726 75.5381 111.77C75.5121 111.778 75.4851 111.782 75.4581 111.782Z" fill="#363E44"/>
<path d="M90.7529 114.944C90.6739 114.944 90.5949 114.909 90.5409 114.842C90.4479 114.725 90.4679 114.555 90.5849 114.462C90.7909 114.297 90.9069 114.126 90.9289 113.954C90.9499 113.79 90.8799 113.659 90.7439 113.422C90.6399 113.24 90.5089 113.013 90.4159 112.71C90.2979 112.324 90.2669 111.907 90.3269 111.468C90.3469 111.32 90.4849 111.218 90.6309 111.236C90.7799 111.256 90.8829 111.393 90.8629 111.541C90.8149 111.901 90.8379 112.241 90.9339 112.551C91.0089 112.796 91.1129 112.977 91.2139 113.152C91.3599 113.407 91.5109 113.671 91.4659 114.023C91.4259 114.339 91.2429 114.629 90.9219 114.885C90.8719 114.925 90.8129 114.944 90.7529 114.944Z" fill="#363E44"/>
<path d="M88.3909 117.401C88.1049 117.401 87.8469 117.328 87.6189 117.182C86.9459 116.749 86.8229 115.836 86.8179 115.797C86.7989 115.649 86.9039 115.513 87.0529 115.494C87.2009 115.477 87.3359 115.58 87.3549 115.728C87.3559 115.737 87.4539 116.434 87.9139 116.727C88.1569 116.882 88.4739 116.9 88.8569 116.781C88.9989 116.736 89.1509 116.816 89.1959 116.959C89.2399 117.101 89.1609 117.253 89.0179 117.297C88.7969 117.367 88.5879 117.401 88.3909 117.401Z" fill="#363E44"/>
<path d="M75.94 116.396C78.922 115.643 80.497 111.698 79.458 107.584C78.419 103.469 75.16 100.744 72.179 101.497C69.197 102.25 67.622 106.195 68.661 110.31C69.699 114.424 72.958 117.149 75.94 116.396Z" fill="#EFBC73"/>
<path d="M74.914 106.425C74.764 106.425 74.643 106.304 74.643 106.154V99.237C74.333 92.799 78.939 88.753 82.977 87.247C87.392 85.602 91.744 86.45 94.066 89.407C94.159 89.525 94.138 89.695 94.021 89.787C93.903 89.88 93.733 89.86 93.64 89.742C91.467 86.973 87.355 86.193 83.166 87.755C79.299 89.196 74.888 93.065 75.185 99.224V106.154C75.185 106.304 75.064 106.425 74.914 106.425Z" fill="#EFBC73"/>
<path d="M73.496 113.776C73.462 113.776 73.427 113.77 73.394 113.756C71.995 113.184 70.84 111.697 70.38 109.875C70.048 108.563 70.109 107.232 70.55 106.128C71.002 104.994 71.801 104.231 72.798 103.979C73.941 103.691 75.174 104.12 76.18 105.159C76.284 105.266 76.282 105.438 76.174 105.542C76.067 105.646 75.896 105.643 75.791 105.536C74.923 104.64 73.88 104.263 72.931 104.504C72.106 104.712 71.439 105.36 71.053 106.329C70.654 107.327 70.601 108.54 70.905 109.742C71.324 111.401 72.356 112.747 73.598 113.255C73.737 113.312 73.803 113.47 73.747 113.608C73.704 113.713 73.603 113.776 73.496 113.776Z" fill="#363E44"/>
<path d="M85.4779 120.924C77.9689 120.924 75.7549 115.232 75.7319 115.169C75.6799 115.029 75.7509 114.873 75.8909 114.821C76.0309 114.769 76.1869 114.84 76.2389 114.98C76.3369 115.24 78.7299 121.338 87.4359 120.257C87.5839 120.236 87.7189 120.344 87.7379 120.492C87.7559 120.641 87.6509 120.776 87.5029 120.794C86.7889 120.883 86.1139 120.924 85.4779 120.924Z" fill="#363E44"/>
<path d="M89.3351 121.569C90.0611 120.843 90.0611 119.665 89.3351 118.939C88.6091 118.213 87.4321 118.213 86.7061 118.939C85.9801 119.665 85.9801 120.843 86.7061 121.569C87.4321 122.295 88.6091 122.295 89.3351 121.569Z" fill="#363E44"/>
<path d="M125.159 64.929C125.01 64.929 124.889 64.808 124.889 64.659V46.2607C124.889 46.1139 125.005 45.9942 125.152 45.9899L184.949 44.3556C185.025 44.3582 185.093 44.3815 185.145 44.4322C185.197 44.4833 185.227 44.5533 185.227 44.6262V59.636C185.227 59.786 185.106 59.907 184.956 59.907C184.807 59.907 184.686 59.786 184.686 59.636V44.9046L125.43 46.5241V64.659C125.43 64.808 125.309 64.929 125.159 64.929Z" fill="#363E44"/>
<path d="M125.159 63.536C124.033 63.536 123.112 62.615 123.112 61.489V56.0895C123.112 54.9635 124.033 54.0423 125.159 54.0423C126.285 54.0423 127.207 54.9635 127.207 56.0895V61.489C127.207 62.615 126.285 63.536 125.159 63.536Z" fill="#363E44"/>
<path d="M184.791 60.632C183.666 60.632 182.744 59.711 182.744 58.5849V53.1855C182.744 52.0595 183.666 51.1384 184.791 51.1384C185.917 51.1384 186.839 52.0597 186.839 53.1855V58.5849C186.839 59.711 185.917 60.632 184.791 60.632Z" fill="#363E44"/>
<path d="M125.159 105.091C130.518 105.091 134.863 95.372 134.863 83.384C134.863 71.395 130.518 61.677 125.159 61.677C119.8 61.677 115.456 71.395 115.456 83.384C115.456 95.372 119.8 105.091 125.159 105.091Z" fill="#EFBC73"/>
<path d="M196.792 215.014C196.779 215.014 196.766 215.013 196.753 215.011C196.605 214.989 196.502 214.852 196.524 214.704L210.985 115.129L187.79 70.164L171.162 76.398C171.022 76.45 170.866 76.38 170.813 76.239C170.761 76.099 170.832 75.943 170.972 75.891L187.826 69.572C187.955 69.524 188.098 69.58 188.161 69.702L211.506 114.958C211.532 115.008 211.542 115.065 211.534 115.121L197.06 214.781C197.04 214.917 196.924 215.014 196.792 215.014Z" fill="#363E44"/>
<path d="M176.247 71.452L169.412 73.581C168.145 73.976 167.431 75.335 167.826 76.602C168.22 77.868 169.58 78.582 170.846 78.187L177.682 76.058C178.948 75.664 179.662 74.304 179.267 73.038C178.873 71.771 177.514 71.057 176.247 71.452Z" fill="#363E44"/>
<path d="M156.348 90.805L141.069 95.564C137.49 96.679 133.685 94.681 132.57 91.102L130.785 85.372C129.67 81.793 131.668 77.988 135.247 76.873L150.526 72.114L156.348 90.805Z" fill="#40484C"/>
<path d="M141.874 79.455C141.644 78.716 140.859 78.304 140.12 78.534C139.381 78.764 138.969 79.549 139.199 80.288C139.429 81.026 140.215 81.439 140.953 81.209C141.692 80.978 142.104 80.193 141.874 79.455Z" fill="#2D353A"/>
<path d="M143.362 84.231C143.132 83.492 142.346 83.08 141.608 83.31C140.869 83.54 140.457 84.326 140.687 85.064C140.917 85.803 141.702 86.215 142.441 85.985C143.18 85.755 143.592 84.97 143.362 84.231Z" fill="#2D353A"/>
<path d="M143.591 91.079C144.365 91.079 144.992 90.452 144.992 89.678C144.992 88.905 144.365 88.278 143.591 88.278C142.818 88.278 142.191 88.905 142.191 89.678C142.191 90.452 142.818 91.079 143.591 91.079Z" fill="#2D353A"/>
<path d="M137.16 80.133C137.751 79.633 137.824 78.75 137.324 78.159C136.824 77.569 135.941 77.495 135.35 77.995C134.76 78.495 134.686 79.379 135.186 79.969C135.686 80.56 136.57 80.633 137.16 80.133Z" fill="#2D353A"/>
<path d="M139.089 83.422C138.859 82.684 138.074 82.272 137.335 82.502C136.596 82.732 136.184 83.517 136.414 84.256C136.644 84.994 137.429 85.407 138.168 85.176C138.907 84.946 139.319 84.161 139.089 83.422Z" fill="#2D353A"/>
<path d="M140.554 89.518C140.913 88.833 140.649 87.986 139.965 87.627C139.28 87.267 138.433 87.531 138.073 88.216C137.714 88.901 137.978 89.747 138.663 90.107C139.347 90.466 140.194 90.203 140.554 89.518Z" fill="#2D353A"/>
<path d="M141.89 93.808C142.25 93.123 141.986 92.277 141.301 91.917C140.616 91.558 139.769 91.821 139.41 92.506C139.05 93.191 139.314 94.038 139.999 94.397C140.684 94.757 141.531 94.493 141.89 93.808Z" fill="#2D353A"/>
<path d="M134.63 81.711C134.4 80.972 133.615 80.56 132.876 80.79C132.137 81.02 131.725 81.806 131.955 82.544C132.185 83.283 132.971 83.695 133.709 83.465C134.448 83.235 134.86 82.45 134.63 81.711Z" fill="#2D353A"/>
<path d="M136.118 86.487C135.888 85.749 135.102 85.337 134.364 85.567C133.625 85.797 133.213 86.582 133.443 87.321C133.673 88.059 134.458 88.471 135.197 88.241C135.936 88.011 136.348 87.226 136.118 86.487Z" fill="#2D353A"/>
<path d="M137.583 92.583C137.942 91.898 137.679 91.051 136.994 90.691C136.309 90.332 135.462 90.596 135.102 91.281C134.743 91.966 135.007 92.812 135.692 93.172C136.376 93.531 137.223 93.268 137.583 92.583Z" fill="#2D353A"/>
<path d="M165.296 67.52L147.102 73.187L152.924 91.879L171.118 86.212L165.296 67.52Z" fill="#363E44"/>
<path d="M143.841 70.854C142.569 71.251 141.859 72.603 142.255 73.875L148.54 94.052C148.937 95.324 150.289 96.034 151.561 95.638C152.833 95.242 153.543 93.89 153.147 92.617L146.862 72.44C146.465 71.168 145.113 70.458 143.841 70.854Z" fill="#EFBC73"/>
<path d="M166.64 63.753C165.368 64.149 164.658 65.501 165.055 66.773L171.34 86.951C171.736 88.223 173.088 88.933 174.36 88.536C175.632 88.14 176.342 86.788 175.946 85.516L169.661 65.338C169.265 64.066 167.912 63.356 166.64 63.753Z" fill="#EFBC73"/>
<path d="M204.031 218.591C203.967 218.591 203.902 218.587 203.836 218.579C202.936 218.473 202.293 217.657 202.399 216.757L214.505 114.249L201.017 56.7735H155.61L157.565 71.951C157.681 72.85 157.046 73.672 156.147 73.788C155.248 73.902 154.426 73.269 154.31 72.37L152.117 55.3423C152.057 54.8748 152.201 54.4033 152.512 54.0494C152.824 53.6951 153.273 53.4921 153.744 53.4921H202.317C203.079 53.4921 203.74 54.0165 203.914 54.7578L217.766 113.78C217.809 113.966 217.82 114.158 217.798 114.348L205.658 217.142C205.56 217.977 204.851 218.59 204.031 218.591Z" fill="#363E44"/>
<path d="M152.981 62.999C156.594 62.999 159.524 60.07 159.524 56.4558C159.524 52.8418 156.594 49.9122 152.981 49.9122C149.367 49.9122 146.437 52.8418 146.437 56.4558C146.437 60.07 149.367 62.999 152.981 62.999Z" fill="#EFBC73"/>
<path d="M157.146 58.177C158.098 55.8791 157.007 53.2446 154.709 52.2928C152.411 51.3409 149.777 52.4321 148.825 54.73C147.873 57.0279 148.964 59.662 151.262 60.614C153.56 61.566 156.195 60.475 157.146 58.177Z" fill="#FFD092"/>
<path d="M202.317 61.677C205.931 61.677 208.86 58.7468 208.86 55.1329C208.86 51.5189 205.931 48.5892 202.317 48.5892C198.703 48.5892 195.773 51.5189 195.773 55.1329C195.773 58.7468 198.703 61.677 202.317 61.677Z" fill="#EFBC73"/>
<path d="M203.043 59.575C205.498 59.177 207.165 56.8634 206.767 54.4083C206.368 51.9532 204.055 50.286 201.6 50.6844C199.145 51.0829 197.478 53.3961 197.876 55.8512C198.275 58.3063 200.588 59.974 203.043 59.575Z" fill="#FFD092"/>
<path d="M217.911 121.538C221.999 120.573 224.531 116.476 223.566 112.388C222.6 108.299 218.503 105.768 214.415 106.733C210.327 107.698 207.795 111.795 208.761 115.883C209.726 119.972 213.823 122.503 217.911 121.538Z" fill="#EFBC73"/>
<path d="M217.366 119.23C220.18 118.566 221.922 115.746 221.258 112.932C220.593 110.119 217.774 108.377 214.96 109.041C212.146 109.705 210.404 112.525 211.068 115.338C211.733 118.152 214.552 119.894 217.366 119.23Z" fill="#FFD092"/>
<path d="M224.582 206.438H0.138184V224.862H224.582V206.438Z" fill="#D3BBA3"/>
<path d="M66.3459 85.907C66.2759 85.907 66.2069 85.88 66.1549 85.828L54.245 73.918H8.8372C8.6876 73.918 8.56641 73.797 8.56641 73.647V35.5544C8.56641 35.4047 8.6876 35.2836 8.8372 35.2836H72.1769C72.3259 35.2836 72.4479 35.4047 72.4479 35.5544V73.647C72.4479 73.797 72.3259 73.918 72.1769 73.918H66.6169V85.636C66.6169 85.746 66.5509 85.845 66.4499 85.886C66.4159 85.901 66.3809 85.907 66.3459 85.907ZM9.10801 73.376H54.3571C54.4289 73.376 54.4977 73.405 54.5485 73.456L66.0749 84.983V73.647C66.0749 73.497 66.1969 73.376 66.3459 73.376H71.9059V35.8251H9.10801V73.376Z" fill="#D3BBA3"/>
<path d="M37.7556 25.0946C33.9994 25.0946 30.9543 28.1397 30.9543 31.8959V48.6219C30.9543 52.3782 33.9994 55.4232 37.7556 55.4232C41.5118 55.4232 44.557 52.3781 44.557 48.6219V31.8959C44.5569 28.1396 41.5118 25.0946 37.7556 25.0946Z" fill="#D87355"/>
<path d="M46.6746 60.008H28.8364C28.6869 60.008 28.5657 59.887 28.5657 59.737V46.3652C28.5657 46.2155 28.6869 46.0944 28.8364 46.0944C28.986 46.0944 29.1072 46.2155 29.1072 46.3652V59.466H46.4039V46.3652C46.4039 46.2155 46.5251 46.0944 46.6746 46.0944C46.8242 46.0944 46.9454 46.2155 46.9454 46.3652V59.737C46.9454 59.887 46.8242 60.008 46.6746 60.008Z" fill="#363E44"/>
<path d="M37.7554 65.892C37.6058 65.892 37.4846 65.771 37.4846 65.621V62.523C37.4846 62.373 37.6058 62.252 37.7554 62.252C37.905 62.252 38.0262 62.373 38.0262 62.523V65.621C38.0262 65.771 37.905 65.892 37.7554 65.892Z" fill="#363E44"/>
<path d="M48.4376 68.81H27.0735C26.9239 68.81 26.8027 68.689 26.8027 68.539C26.8027 68.389 26.9239 68.268 27.0735 68.268H48.4376C48.5872 68.268 48.7084 68.389 48.7084 68.539C48.7084 68.689 48.5872 68.81 48.4376 68.81Z" fill="#363E44"/>
<path d="M150.843 144.958H64.1431V206.438H150.843V144.958Z" fill="#363E44"/>
<path d="M116.62 207.741H114.053C114.053 209.666 112.492 211.227 110.567 211.227H104.42C102.495 211.227 100.934 209.666 100.934 207.741H98.3671L95.8 221.382V222.523H119.186V221.382L116.62 207.741Z" fill="#363E44"/>
<path d="M119.187 224.219H95.8C95.651 224.219 95.53 224.098 95.53 223.948C95.53 223.799 95.651 223.678 95.8 223.678H119.187C119.336 223.678 119.457 223.799 119.457 223.948C119.457 224.098 119.336 224.219 119.187 224.219Z" fill="#363E44"/>
<path d="M78.2481 39.819C78.0991 39.819 77.9771 39.6979 77.9771 39.5482V30.8276C77.9771 30.6779 78.0991 30.5568 78.2481 30.5568C78.3981 30.5568 78.5191 30.6779 78.5191 30.8276V39.5482C78.5191 39.6979 78.3981 39.819 78.2481 39.819Z" fill="#D3BBA3"/>
<path d="M83.3989 47.0876C83.2489 47.0876 83.1279 46.9665 83.1279 46.8169V23.5592C83.1279 23.4095 83.2489 23.2884 83.3989 23.2884C83.5489 23.2884 83.6699 23.4095 83.6699 23.5592V46.8169C83.6699 46.9664 83.5479 47.0876 83.3989 47.0876Z" fill="#D3BBA3"/>
<path d="M88.55 54.0914C88.4 54.0914 88.2791 53.9703 88.2791 53.8206V16.5553C88.2791 16.4056 88.4 16.2845 88.55 16.2845C88.699 16.2845 88.8201 16.4056 88.8201 16.5553V53.8206C88.8201 53.9703 88.699 54.0914 88.55 54.0914Z" fill="#D3BBA3"/>
<path d="M93.6999 43.4908C93.5509 43.4908 93.4299 43.3697 93.4299 43.22V27.1558C93.4299 27.0062 93.5509 26.8851 93.6999 26.8851C93.8499 26.8851 93.9709 27.0062 93.9709 27.1558V43.22C93.9709 43.3697 93.8499 43.4908 93.6999 43.4908Z" fill="#D3BBA3"/>
<path d="M98.8511 37.5751C98.7021 37.5751 98.5801 37.454 98.5801 37.3043V33.0714C98.5801 32.9217 98.7021 32.8006 98.8511 32.8006C99.0011 32.8006 99.1221 32.9217 99.1221 33.0714V37.3043C99.1221 37.454 99.0011 37.5751 98.8511 37.5751Z" fill="#D3BBA3"/>
<path d="M101.401 39.819C101.251 39.819 101.13 39.6979 101.13 39.5482V30.8276C101.13 30.6779 101.251 30.5568 101.401 30.5568C101.551 30.5568 101.672 30.6779 101.672 30.8276V39.5482C101.672 39.6979 101.55 39.819 101.401 39.819Z" fill="#D3BBA3"/>
<path d="M106.552 47.0876C106.402 47.0876 106.281 46.9665 106.281 46.8169V23.5592C106.281 23.4095 106.402 23.2884 106.552 23.2884C106.701 23.2884 106.823 23.4095 106.823 23.5592V46.8169C106.823 46.9664 106.701 47.0876 106.552 47.0876Z" fill="#D3BBA3"/>
<path d="M111.702 41.3486C111.553 41.3486 111.432 41.2275 111.432 41.0778V29.2981C111.432 29.1484 111.553 29.0273 111.702 29.0273C111.852 29.0273 111.973 29.1484 111.973 29.2981V41.0779C111.973 41.2275 111.852 41.3486 111.702 41.3486Z" fill="#D3BBA3"/>
<path d="M116.853 43.4908C116.703 43.4908 116.582 43.3697 116.582 43.22V27.1558C116.582 27.0062 116.703 26.8851 116.853 26.8851C117.003 26.8851 117.124 27.0062 117.124 27.1558V43.22C117.124 43.3697 117.003 43.4908 116.853 43.4908Z" fill="#D3BBA3"/>
<path d="M122.004 37.5751C121.854 37.5751 121.733 37.454 121.733 37.3043V33.0714C121.733 32.9217 121.854 32.8006 122.004 32.8006C122.154 32.8006 122.275 32.9217 122.275 33.0714V37.3043C122.275 37.454 122.153 37.5751 122.004 37.5751Z" fill="#D3BBA3"/>
<path d="M214.925 184.356C214.862 184.356 214.798 184.334 214.747 184.29C214.634 184.191 214.622 184.021 214.721 183.908L216.034 182.397C216.132 182.284 216.303 182.273 216.416 182.371C216.529 182.469 216.541 182.64 216.443 182.753L215.129 184.263C215.076 184.325 215 184.356 214.925 184.356Z" fill="#363E44"/>
<path d="M214.41 189.379C214.343 189.379 214.277 189.355 214.224 189.306C214.115 189.203 214.11 189.032 214.213 188.923L215.895 187.133C215.998 187.024 216.17 187.019 216.278 187.122C216.387 187.224 216.392 187.396 216.29 187.505L214.607 189.294C214.554 189.351 214.482 189.379 214.41 189.379Z" fill="#363E44"/>
<path d="M213.163 195.798C213.082 195.798 213.003 195.762 212.949 195.694C212.857 195.576 212.878 195.406 212.996 195.314L215.523 193.346C215.64 193.255 215.811 193.276 215.903 193.394C215.995 193.511 215.973 193.682 215.855 193.773L213.329 195.741C213.28 195.78 213.221 195.798 213.163 195.798Z" fill="#363E44"/>
<path d="M212.306 200.39C212.22 200.39 212.135 200.349 212.082 200.272C211.998 200.148 212.03 199.98 212.154 199.896L213.893 198.715C214.017 198.631 214.185 198.663 214.269 198.787C214.353 198.911 214.321 199.079 214.197 199.163L212.458 200.344C212.412 200.375 212.359 200.39 212.306 200.39Z" fill="#363E44"/>
<path d="M210.833 204.97C210.733 204.97 210.636 204.914 210.589 204.818C210.523 204.684 210.579 204.522 210.713 204.456L212.581 203.542C212.715 203.476 212.878 203.532 212.944 203.666C213.009 203.8 212.954 203.963 212.819 204.028L210.951 204.943C210.913 204.962 210.873 204.97 210.833 204.97Z" fill="#363E44"/>
<path d="M221.479 197.131C223.459 187.863 220.616 179.399 215.129 178.227C209.642 177.054 203.589 183.618 201.609 192.887C199.629 202.155 202.472 210.619 207.959 211.791C213.446 212.964 219.499 206.4 221.479 197.131Z" fill="#8B865C"/>
<path d="M215.136 178.215C215.118 178.212 215.1 178.211 215.082 178.208L207.916 211.767C207.933 211.771 207.95 211.778 207.968 211.782C211.128 212.456 215.294 205.489 217.273 196.22C219.252 186.951 218.296 178.89 215.136 178.215Z" fill="#776E42"/>
<path d="M205.25 207.956C205.125 207.956 205.013 207.869 204.985 207.743C204.21 204.191 204.422 199.081 205.566 193.721C206.81 187.896 208.96 182.761 211.317 179.984C211.414 179.871 211.584 179.857 211.698 179.953C211.812 180.05 211.826 180.221 211.73 180.335C209.428 183.046 207.322 188.093 206.096 193.834C204.983 199.043 204.766 204.2 205.514 207.627C205.546 207.773 205.454 207.918 205.308 207.949C205.288 207.954 205.269 207.956 205.25 207.956Z" fill="#363E44"/>
<path d="M212.022 209.557C211.965 209.557 211.907 209.539 211.859 209.502C211.739 209.412 211.716 209.242 211.806 209.123C213.93 206.314 215.875 201.47 217.008 196.163C218.271 190.248 218.37 184.506 217.266 181.176C217.219 181.034 217.296 180.88 217.438 180.833C217.58 180.787 217.733 180.864 217.78 181.005C218.913 184.421 218.82 190.273 217.538 196.276C216.389 201.656 214.408 206.581 212.238 209.45C212.185 209.52 212.104 209.557 212.022 209.557Z" fill="#363E44"/>
<path d="M205.67 187.515C205.588 187.515 205.508 187.478 205.454 187.408L203.495 184.841C203.404 184.722 203.427 184.553 203.546 184.462C203.665 184.371 203.835 184.394 203.925 184.513L205.885 187.08C205.976 187.199 205.953 187.368 205.834 187.459C205.785 187.497 205.727 187.515 205.67 187.515Z" fill="#363E44"/>
<path d="M204.076 193.86C204.009 193.86 203.941 193.835 203.889 193.785L200.518 190.558C200.41 190.455 200.406 190.283 200.51 190.175C200.613 190.067 200.784 190.063 200.892 190.167L204.263 193.393C204.372 193.497 204.375 193.668 204.272 193.776C204.218 193.832 204.147 193.86 204.076 193.86Z" fill="#363E44"/>
<path d="M202.872 198.378C202.81 198.378 202.748 198.356 202.697 198.313L200.273 196.244C200.159 196.147 200.145 195.976 200.242 195.862C200.339 195.749 200.51 195.735 200.624 195.832L203.048 197.901C203.162 197.998 203.175 198.169 203.078 198.283C203.025 198.346 202.949 198.378 202.872 198.378Z" fill="#363E44"/>
<path d="M202.786 203.254C202.734 203.254 202.681 203.239 202.634 203.207L199.819 201.293C199.695 201.209 199.663 201.041 199.747 200.917C199.831 200.794 200 200.761 200.123 200.845L202.938 202.759C203.062 202.843 203.094 203.012 203.01 203.135C202.958 203.212 202.873 203.254 202.786 203.254Z" fill="#363E44"/>
<path d="M220.134 185.469C220.042 185.469 219.953 185.422 219.902 185.338C219.825 185.21 219.866 185.043 219.994 184.966L222.187 183.644C222.315 183.566 222.481 183.607 222.559 183.736C222.636 183.864 222.595 184.03 222.467 184.107L220.274 185.43C220.23 185.456 220.182 185.469 220.134 185.469Z" fill="#363E44"/>
<path d="M218.976 197.04C218.865 197.04 218.761 196.971 218.721 196.86C218.671 196.72 218.744 196.565 218.885 196.514L223.28 194.945C223.421 194.895 223.576 194.968 223.626 195.109C223.677 195.25 223.603 195.405 223.462 195.455L219.068 197.024C219.037 197.035 219.007 197.04 218.976 197.04Z" fill="#363E44"/>
<path d="M217.008 205.104C216.879 205.104 216.765 205.012 216.741 204.881C216.715 204.734 216.813 204.593 216.96 204.567L220.312 203.969C220.461 203.943 220.6 204.041 220.626 204.188C220.652 204.335 220.554 204.476 220.407 204.502L217.056 205.1C217.039 205.103 217.023 205.104 217.008 205.104Z" fill="#363E44"/>
<path d="M214.41 189.379C214.343 189.379 214.277 189.355 214.224 189.306C214.115 189.203 214.11 189.032 214.213 188.923L215.895 187.133C215.998 187.024 216.17 187.019 216.278 187.122C216.387 187.224 216.392 187.396 216.29 187.505L214.607 189.294C214.554 189.351 214.482 189.379 214.41 189.379Z" fill="#363E44"/>
<path d="M212.306 200.39C212.22 200.39 212.135 200.349 212.082 200.272C211.998 200.148 212.03 199.98 212.154 199.896L213.893 198.715C214.017 198.631 214.185 198.663 214.269 198.787C214.353 198.911 214.321 199.079 214.197 199.163L212.458 200.344C212.412 200.375 212.359 200.39 212.306 200.39Z" fill="#363E44"/>
<path d="M212.683 183.878C212.567 183.878 212.46 183.803 212.424 183.686L211.842 181.771C211.799 181.628 211.879 181.477 212.022 181.433C212.165 181.389 212.316 181.47 212.36 181.613L212.942 183.528C212.986 183.671 212.905 183.822 212.762 183.866C212.736 183.874 212.709 183.878 212.683 183.878Z" fill="#363E44"/>
<path d="M209.618 195.042C209.521 195.042 209.427 194.989 209.379 194.898L207.876 192.07C207.806 191.938 207.856 191.774 207.989 191.704C208.12 191.634 208.284 191.684 208.355 191.816L209.857 194.644C209.927 194.776 209.877 194.94 209.745 195.01C209.705 195.031 209.661 195.042 209.618 195.042Z" fill="#363E44"/>
<path d="M207.999 204.366C207.921 204.366 207.844 204.333 207.791 204.268L206.459 202.671C206.363 202.556 206.379 202.386 206.494 202.29C206.609 202.194 206.779 202.209 206.875 202.324L208.207 203.921C208.302 204.036 208.287 204.207 208.172 204.303C208.121 204.345 208.06 204.366 207.999 204.366Z" fill="#363E44"/>
<path d="M197.197 192.053C197.188 192.053 197.178 192.053 197.168 192.052C197.02 192.036 196.912 191.903 196.928 191.754L197.093 190.184C197.109 190.035 197.242 189.928 197.391 189.943C197.539 189.959 197.647 190.092 197.632 190.241L197.466 191.811C197.452 191.95 197.334 192.053 197.197 192.053Z" fill="#363E44"/>
<path d="M199.138 195.533C199.125 195.533 199.112 195.532 199.099 195.53C198.951 195.508 198.848 195.371 198.869 195.223L199.147 193.305C199.169 193.157 199.306 193.052 199.454 193.076C199.602 193.097 199.705 193.235 199.683 193.383L199.405 195.301C199.386 195.435 199.27 195.533 199.138 195.533Z" fill="#363E44"/>
<path d="M201.237 200.245C201.21 200.245 201.184 200.241 201.157 200.233C201.014 200.189 200.934 200.038 200.978 199.894L201.72 197.48C201.764 197.337 201.915 197.256 202.058 197.301C202.201 197.345 202.281 197.496 202.238 197.639L201.496 200.054C201.46 200.17 201.352 200.245 201.237 200.245Z" fill="#363E44"/>
<path d="M202.761 203.6C202.729 203.6 202.697 203.595 202.665 203.582C202.525 203.529 202.455 203.373 202.508 203.233L203.097 201.683C203.151 201.544 203.307 201.473 203.447 201.527C203.586 201.58 203.657 201.736 203.603 201.876L203.014 203.426C202.973 203.534 202.87 203.6 202.761 203.6Z" fill="#363E44"/>
<path d="M203.882 207.226C203.837 207.226 203.792 207.216 203.751 207.193C203.62 207.12 203.572 206.956 203.645 206.825L204.438 205.389C204.51 205.258 204.675 205.21 204.806 205.283C204.937 205.355 204.984 205.52 204.912 205.651L204.119 207.087C204.069 207.176 203.977 207.226 203.882 207.226Z" fill="#363E44"/>
<path d="M205.25 212.821C209.326 211.094 210.265 204.113 207.348 197.228C204.431 190.342 198.763 186.16 194.687 187.887C190.611 189.614 189.672 196.595 192.589 203.481C195.506 210.366 201.174 214.548 205.25 212.821Z" fill="#776E42"/>
<path d="M194.677 187.894C194.663 187.899 194.651 187.907 194.639 187.913L205.196 212.842C205.209 212.837 205.223 212.834 205.236 212.828C207.583 211.835 207.122 205.448 204.206 198.562C201.29 191.677 197.024 186.9 194.677 187.894Z" fill="#8B865C"/>
<path d="M201.625 211.681C201.559 211.681 201.494 211.657 201.442 211.609C199.328 209.66 197.146 206.254 195.457 202.265C193.621 197.93 192.685 193.629 192.952 190.759C192.966 190.611 193.094 190.499 193.247 190.515C193.396 190.529 193.505 190.661 193.491 190.81C193.232 193.594 194.153 197.797 195.956 202.054C197.592 205.917 199.78 209.34 201.809 211.211C201.919 211.313 201.926 211.484 201.824 211.594C201.771 211.652 201.698 211.681 201.625 211.681Z" fill="#363E44"/>
<path d="M206.727 209.652C206.723 209.652 206.72 209.652 206.717 209.652C206.567 209.647 206.45 209.521 206.456 209.372C206.557 206.604 205.623 202.603 203.957 198.668C202.1 194.283 199.572 190.536 197.359 188.889C197.239 188.8 197.214 188.63 197.303 188.51C197.393 188.391 197.562 188.365 197.682 188.455C199.968 190.156 202.563 193.988 204.455 198.457C206.151 202.461 207.101 206.549 206.997 209.391C206.992 209.538 206.872 209.652 206.727 209.652Z" fill="#363E44"/>
<path d="M191.864 194.311C191.833 194.311 191.802 194.306 191.771 194.294L189.875 193.597C189.735 193.545 189.663 193.389 189.714 193.249C189.766 193.109 189.922 193.037 190.062 193.089L191.958 193.786C192.098 193.838 192.17 193.993 192.118 194.134C192.078 194.243 191.975 194.311 191.864 194.311Z" fill="#363E44"/>
<path d="M194.487 203.102C194.474 203.102 194.46 203.101 194.446 203.099L190.807 202.539C190.659 202.516 190.558 202.378 190.581 202.23C190.604 202.082 190.741 201.982 190.89 202.004L194.528 202.564C194.676 202.587 194.777 202.725 194.755 202.873C194.734 203.007 194.619 203.102 194.487 203.102Z" fill="#363E44"/>
<path d="M195.22 209.793C195.072 209.793 194.951 209.675 194.949 209.526C194.947 209.377 195.066 209.254 195.216 209.252L197.901 209.215C198.046 209.201 198.174 209.332 198.176 209.482C198.178 209.631 198.058 209.755 197.909 209.757L195.223 209.793H195.22Z" fill="#363E44"/>
<path d="M203.374 193.74C203.334 193.74 203.293 193.731 203.254 193.712C203.12 193.645 203.066 193.482 203.132 193.349L204.267 191.068C204.334 190.934 204.496 190.879 204.63 190.946C204.764 191.013 204.819 191.175 204.752 191.309L203.617 193.59C203.57 193.685 203.474 193.74 203.374 193.74Z" fill="#363E44"/>
<path d="M207.162 201.738C207.102 201.738 207.043 201.719 206.993 201.679C206.876 201.586 206.857 201.415 206.95 201.299L208.519 199.334C208.613 199.217 208.783 199.198 208.9 199.292C209.017 199.385 209.036 199.555 208.943 199.672L207.373 201.636C207.32 201.703 207.241 201.738 207.162 201.738Z" fill="#363E44"/>
<path d="M197.197 192.053C197.188 192.053 197.178 192.053 197.168 192.052C197.02 192.036 196.912 191.903 196.928 191.754L197.093 190.184C197.109 190.035 197.242 189.928 197.391 189.943C197.539 189.959 197.647 190.092 197.632 190.241L197.466 191.811C197.452 191.95 197.334 192.053 197.197 192.053Z" fill="#363E44"/>
<path d="M201.237 200.245C201.21 200.245 201.184 200.241 201.157 200.233C201.014 200.189 200.934 200.038 200.978 199.894L201.72 197.48C201.764 197.337 201.915 197.256 202.058 197.301C202.201 197.345 202.281 197.496 202.238 197.639L201.496 200.054C201.46 200.17 201.352 200.245 201.237 200.245Z" fill="#363E44"/>
<path d="M203.882 207.226C203.837 207.226 203.792 207.216 203.751 207.193C203.62 207.12 203.572 206.956 203.645 206.825L204.438 205.389C204.51 205.258 204.675 205.21 204.806 205.283C204.937 205.355 204.984 205.52 204.912 205.651L204.119 207.087C204.069 207.176 203.977 207.226 203.882 207.226Z" fill="#363E44"/>
<path d="M196.68 196.573C196.625 196.573 196.569 196.556 196.521 196.521L194.951 195.386C194.83 195.298 194.802 195.129 194.89 195.008C194.978 194.887 195.147 194.86 195.268 194.947L196.839 196.082C196.96 196.17 196.987 196.34 196.9 196.461C196.846 196.534 196.764 196.573 196.68 196.573Z" fill="#363E44"/>
<path d="M199.952 204.789C199.916 204.789 199.88 204.782 199.845 204.767L198.322 204.112C198.184 204.052 198.121 203.893 198.18 203.756C198.239 203.618 198.398 203.555 198.536 203.614L200.059 204.27C200.196 204.329 200.26 204.488 200.201 204.625C200.157 204.728 200.057 204.789 199.952 204.789Z" fill="#363E44"/>
<path d="M217.675 218.741H194.003L191.297 207.216H220.38L217.675 218.741Z" fill="#D87355"/>
<path d="M219.015 174.37C219.015 177.232 217.165 179.551 214.884 179.551C212.602 179.551 210.753 177.232 210.753 174.37L212.48 175.346L213.757 174.07L215.034 175.121L216.461 173.995L217.513 175.046L219.015 174.37Z" fill="#EFBC73"/>
</g>
</g>
<defs>
<clipPath id="clip0_86_2">
<rect width="225" height="225" fill="white"/>
</clipPath>
</defs>
</svg>
