<svg width="223" height="213" viewBox="0 0 223 213" fill="none" xmlns="http://www.w3.org/2000/svg">
<path d="M179.324 165.102H195.004V160.335H179.324V165.102Z" fill="#EBEBEB"/>
<path d="M141.154 118.081H156.834V113.314H141.154V118.081Z" fill="#EBEBEB"/>
<path d="M188.071 171.113L195.965 170.988L199.866 170.937L203.751 170.919L203.548 171.113L203.528 166.346L203.751 166.559L195.91 166.53L191.99 166.494L188.071 166.447L188.176 166.346L188.071 171.113ZM188.071 171.113L187.965 166.346L187.963 166.246L188.071 166.245L191.991 166.199L195.911 166.163L203.751 166.134L203.975 166.133L203.974 166.346L203.954 171.113L203.954 171.308L203.751 171.307L199.796 171.289L195.857 171.238L188.071 171.113Z" fill="#EBEBEB"/>
<path d="M88.5283 54.8986L96.4225 54.7738L100.324 54.7227L104.209 54.7044L104.005 54.8986L103.986 50.1317L104.208 50.3443L96.3681 50.3153L92.4482 50.2791L88.5283 50.2326L88.634 50.1317L88.5283 54.8986ZM88.5283 54.8986L88.4226 50.1317L88.4204 50.0316L88.5283 50.0303L92.4482 49.9839L96.3681 49.9477L104.208 49.9187L104.432 49.9178L104.431 50.1317L104.411 54.8986L104.41 55.0937L104.208 55.0929L100.253 55.0746L96.3137 55.0234L88.5283 54.8986Z" fill="#EBEBEB"/>
<path d="M97.2753 60.9091L105.169 60.7842L109.071 60.7331L112.955 60.7148L112.752 60.9091L112.732 56.1421L112.955 56.3547L105.115 56.3257L101.195 56.2895L97.2748 56.2431L97.3805 56.1421L97.2753 60.9091ZM97.2753 60.9091L97.1696 56.1421L97.1673 56.0424L97.2753 56.0412L101.195 55.9947L105.115 55.9585L112.955 55.9295L113.179 55.9287L113.178 56.1425L113.159 60.9095L113.158 61.1046L112.955 61.1037L109 61.0854L105.061 61.0343L97.2753 60.9091Z" fill="#EBEBEB"/>
<path d="M105.988 54.8984H121.668V50.1314H105.988V54.8984Z" fill="#EBEBEB"/>
<path d="M19.2495 171.113H34.9295V166.346H19.2495V171.113Z" fill="#EBEBEB"/>
<path d="M27.996 23.9086L43.6764 23.9086V19.1416H27.996V23.9086Z" fill="#EBEBEB"/>
<path d="M19.2489 29.9193L27.1431 29.7945L31.0443 29.7433L34.9294 29.725L34.726 29.9193L34.7064 25.1523L34.9289 25.3649L27.0887 25.3359L23.1688 25.2997L19.2489 25.2533L19.3546 25.1523L19.2489 29.9193ZM19.2489 29.9193L19.1432 25.1523L19.141 25.0522L19.2489 25.0509L23.1688 25.0045L27.0887 24.9683L34.9289 24.9393L35.1528 24.9385L35.1519 25.1523L35.1323 29.9193L35.1314 30.1144L34.9289 30.1135L30.9738 30.0952L27.0347 30.0441L19.2489 29.9193Z" fill="#EBEBEB"/>
<path d="M179.324 23.9084L187.218 23.7836L191.119 23.7325L195.004 23.7141L194.801 23.9084L194.781 19.1415L195.004 19.354L187.163 19.3251L183.244 19.2889L179.324 19.2424L179.429 19.1415L179.324 23.9084ZM179.324 23.9084L179.218 19.1415L179.216 19.0414L179.324 19.0401L183.244 18.9936L187.164 18.9574L195.004 18.9285L195.228 18.9276L195.227 19.141L195.207 23.908L195.206 24.1031L195.004 24.1022L191.049 24.0839L187.11 24.0328L179.324 23.9084Z" fill="#EBEBEB"/>
<path d="M139.94 18.3836V101.445H196.462V18.3836H139.94ZM194.376 99.4531H142.025V20.376H194.376V99.4531Z" fill="#EBEBEB"/>
<path d="M194.376 20.376H142.025V99.4531H194.376V20.376Z" fill="white"/>
<path d="M142.023 60.9094L194.374 60.9094V58.9178L142.023 58.9178V60.9094Z" fill="#EBEBEB"/>
<path d="M136.097 107.161L200.3 107.161V101.445H136.097V107.161Z" fill="#DBDBDB"/>
<path d="M142.023 20.3739H194.374V71.5356H142.023V20.3739ZM192.443 22.2185H143.955V69.691H192.443V22.2185Z" fill="#DBDBDB"/>
<path d="M177.666 20.3739H176.624V69.691H177.666V20.3739Z" fill="#DBDBDB"/>
<path d="M159.774 20.3739H158.731V69.691H159.774V20.3739Z" fill="#DBDBDB"/>
<path d="M26.5415 18.3836V101.445H83.0639V18.3836H26.5415ZM80.978 99.4531H28.6274V20.376H80.978V99.4531Z" fill="#EBEBEB"/>
<path d="M80.978 20.376H28.6274V99.4531H80.978V20.376Z" fill="white"/>
<path d="M28.6257 60.9094L80.9767 60.9094V58.9178L28.6257 58.9178V60.9094Z" fill="#EBEBEB"/>
<path d="M22.7 107.161L86.9026 107.161V101.445H22.7V107.161Z" fill="#DBDBDB"/>
<path d="M28.6256 20.3739H80.9766V71.5356H28.6256V20.3739ZM79.0455 22.2185H30.5568V69.691H79.0455V22.2185Z" fill="#DBDBDB"/>
<path d="M64.2681 20.3739H63.2258V69.691H64.2681V20.3739Z" fill="#DBDBDB"/>
<path d="M46.376 20.3739H45.3337V69.691H46.376V20.3739Z" fill="#DBDBDB"/>
<path d="M18.4876 189.553L41.7407 189.449L64.9938 189.412L111.5 189.34L158.006 189.411L181.259 189.449L204.512 189.553L181.259 189.657L158.006 189.694L111.5 189.765L64.9938 189.694L41.7407 189.656L18.4876 189.553Z" fill="#263238"/>
<path d="M204.238 126.985H147.645V134.657H204.238V126.985Z" fill="#455A64"/>
<path d="M202.889 134.657H148.994V137.149H202.889V134.657Z" fill="#455A64"/>
<path d="M202.889 134.657H148.994V135.482H202.889V134.657Z" fill="#263238"/>
<path d="M149.525 189.765H147.37L153.642 137.149H159.143L149.525 189.765Z" fill="#455A64"/>
<path d="M159.141 137.149L158.497 140.67H153.225L153.643 137.149H159.141Z" fill="#263238"/>
<path d="M202.357 189.765H204.512L198.24 137.149H192.74L202.357 189.765Z" fill="#455A64"/>
<path d="M192.741 137.149L193.385 140.67H198.658L198.24 137.149H192.741Z" fill="#263238"/>
<path d="M189.814 158.076C189.434 159.618 189.033 161.135 188.955 162.718C188.998 162.795 188.99 163.082 188.941 163.004C188.931 163.259 188.525 163.213 188.525 162.961C188.529 162.797 188.534 162.633 188.542 162.474C187.592 161.348 186.213 160.634 185.099 159.656C184.198 158.864 183.553 157.92 183.212 156.788C182.288 153.745 183.154 150.52 182.042 147.485C181.084 144.868 179.365 142.593 177.91 140.222C176.375 137.715 175.242 135.08 175.129 132.143C175.038 129.894 175.319 126.897 177.112 125.213C179.012 123.425 181.369 124.765 182.825 126.359C187.045 130.985 188.997 136.83 189.787 142.808C190.222 146.116 190.674 149.444 190.57 152.783C190.51 154.578 190.24 156.333 189.814 158.076Z" fill="#FFC727"/>
<path d="M188.972 163.932C189.191 160.806 189.177 157.674 188.856 154.56C188.862 154.549 188.873 154.541 188.873 154.526C188.926 151.993 189.137 149.469 189.032 146.933C188.919 144.178 188.497 141.478 187.864 138.789C187.857 138.758 187.807 138.765 187.813 138.797C188.333 141.419 188.635 144.095 188.736 146.762C188.79 148.193 188.779 149.625 188.7 151.055C188.674 151.521 188.629 151.99 188.596 152.459C188.596 152.457 188.596 152.456 188.596 152.454C187.526 145.325 184.772 138.562 180.705 132.509C180.65 132.427 180.497 132.515 180.551 132.599C183.479 137.166 185.639 142.183 186.974 147.388C184.945 143.797 181.88 140.844 179.606 137.394C179.593 137.375 179.561 137.394 179.571 137.414C181.614 141.255 184.989 144.284 187.14 148.069C187.513 149.612 187.819 151.169 188.046 152.735C188.358 154.886 188.505 157.05 188.535 159.217C187.299 157.01 186.016 154.9 185.005 152.566C184.978 152.503 184.885 152.546 184.907 152.608C185.767 155.032 186.923 157.644 188.542 159.711C188.551 161.245 188.503 162.781 188.409 164.313C188.156 168.405 187.425 172.442 187.086 176.52C187.076 176.643 187.257 176.657 187.282 176.54C188.172 172.424 188.68 168.124 188.972 163.932Z" fill="#263238"/>
<path d="M184.424 132.378C184.411 132.348 184.365 132.369 184.376 132.399C185.158 134.465 185.6 136.559 186.166 138.677C186.192 138.774 186.338 138.754 186.327 138.652C186.098 136.503 185.294 134.359 184.424 132.378Z" fill="#263238"/>
<path d="M204.292 141.04C203.785 142.253 203.155 143.429 202.492 144.571C201.084 147.015 199.614 149.254 199.348 152.099C199.229 153.37 199.187 154.647 198.782 155.871C198.432 156.931 197.863 157.908 197.208 158.823C195.681 160.948 193.773 162.778 192.358 164.983C190.885 167.275 189.799 169.795 189.135 172.406C189.1 172.549 188.864 172.511 188.899 172.368C188.904 172.357 188.906 172.348 188.908 172.335C188.902 172.328 188.894 172.321 188.894 172.305C188.67 166.204 189.179 160.054 191.128 154.209C191.98 151.653 193.031 149.111 194.224 146.682C195.267 144.563 196.568 142.525 198.401 140.942C199.589 139.919 202.168 137.98 203.861 139.006C204.673 139.499 204.612 140.278 204.292 141.04Z" fill="#FFC727"/>
<path d="M197.872 154.871C196.777 156.66 195.477 158.325 194.16 159.969C193.541 160.74 192.914 161.505 192.297 162.277C192.005 162.642 191.678 163.005 191.41 163.397C191.579 162.755 191.743 162.113 191.915 161.472C192.739 158.389 193.531 155.279 194.759 152.315C195.959 149.418 197.555 146.697 199.195 144.01C199.238 143.939 199.118 143.888 199.075 143.956C197.725 146.077 196.355 148.194 195.22 150.43C194.586 151.679 194.053 152.963 193.585 154.27C194.137 151.468 194.798 148.777 195.762 146.064C195.771 146.04 195.735 146.022 195.724 146.047C194.547 148.708 193.7 151.699 193.464 154.583C193.463 154.589 193.466 154.592 193.468 154.597C193.191 155.389 192.937 156.189 192.699 156.995C191.693 160.409 190.81 163.858 189.99 167.319C190.004 165.034 190.155 162.789 190.607 160.534C190.617 160.483 190.536 160.47 190.523 160.521C189.929 162.843 189.661 165.287 189.906 167.673C189.596 168.99 189.295 170.307 189.001 171.625C188.373 174.438 187.601 177.3 187.234 180.156C187.225 180.23 187.332 180.246 187.353 180.175C187.791 178.636 188.055 177.04 188.414 175.482C188.773 173.918 189.143 172.357 189.524 170.799C190.079 168.529 190.66 166.265 191.252 164.003C191.648 163.174 192.413 162.438 192.986 161.742C193.614 160.979 194.243 160.216 194.855 159.44C195.995 157.996 197.04 156.495 197.929 154.897C197.948 154.862 197.892 154.839 197.872 154.871Z" fill="#263238"/>
<path d="M198.144 152.262C196.759 153.961 195.501 155.841 194.512 157.776C194.499 157.801 194.539 157.827 194.555 157.803C195.778 155.973 196.98 154.129 198.201 152.297C198.221 152.266 198.168 152.234 198.144 152.262Z" fill="#263238"/>
<path d="M170.951 146.824C171.779 148.186 172.724 149.822 172.369 151.457C172.143 152.492 171.35 153.332 171.207 154.388C170.887 156.718 173.318 158.258 175.078 159.359C179.464 162.108 185.48 164.559 186.277 170.173C186.308 170.371 186.667 170.322 186.641 170.127C186.641 170.115 186.637 170.102 186.633 170.09C186.641 170.078 186.655 170.073 186.655 170.057C187.222 167.213 187.209 164.315 186.572 161.483C185.918 158.589 184.596 155.989 183.035 153.448C180.396 149.146 177.6 144.742 173.608 141.447C172.503 140.536 170.24 138.896 169.36 140.954C168.507 142.954 169.937 145.164 170.951 146.824Z" fill="#FFC727"/>
<path d="M174.966 155.944C177.874 158.951 182.498 160.637 185.001 164.005C183.518 158.843 181.063 154.201 177.289 150.168C177.192 150.064 177.343 149.918 177.449 150.015C180.212 152.551 182.258 155.516 183.751 158.733C183.08 156.436 182.141 154.264 181.037 152.104C180.996 152.022 181.117 151.952 181.166 152.032C182.571 154.321 183.506 156.892 184.091 159.484C187.389 167.111 187.695 176.056 187.004 184.095C186.994 184.21 186.811 184.213 186.814 184.095C187.004 177.76 186.896 171.314 185.307 165.127C185.274 164.997 185.237 164.87 185.202 164.741C182.479 161.115 177.876 159.435 174.915 155.992C174.887 155.959 174.935 155.912 174.966 155.944Z" fill="#263238"/>
<path d="M174.292 153.362C175.819 154.699 177.322 156.068 178.85 157.405C178.866 157.418 178.846 157.444 178.828 157.433C177.163 156.357 175.473 154.935 174.2 153.449C174.149 153.388 174.23 153.307 174.292 153.362Z" fill="#263238"/>
<path d="M174.051 147.566C175.437 149.688 176.892 151.679 178.619 153.567C178.641 153.592 178.606 153.627 178.58 153.603C176.726 151.898 175.08 149.835 173.969 147.611C173.943 147.559 174.018 147.515 174.051 147.566Z" fill="#263238"/>
<path d="M180.924 189.765H194.296L192.494 172.581H182.984L180.924 189.765Z" fill="#455A64"/>
<path d="M182.648 175.374H192.789L192.495 172.581H182.983L182.648 175.374Z" fill="#263238"/>
<path d="M181.343 173.421H193.878V170.677H181.343V173.421Z" fill="#455A64"/>
<path d="M35.8597 72.5942H33.4504V187.464H35.8597V72.5942Z" fill="#263238"/>
<path d="M75.7233 31.9716L18.4871 86.6411L20.1907 88.2683L77.4269 33.5988L75.7233 31.9716Z" fill="#263238"/>
<path d="M21.5978 187.464V189.765H47.7124V187.464H21.5978Z" fill="#263238"/>
<path d="M77.6713 40.4525L85.7431 33.2105L78.1423 27.3134L72.0977 32.7432L77.6713 40.4525Z" fill="#FFC727"/>
<path opacity="0.1" d="M85.7431 33.2093L77.6713 40.4513L75.4552 37.3858L82.374 30.5974L85.7431 33.2093Z" fill="black"/>
<path d="M76.836 52.548L98.6209 32.9954L88.2161 27.6436L71.8903 42.2958L76.836 52.548Z" fill="#FFC727"/>
<path opacity="0.6" d="M161.814 114.408C161.814 114.408 154.074 111.002 154.074 106.437C154.074 101.872 164.112 98.9334 164.112 95.3652C164.112 91.797 159.734 89.6981 159.734 89.6981C159.734 89.6981 166.648 91.9547 166.648 96.4673C166.648 100.98 160.031 104.038 159.399 106.91C158.52 110.898 161.814 114.408 161.814 114.408Z" fill="#DBDBDB"/>
<path opacity="0.6" d="M161.431 114.408C161.431 114.408 169.171 111.73 169.171 108.141C169.171 104.551 159.134 102.241 159.134 99.4356C159.134 96.6304 163.511 94.9797 163.511 94.9797C163.511 94.9797 156.597 96.7535 156.597 100.302C156.597 103.85 164.195 106.29 164.739 109.172C165.272 112 161.431 114.408 161.431 114.408Z" fill="#DBDBDB"/>
<path d="M165.413 125.887H158.051V126.985H165.413V125.887Z" fill="#FFC727"/>
<path opacity="0.1" d="M165.413 125.887H158.051V126.611H165.413V125.887Z" fill="black"/>
<path d="M174.152 122.937C173.282 124.105 171.74 124.942 170.007 124.63C169.761 124.586 169.513 124.52 169.26 124.425C168.917 124.299 168.571 124.128 168.219 123.903L169.154 122.578C169.344 122.704 169.529 122.803 169.707 122.878C171.46 123.637 172.569 122.317 172.788 122.015C173.797 120.66 174.159 117.566 173.136 116.376C173.068 116.288 172.773 116.148 171.587 116.39C171.368 116.437 171.12 116.489 170.839 116.563C170.528 116.648 170.343 116.696 170.166 116.702L170.137 115.906L170.055 115.113C170.132 115.1 170.251 115.067 170.407 115.025C170.854 114.911 171.457 114.754 172.081 114.693C172.953 114.607 173.868 114.706 174.429 115.365C176.09 117.308 175.416 121.239 174.152 122.937Z" fill="#FFC727"/>
<path opacity="0.1" d="M169.154 122.578C169.344 122.704 169.529 122.803 169.707 122.878L169.26 124.425C168.917 124.299 168.571 124.128 168.219 123.903L169.154 122.578Z" fill="black"/>
<path opacity="0.1" d="M172.081 114.693L171.587 116.39C171.368 116.437 171.12 116.489 170.839 116.563C170.528 116.648 170.343 116.696 170.166 116.702L170.137 115.906L170.055 115.113C170.132 115.1 170.251 115.067 170.407 115.025C170.854 114.911 171.457 114.754 172.081 114.693Z" fill="black"/>
<path d="M151.937 112.622C151.937 112.622 152 113.145 152.127 113.971C152.15 114.097 152.167 114.235 152.19 114.372C152.276 114.939 152.392 115.611 152.524 116.332C152.53 116.37 152.541 116.414 152.547 116.458C152.743 117.493 152.979 118.621 153.256 119.683C153.267 119.733 153.285 119.777 153.296 119.821C153.371 120.107 153.452 120.388 153.532 120.658C153.613 120.927 153.7 121.191 153.786 121.444C153.965 121.951 154.149 122.413 154.345 122.804C155.872 125.82 158.004 126.156 159.323 126.156C160.648 126.156 160.527 126.156 161.732 126.156C162.936 126.156 162.809 126.156 164.14 126.156C165.459 126.156 167.592 125.82 169.113 122.804C169.159 122.71 169.205 122.611 169.251 122.507C169.286 122.435 169.32 122.358 169.349 122.281C169.384 122.204 169.418 122.127 169.447 122.044C169.471 121.989 169.493 121.928 169.517 121.873C169.81 121.103 170.075 120.195 170.306 119.259C170.318 119.221 170.329 119.188 170.335 119.149C170.341 119.133 170.341 119.122 170.347 119.105C170.439 118.731 170.525 118.351 170.606 117.977C170.744 117.361 170.865 116.756 170.969 116.177C171.015 115.913 171.061 115.655 171.107 115.407C171.119 115.335 171.13 115.269 171.142 115.203C171.171 115.038 171.199 114.873 171.223 114.719C171.246 114.565 171.269 114.416 171.292 114.273C171.315 114.13 171.332 113.992 171.355 113.866C171.471 113.101 171.528 112.622 171.528 112.622H151.937V112.622Z" fill="#FFC727"/>
<path opacity="0.1" d="M152.548 116.459C152.743 117.493 152.98 118.621 153.256 119.684C153.377 119.7 153.498 119.723 153.619 119.75C154.201 119.882 154.772 120.108 155.273 120.432C155.78 120.746 156.23 121.142 156.656 121.533C157.088 121.924 157.515 122.32 157.999 122.623C158.483 122.926 159.036 123.107 159.612 123.124C160.171 123.151 160.678 122.838 161.081 122.458C161.496 122.067 161.841 121.61 162.181 121.148C162.521 120.686 162.861 120.212 163.265 119.772C163.466 119.557 163.691 119.348 163.944 119.177C164.077 119.095 164.227 119.029 164.371 118.968C164.532 118.94 164.688 118.869 164.849 118.891C165.177 118.863 165.488 118.985 165.771 119.111C166.041 119.26 166.289 119.43 166.508 119.634C166.958 120.025 167.338 120.471 167.736 120.889C168.133 121.291 168.554 121.731 169.101 121.858C169.24 121.891 169.378 121.896 169.516 121.874C169.81 121.104 170.075 120.195 170.306 119.26C170.15 119.222 169.988 119.183 169.833 119.133C169.263 118.952 168.721 118.671 168.254 118.302C167.782 117.939 167.378 117.51 166.987 117.081C166.595 116.651 166.215 116.217 165.765 115.87C165.316 115.523 164.78 115.292 164.21 115.22C163.657 115.143 163.12 115.407 162.677 115.748C162.227 116.095 161.841 116.519 161.455 116.948C161.063 117.377 160.677 117.818 160.234 118.219C160.015 118.417 159.767 118.599 159.496 118.747C159.358 118.819 159.202 118.868 159.052 118.918C158.891 118.929 158.724 118.984 158.562 118.951C158.234 118.946 157.94 118.791 157.675 118.643C157.421 118.472 157.185 118.274 156.989 118.054C156.58 117.625 156.251 117.146 155.894 116.695C155.542 116.255 155.168 115.781 154.638 115.599C154.097 115.418 153.52 115.704 153.071 116.045C152.893 116.178 152.72 116.315 152.548 116.459Z" fill="black"/>
<path d="M152.524 116.332C152.53 116.37 152.542 116.414 152.548 116.458C152.721 116.315 152.893 116.177 153.072 116.045C153.522 115.704 154.098 115.418 154.639 115.599C155.17 115.781 155.544 116.255 155.895 116.695C156.253 117.146 156.581 117.625 156.99 118.054C157.186 118.274 157.422 118.472 157.676 118.643C157.941 118.792 158.235 118.946 158.564 118.951C158.725 118.984 158.892 118.929 159.053 118.918C159.203 118.869 159.359 118.819 159.497 118.747C159.768 118.599 160.016 118.417 160.235 118.219C160.679 117.818 161.064 117.377 161.456 116.948C161.843 116.519 162.228 116.095 162.678 115.748C163.122 115.407 163.657 115.143 164.211 115.22C164.781 115.292 165.317 115.523 165.767 115.87C166.216 116.217 166.597 116.652 166.988 117.081C167.38 117.51 167.783 117.939 168.256 118.302C168.722 118.671 169.264 118.952 169.835 119.133C169.99 119.183 170.152 119.222 170.307 119.26C170.318 119.222 170.33 119.188 170.336 119.15C170.186 119.106 170.03 119.062 169.881 119.007C168.751 118.644 167.893 117.823 167.161 116.943C166.78 116.508 166.4 116.057 165.922 115.682C165.449 115.314 164.862 115.055 164.251 114.972C163.594 114.879 162.977 115.187 162.51 115.545C162.026 115.908 161.629 116.343 161.237 116.772C160.845 117.202 160.471 117.642 160.05 118.027C159.63 118.396 159.134 118.759 158.586 118.699C158.033 118.671 157.555 118.308 157.175 117.895C156.783 117.482 156.443 117.015 156.075 116.563C155.7 116.128 155.308 115.633 154.692 115.435C154.386 115.331 154.052 115.38 153.764 115.484C153.476 115.589 153.222 115.76 152.986 115.941C152.824 116.068 152.674 116.194 152.524 116.332Z" fill="white"/>
<path d="M153.256 119.683C153.268 119.733 153.285 119.777 153.296 119.821C153.395 119.838 153.492 119.859 153.585 119.882C154.743 120.14 155.682 120.872 156.506 121.681C156.926 122.083 157.347 122.496 157.86 122.82C158.373 123.145 158.978 123.349 159.6 123.371C160.257 123.41 160.845 123.046 161.271 122.645C161.715 122.237 162.067 121.77 162.418 121.307C162.758 120.84 163.087 120.366 163.472 119.948C163.847 119.541 164.308 119.133 164.855 119.139C165.408 119.117 165.921 119.436 166.342 119.81C166.774 120.185 167.16 120.619 167.575 121.032C167.99 121.428 168.428 121.885 169.062 122.028C169.188 122.056 169.321 122.061 169.448 122.045C169.471 121.99 169.494 121.929 169.517 121.874C169.379 121.896 169.241 121.891 169.102 121.858C168.555 121.731 168.134 121.291 167.737 120.889C167.339 120.471 166.959 120.025 166.509 119.634C166.29 119.43 166.042 119.26 165.772 119.111C165.489 118.985 165.178 118.864 164.85 118.891C164.688 118.869 164.533 118.94 164.372 118.968C164.227 119.029 164.078 119.095 163.945 119.177C163.692 119.348 163.467 119.557 163.265 119.772C162.862 120.213 162.522 120.686 162.182 121.148C161.842 121.61 161.497 122.067 161.082 122.458C160.679 122.838 160.172 123.151 159.613 123.124C159.036 123.107 158.483 122.926 158 122.623C157.516 122.32 157.089 121.924 156.657 121.533C156.231 121.142 155.781 120.746 155.274 120.432C154.773 120.108 154.202 119.882 153.62 119.75C153.498 119.722 153.377 119.7 153.256 119.683Z" fill="white"/>
<path d="M75.3241 163.325L41.2702 189.553H43.1884L82.5185 163.325H75.3241Z" fill="#C7C7C7"/>
<path d="M78.5232 163.325L61.6961 189.553H63.6148L84.2391 163.325H78.5232Z" fill="#C7C7C7"/>
<path d="M86.7738 163.325L103.601 189.553H101.682L81.0578 163.325H86.7738Z" fill="#C7C7C7"/>
<path d="M89.7134 163.325L123.767 189.553H121.849L82.5185 163.325H89.7134Z" fill="#C7C7C7"/>
<path d="M146.55 153.704V146.031L99.7854 144.198L75.0845 81.2058H18.4876L38.5121 153.704L86.3559 166.532H89.3534L146.55 153.704Z" fill="#455A64"/>
<path d="M18.4876 81.2058H24.9626L45.8265 147.291L88.1541 158.744L146.55 146.031V153.704L89.3534 166.532H86.3559L38.5121 153.704L18.4876 81.2058Z" fill="#37474F"/>
<path d="M180.941 189.29C179.432 189.323 140.297 177.768 139.098 176.429C138.969 176.281 139.58 170.746 140.59 166.351C140.637 166.141 126.693 148.69 126.693 148.69L151.905 139.322L163.966 163.193L167.104 169.399C167.104 169.399 180.159 181.935 181.315 183.541C182.458 185.148 182.45 189.257 180.941 189.29Z" fill="#EBEBEB"/>
<path d="M182.043 189.5C180.47 189.54 139.615 177.628 138.357 176.233C137.877 175.707 138.607 173.293 140.59 166.351L167.376 169.432C167.376 169.432 181.2 181.831 182.407 183.502C183.606 185.171 183.616 189.46 182.043 189.5Z" fill="#FFC727"/>
<path d="M181.956 187.768C175.159 185.611 147.53 177.522 140.639 175.883C140.583 175.869 140.572 175.905 140.626 175.924C147.314 178.203 175.011 186.077 181.922 187.875C182.067 187.913 182.1 187.814 181.956 187.768Z" fill="#263238"/>
<path d="M180.228 181.332C178.624 180.796 176.801 181.07 175.62 181.735C174.485 182.375 173.358 183.411 172.974 184.782C172.962 184.821 173.037 184.844 173.056 184.806C174.266 182.36 177.422 180.822 180.202 181.415C180.258 181.426 180.283 181.351 180.228 181.332Z" fill="#263238"/>
<path d="M170.142 172.013C167.412 171.177 163.939 171.175 161.551 172.82C161.459 172.884 161.555 173.008 161.649 172.992C164.517 172.494 167.163 172.272 170.086 172.349C170.292 172.355 170.337 172.073 170.142 172.013Z" fill="#263238"/>
<path d="M172.006 173.418C169.277 172.582 165.803 172.58 163.415 174.225C163.323 174.288 163.419 174.413 163.513 174.397C166.381 173.899 169.027 173.677 171.95 173.754C172.156 173.759 172.201 173.478 172.006 173.418Z" fill="#263238"/>
<path d="M173.87 174.823C171.141 173.987 167.667 173.985 165.28 175.63C165.187 175.693 165.283 175.818 165.378 175.802C168.245 175.304 170.892 175.082 173.815 175.159C174.021 175.164 174.066 174.883 173.87 174.823Z" fill="#263238"/>
<path d="M175.735 176.228C173.005 175.392 169.532 175.39 167.144 177.034C167.052 177.098 167.148 177.222 167.242 177.206C170.11 176.709 172.756 176.486 175.679 176.563C175.885 176.569 175.93 176.288 175.735 176.228Z" fill="#263238"/>
<path d="M175.337 165.89C174.301 164.387 172.21 164.951 170.989 165.843C169.013 167.287 167.233 169.6 166.359 171.812C166.337 171.866 166.374 171.902 166.421 171.911C166.42 172.116 166.601 172.341 166.846 172.266C169.21 171.546 171.83 171.056 173.892 169.664C175.096 168.852 176.317 167.312 175.337 165.89ZM170.195 170.474C169.042 170.855 167.876 171.18 166.738 171.602C167.644 170.44 168.493 169.247 169.522 168.173C170.013 167.66 170.527 167.143 171.087 166.699C171.959 166.008 175.349 164.604 174.712 167.532C174.36 169.146 171.57 170.02 170.195 170.474Z" fill="#263238"/>
<path d="M159.238 170.797C161.513 171.843 164.182 171.911 166.638 172.248C166.893 172.283 167.033 172.032 166.996 171.83C167.039 171.813 167.07 171.772 167.04 171.722C165.793 169.678 163.637 167.68 161.437 166.568C160.079 165.882 157.919 165.656 157.158 167.303C156.438 168.861 157.91 170.186 159.238 170.797ZM158.059 168.824C156.922 166.037 160.509 166.885 161.489 167.429C162.119 167.778 162.716 168.207 163.289 168.635C164.489 169.531 165.534 170.573 166.63 171.576C165.433 171.34 164.227 171.204 163.023 171.01C161.589 170.78 158.686 170.36 158.059 168.824Z" fill="#263238"/>
<path d="M165.242 164.306L137.449 168.227C137.449 168.227 122.282 141.922 116.157 135.379L116.142 135.368C115.74 134.936 115.364 134.587 115.021 134.323L115.01 134.319C114.622 134.107 113.944 133.948 113.004 133.84L112.992 133.836C104.775 132.883 77.1152 135.45 58.0023 134.272L66.9281 122.875L70.8837 117.82C92.4161 115.474 118.839 107.066 130.763 112.778C143.714 118.984 165.242 164.306 165.242 164.306Z" fill="#263238"/>
<path d="M161.759 159.798C157.035 160.379 158.383 160.152 153.665 160.781C151.356 161.088 139.749 162.609 137.645 163.238C137.599 163.252 137.61 163.325 137.659 163.325C139.863 163.342 151.433 161.582 153.736 161.234C158.441 160.523 157.082 160.681 161.778 159.922C161.866 159.908 161.848 159.787 161.759 159.798Z" fill="#37474F"/>
<path d="M137.591 162.867C134.446 157.844 120.126 133.051 117.275 132.075C114.681 131.186 62.7714 132.217 62.0034 132.222C61.9485 132.223 61.944 132.304 61.9993 132.303C68.1439 132.228 115.592 132.067 116.945 132.578C119.758 133.641 136.884 162.402 137.304 163.002C137.416 163.162 137.699 163.04 137.591 162.867Z" fill="#37474F"/>
<path d="M43.4846 123.902C43.4846 123.902 41.8433 138.853 49.7856 146.29C59.2908 155.189 122.017 152.941 131.738 149.94C141.459 146.939 141.763 131.956 131.136 128.484C121.03 125.182 76.208 123.284 75.1465 122.88C74.0851 122.475 70.9782 117.737 70.9782 117.737L43.4846 123.902Z" fill="#263238"/>
<path d="M56.7589 123.481C56.7464 123.409 56.6304 123.432 56.6304 123.5C56.6389 125.388 55.9065 127.375 54.6087 128.807C53.1199 130.448 50.9252 131.368 48.936 132.328C48.7447 132.421 48.8896 132.707 49.0876 132.65C50.2999 132.303 51.4947 131.798 52.5999 131.205C53.6065 130.665 54.5364 129.988 55.2416 129.107C56.5421 127.483 57.1107 125.504 56.7589 123.481Z" fill="#37474F"/>
<path d="M74.7188 121.948C74.2751 121.406 73.7911 120.891 73.3282 120.365C72.2333 119.12 71.133 117.87 69.985 116.669C69.8762 116.555 69.6634 116.716 69.7633 116.841C70.5362 117.806 71.3546 118.741 72.1592 119.682C72.5718 120.164 72.9857 120.645 73.4027 121.124C73.7925 121.571 74.2746 122.015 74.5632 122.53C74.8629 123.065 74.4686 123.523 73.8879 123.582C73.3683 123.635 72.8884 123.382 72.4897 123.091C71.5834 122.428 70.8712 121.479 70.1174 120.668C69.6563 120.173 69.1956 119.678 68.7273 119.188C68.2295 118.667 67.6988 118.174 67.2024 117.654C67.1703 117.621 67.1087 117.668 67.1373 117.705C67.5712 118.273 67.9717 118.867 68.4066 119.436C68.841 120.005 69.2816 120.569 69.7303 121.128C70.1549 121.657 70.5942 122.175 71.0465 122.683C71.4305 123.114 71.8671 123.535 72.3818 123.824C73.2136 124.291 74.6573 124.392 75.0997 123.366C75.3187 122.86 75.0453 122.346 74.7188 121.948Z" fill="#37474F"/>
<path d="M130.409 149.996C127.062 150.056 123.717 150.242 120.37 150.31C117.05 150.378 113.728 150.396 110.408 150.366C103.739 150.306 97.0714 150.063 90.4167 149.624C83.6928 149.18 76.4408 148.54 69.762 147.656C66.5659 147.233 63.3262 146.881 60.1681 146.233C57.3181 145.647 54.734 144.516 52.6008 142.54C48.275 138.533 46.5932 132.641 45.9023 127.011C45.8095 126.256 45.7337 125.5 45.6695 124.741C45.665 124.69 45.5839 124.691 45.5874 124.743C45.9781 130.516 46.9174 136.533 50.7187 141.174C52.3631 143.182 54.4557 144.826 56.91 145.766C59.9014 146.91 63.2214 147.179 66.3795 147.588C73.0856 148.457 80.3665 149.128 87.1109 149.628C93.8982 150.131 100.702 150.444 107.508 150.54C114.313 150.636 121.126 150.544 127.924 150.225C128.755 150.186 129.583 150.139 130.411 150.07C130.457 150.065 130.456 149.995 130.409 149.996Z" fill="#37474F"/>
<path d="M139.344 136.024C138.706 133.49 137.108 131.366 134.862 129.901C132.453 128.33 129.571 127.614 126.719 127.218C123.492 126.77 120.223 126.541 116.978 126.24C110.319 125.622 103.656 125.052 96.9881 124.528C90.3248 124.004 75.9721 122.94 75.1648 122.91C75.0948 122.907 75.0801 123.021 75.151 123.029C81.5837 123.712 87.4361 124.298 93.8812 124.857C100.358 125.419 106.833 126.008 113.305 126.619C116.53 126.924 119.754 127.232 122.977 127.55C125.964 127.845 129.036 128.135 131.838 129.237C134.242 130.183 136.403 131.703 137.629 133.937C138.813 136.094 139.063 138.673 138.589 141.045C138.149 143.248 137.064 145.394 135.48 147.055C133.918 148.691 131.937 149.945 129.653 150.415C129.064 150.536 128.353 150.623 127.81 150.727C127.769 150.735 127.727 150.818 127.769 150.819C132.586 150.935 137.043 147.575 138.783 143.372C139.742 141.055 139.955 138.449 139.344 136.024Z" fill="#37474F"/>
<path d="M62.2139 87.1098C65.401 99.0463 71.7373 113.297 74.3455 115.574C77.6441 118.453 97.8247 122.233 98.8907 122.332C100.641 122.495 104.249 105.314 102.613 105.349C98.2962 105.441 84.996 104.149 84.0416 103.257C83.0514 102.324 76.2968 94.5771 69.3294 85.8079C64.5219 79.7476 60.2363 79.7033 62.2139 87.1098Z" fill="#EB9481"/>
<path d="M97.2534 121.617C97.546 121.75 101.697 123.626 104.252 124.271C106.157 124.751 111.681 125.994 112.443 124.043C112.965 122.712 109.807 121.617 107.591 120.794C106.424 120.36 104.971 119.237 105.294 118.52C105.858 117.266 108.864 118.444 110.847 119.484C114.683 121.497 119.817 125.161 122.081 123.275C122.936 122.561 121.891 121.323 120.376 120.12C122.819 121.507 125.417 122.631 126.4 121.875C126.964 121.444 126.977 120.87 126.64 120.223C127.389 120.437 128.045 120.377 128.491 119.904C129.255 119.104 128.844 117.958 127.958 116.793C128.232 116.76 128.475 116.621 128.657 116.331C130.254 113.88 121.785 107.141 118.9 106.558C110.413 104.835 101.528 105.396 101.528 105.396C98.2779 108.002 97.2467 121.612 97.2534 121.617Z" fill="#EB9481"/>
<path d="M109.477 113.912C111.472 114.163 113.447 114.828 115.159 115.852C117.332 117.152 118.791 118.699 120.627 120.247C120.675 120.288 120.61 120.361 120.561 120.32C119.687 119.584 116.071 116.824 115.139 116.199C113.431 115.054 111.536 114.266 109.471 113.944C109.448 113.941 109.455 113.909 109.477 113.912Z" fill="#263238"/>
<path d="M110.964 110.455C113.197 110.983 115.485 111.517 117.568 112.472C119.849 113.517 121.657 115.265 123.434 116.946C124.5 117.955 125.546 118.986 126.563 120.04C126.606 120.085 126.544 120.158 126.499 120.113C124.695 118.376 122.837 116.689 120.925 115.06C119.127 113.528 117.135 112.369 114.862 111.601C113.581 111.169 112.268 110.83 110.956 110.493C110.932 110.486 110.939 110.449 110.964 110.455Z" fill="#263238"/>
<path d="M113.259 107.409C115.424 107.782 117.314 108.101 119.25 109.16C121.813 110.563 124.314 112.968 125.191 113.82C126.16 114.762 127.096 115.734 128.016 116.719C128.053 116.759 127.981 116.823 127.943 116.783C125.842 114.63 123.586 112.591 121.212 110.715C120.077 109.819 118.849 109.043 117.479 108.516C116.124 107.995 114.679 107.715 113.256 107.423C113.247 107.421 113.249 107.408 113.259 107.409Z" fill="#263238"/>
<path d="M101.201 104.197L95.1358 124.206C95.1358 124.206 77.2454 119.769 73.9142 116.497C70.5831 113.227 64.1567 96.0928 62.1831 87.762C60.2096 79.4315 64.6468 79.5368 68.8521 84.7212C73.0579 89.906 83.5189 102.465 84.0929 102.73C84.6669 102.995 101.201 104.197 101.201 104.197Z" fill="#FFC727"/>
<path d="M93.2095 115.423C93.9454 113.063 94.7014 110.708 95.3459 108.322C95.712 106.966 96.0862 105.612 96.439 104.253C96.4524 104.202 96.3623 104.173 96.344 104.224C95.5073 106.564 94.6733 108.913 93.9486 111.29C93.2274 113.655 92.4857 116.013 91.7966 118.388C91.405 119.738 91.0571 121.093 90.7512 122.465C90.7449 122.492 90.7904 122.507 90.8011 122.48C91.7212 120.165 92.4683 117.798 93.2095 115.423Z" fill="#263238"/>
<path opacity="0.1" d="M92.5561 123.536C87.478 122.169 76.4542 118.992 73.9129 116.499C70.5826 113.226 64.1553 96.0937 62.1831 87.7641C61.238 83.7635 61.7656 81.7043 63.0408 81.2267C63.1737 81.2838 63.3115 81.3584 63.4488 81.4372C70.014 90.0598 83.6428 110.641 92.5561 123.536Z" fill="black"/>
<path d="M41.6778 126.492C41.7782 126.589 79.5954 118.677 79.9455 118.256C80.4348 117.664 73.6765 90.5029 66.5459 82.3965C64.7628 80.3696 59.0861 80.5098 56.5452 82.5554C43.9546 92.6938 41.3197 126.141 41.6778 126.492Z" fill="#FFC727"/>
<path d="M53.6056 84.4988C46.0642 90.0398 26.1878 112.442 30.3427 117.757C34.5271 123.11 62.9734 121.302 71.2824 119.015C73.7537 118.335 67.4116 103.316 64.7739 102.571C62.5783 101.952 50.249 105.148 50.0269 104.466C49.7758 103.695 52.5062 98.7289 56.9114 89.6538C61.9904 79.1896 56.9364 82.0514 53.6056 84.4988Z" fill="#EB9481"/>
<path d="M76.3641 100.821C81.8593 100.955 83.2481 101.796 87.949 99.5566C91.0335 98.0873 93.3393 99.3381 91.2436 102.116C87.8156 106.659 80.6881 107.908 78.0866 107.662L76.3641 100.821Z" fill="#EB9481"/>
<path d="M61.2416 103.505C61.2416 103.505 67.8313 101.258 73.702 100.847C77.7619 100.564 86.6658 100.887 93.5869 110.426C95.2281 112.688 95.8878 117.023 91.8015 114.259C88.8994 112.294 87.6796 110.212 85.7738 109.363C85.7738 109.363 85.9273 114.973 83.4903 116.455C82.4012 117.117 79.3844 118.859 76.8329 119.895C76.8329 119.895 76.4471 119.425 76.0475 118.762C76.0475 118.762 73.6342 119.942 69.65 118.934L61.2416 103.505Z" fill="#EB9481"/>
<path d="M77.6218 101.168C79.3273 102.393 82.8958 105.046 85.025 108.186C87.3897 111.674 90.9608 119.001 88.2473 120.642C86.2573 121.845 84.6365 119.162 84.6365 119.162C84.6365 119.162 85.4442 122.489 83.398 123.2C81.5333 123.848 80.4093 121.7 80.4093 121.7C80.4093 121.7 80.536 123.798 78.6142 124.092C76.3021 124.446 76.4159 119.991 73.7501 118.416C73.1516 118.062 77.6218 101.168 77.6218 101.168Z" fill="#EB9481"/>
<path d="M80.7496 109.957C82.1559 111.36 84.4934 115.328 84.6793 119.086C84.6834 119.171 84.6182 119.22 84.5973 119.143C83.4729 115.048 81.6037 111.457 80.7153 109.979C80.7033 109.959 80.734 109.942 80.7496 109.957Z" fill="#263238"/>
<path d="M77.133 112.34C78.2159 113.67 80.4343 117.863 80.4856 121.676C80.4869 121.761 80.4178 121.806 80.4004 121.728C79.4099 117.403 77.8921 113.886 77.0973 112.359C77.0866 112.339 77.1188 112.323 77.133 112.34Z" fill="#263238"/>
<path d="M85.781 109.329C87.4459 110.098 88.4422 111.098 89.7499 112.311C90.3966 112.912 91.0554 113.503 91.7685 114.032C92.4179 114.513 93.3728 115.236 94.2322 114.779C94.7103 114.525 94.8053 113.94 94.7915 113.464C94.7754 112.93 94.4057 111.89 94.1591 111.41C94.1466 111.385 94.1907 111.364 94.2037 111.388C94.4338 111.817 94.8673 112.774 94.9623 113.248C95.048 113.678 95.0881 114.168 94.8945 114.578C94.4775 115.46 93.3184 115.401 92.5566 115.02C92.1008 114.792 91.6865 114.475 91.2891 114.165C90.9051 113.866 90.5362 113.549 90.1759 113.223C89.4368 112.555 88.7388 111.846 88.0078 111.17C87.2046 110.426 86.6293 110.034 85.7453 109.381C85.715 109.358 85.748 109.314 85.781 109.329Z" fill="#263238"/>
<path d="M88.4271 115.791C88.1394 114.766 86.3746 110.408 85.7381 109.363C85.7221 109.336 85.7604 109.311 85.7801 109.336C86.9303 110.787 88.5546 114.415 88.8833 115.547C89.2085 116.665 89.5599 118.085 89.3597 119.243C89.0573 120.99 87.7871 121.129 87.3237 121.144C86.7706 121.161 86.2488 120.968 85.8095 120.654C85.3202 120.305 84.8979 119.674 84.6182 119.165C84.6035 119.138 84.6423 119.111 84.6602 119.138C85.1744 119.926 86.1097 120.771 87.1252 120.804C87.5659 120.818 88.0346 120.699 88.3571 120.4C88.7362 120.047 88.8521 119.523 88.8931 119.038C88.985 117.942 88.7228 116.843 88.4271 115.791Z" fill="#263238"/>
<path d="M61.2416 102.749L66.9624 121.77C66.9624 121.77 31.3592 123.709 29.3856 117.533C27.4121 111.358 44.6143 91.1265 51.7485 85.5706C60.0164 79.132 60.4615 81.8367 57.7695 88.2766C54.9512 95.0189 50.0978 104.646 50.0978 104.646L61.2416 102.749Z" fill="#FFC727"/>
<path d="M38.8515 107.692C40.6203 106.881 42.4721 106.233 44.344 105.675C46.198 105.122 48.1056 104.762 50.0216 104.476C51.1165 104.312 52.2155 104.2 53.3162 104.08C53.3496 104.076 53.3541 104.125 53.3211 104.13C51.3926 104.389 49.4792 104.81 47.5967 105.28C45.7212 105.747 43.8579 106.246 42.0016 106.778C40.9517 107.079 39.917 107.428 38.8783 107.763C38.8297 107.778 38.8065 107.713 38.8515 107.692Z" fill="#263238"/>
<path d="M61.1586 102.683C60.9785 102.699 51.0782 104.176 50.7463 104.264C50.8088 104.135 53.3189 99.6329 53.6922 98.9747C53.7292 98.9091 53.7631 98.8422 53.7996 98.7766C54.0244 98.4925 54.2514 98.2096 54.4646 97.9165C54.738 97.5412 55.0087 97.1638 55.2795 96.7868C55.2879 96.7753 55.2706 96.7616 55.2616 96.7731C54.9735 97.1369 54.6845 97.5007 54.3982 97.8663C54.2657 98.0354 54.1395 98.2083 54.0137 98.3817C54.2644 97.9148 54.5088 97.4454 54.7532 96.9738C55.143 96.2219 55.5069 95.4606 55.8691 94.696C55.8807 94.6713 55.8423 94.6563 55.8289 94.6793C55.0899 95.9914 54.3081 97.2801 53.565 98.5896C52.8233 99.897 50.0042 104.712 50.0198 104.71C50.0345 104.726 60.9633 102.859 61.176 102.811C61.2594 102.793 61.2474 102.675 61.1586 102.683Z" fill="#263238"/>
<path d="M59.7988 114.286C59.1739 112.165 58.566 110.039 57.8587 107.94C57.4568 106.748 57.0612 105.553 56.6474 104.364C56.6317 104.319 56.5492 104.338 56.5608 104.384C57.1 106.537 57.6459 108.694 58.2882 110.823C58.9269 112.941 59.5472 115.064 60.2153 117.174C60.5953 118.374 61.011 119.559 61.4668 120.736C61.4757 120.759 61.5177 120.749 61.5123 120.725C61.0485 118.553 60.4285 116.422 59.7988 114.286Z" fill="#263238"/>
<path d="M67.3576 122.116C67.1078 121.519 66.8095 120.668 66.5338 120.081C66.4611 119.926 66.3429 119.938 66.3956 120.097C66.5717 120.631 66.6926 121.219 66.8634 121.766C66.3657 121.781 65.8675 121.787 65.3698 121.807C64.794 121.83 64.2182 121.856 63.6424 121.878C62.5149 121.921 61.3866 121.952 60.2582 121.972C57.9733 122.013 55.6871 122.007 53.4023 121.956C48.8223 121.852 44.2347 121.589 39.6895 121.032C38.418 120.877 37.1487 120.697 35.8874 120.481C34.606 120.261 33.223 120.016 32.1829 119.72C32.1499 119.71 32.1334 119.764 32.1664 119.776C33.2306 120.167 34.2323 120.462 35.3446 120.692C36.4797 120.927 37.6223 121.132 38.7703 121.301C41.0565 121.636 43.361 121.856 45.6673 122.015C50.241 122.332 54.8308 122.459 59.4161 122.412C60.701 122.399 61.9855 122.371 63.2696 122.329C63.9172 122.308 64.5656 122.286 65.2132 122.253C65.8613 122.22 67.4 122.218 67.3576 122.116Z" fill="#263238"/>
<path d="M115.381 124.619H69.8262V126.374H115.381V124.619Z" fill="#455A64"/>
<path d="M95.0332 124.619H69.8262V126.374H95.0332V124.619Z" fill="#A6A6A6"/>
<path d="M94.2683 126.372H134.194L139.835 100.472H99.9093L94.2683 126.372Z" fill="#A6A6A6"/>
<path d="M96.0787 126.372H136.005L141.646 100.472H101.72L96.0787 126.372Z" fill="#C7C7C7"/>
<path d="M116.201 114.001C116.047 115.405 117.113 116.543 118.582 116.543C120.052 116.543 121.369 115.405 121.523 114.001C121.678 112.597 120.612 111.459 119.142 111.459C117.672 111.459 116.356 112.597 116.201 114.001Z" fill="#EBEBEB"/>
<path d="M63.6834 91.0843C63.6834 91.0843 57.0247 84.7595 52.6739 84.8681L48.9561 87.969C48.9561 87.969 47.7407 88.3392 47.3723 87.6026C46.4612 85.7815 46.314 81.3924 50.2892 78.5753C53.9294 75.9958 59.8523 76.2357 64.7842 77.5188C69.5202 78.7508 73.6127 81.792 72.1311 84.7378C70.6491 87.6832 63.6834 91.0843 63.6834 91.0843Z" fill="#FFC727"/>
<path opacity="0.1" d="M64.1714 89.6981C64.1714 89.6981 69.6478 86.029 70.2289 83.8287C70.8101 81.6284 66.2136 79.4912 63.2406 78.6439C58.6387 77.3322 55.4949 77.5904 52.8902 79.9214C50.2856 82.2525 64.1714 89.6981 64.1714 89.6981Z" fill="black"/>
<path d="M64.1714 89.6981C64.1714 89.6981 58.864 80.9541 52.1503 80.0411L52.6739 84.8686C52.6739 84.8686 56.6835 84.9095 63.6834 91.0848L64.1714 89.6981Z" fill="#FFC727"/>
<path d="M50.8614 84.9423C52.0932 84.8059 53.313 85.076 54.4646 85.4326C55.6233 85.7943 56.7151 86.3272 57.7557 86.9304C58.806 87.5204 59.7854 88.2203 60.7465 88.939L62.1421 90.076L63.4836 91.2748L63.6339 91.4094L63.8039 91.328C65.0718 90.7205 66.2805 90.033 67.4446 89.2704C68.0239 88.887 68.5979 88.4947 69.1264 88.0465C69.6567 87.6035 70.1714 87.1379 70.6005 86.6058C69.5974 87.5456 68.4253 88.2732 67.2421 88.9705C66.648 89.3164 66.0374 89.6372 65.4215 89.9465C64.8065 90.2549 64.1865 90.565 63.5617 90.8411L63.8819 90.8939L62.5386 89.6564C62.0738 89.2606 61.5984 88.8755 61.1221 88.4921C60.6225 88.1347 60.1306 87.7679 59.6177 87.4284C59.0914 87.1059 58.5781 86.766 58.0219 86.4891C56.939 85.8927 55.7696 85.4326 54.5623 85.1178C54.2626 85.0339 53.9522 84.981 53.6471 84.9201C53.3367 84.8805 53.0276 84.8332 52.7154 84.817C52.0955 84.7723 51.4604 84.7864 50.8614 84.9423Z" fill="#263238"/>
<path d="M48.9561 87.969C49.6532 87.537 50.291 87.0399 50.9145 86.5274C51.5304 86.0068 52.1325 85.4701 52.6739 84.8681C51.9764 85.2997 51.3386 85.7968 50.7155 86.3097C50.0996 86.8312 49.4984 87.3675 48.9561 87.969Z" fill="#263238"/>
<path d="M61.4508 88.1249C61.4508 88.1249 60.891 90.6085 60.8103 94.2018C60.7782 95.6242 61.3495 100.726 63.0051 100.542C64.6602 100.358 61.9655 97.065 61.4931 94.3739C61.0137 91.6424 61.7741 89.713 61.8754 88.1019L61.4508 88.1249Z" fill="#FFC727"/>
<g opacity="0.1">
<path d="M61.4508 88.1249C61.4508 88.1249 60.891 90.6085 60.8103 94.2018C60.7782 95.6242 61.3495 100.726 63.0051 100.542C64.6602 100.358 61.9655 97.065 61.4931 94.3739C61.0137 91.6424 61.7741 89.713 61.8754 88.1019L61.4508 88.1249Z" fill="black"/>
</g>
<path d="M67.3228 88.4074C67.3228 88.4074 68.0944 91.095 68.5533 94.3245C68.7348 95.6029 68.7687 100.256 67.2572 100.252C65.7462 100.249 67.8201 97.0172 67.9566 94.5464C68.0953 92.0382 67.2024 89.8694 66.9384 88.4278L67.3228 88.4074Z" fill="#FFC727"/>
<g opacity="0.1">
<path d="M67.3228 88.4074C67.3228 88.4074 68.0944 91.095 68.5533 94.3245C68.7348 95.6029 68.7687 100.256 67.2572 100.252C65.7462 100.249 67.8201 97.0172 67.9566 94.5464C68.0953 92.0382 67.2024 89.8694 66.9384 88.4278L67.3228 88.4074Z" fill="black"/>
</g>
<path d="M64.7293 88.7166C63.0015 88.6093 59.7823 85.1638 58.6865 82.4302C58.6124 82.2423 59.1543 80.4403 59.7042 78.2204C60.0325 76.8721 60.3648 75.3637 60.5637 73.966L69.4368 77.2875C69.4368 77.2875 68.1176 80.0999 67.7862 82.5384C67.7608 82.7424 67.755 82.9345 67.7675 83.1198C67.7666 83.1467 67.7701 83.1795 67.767 83.2165C67.7982 84.3305 67.4347 88.8849 64.7293 88.7166Z" fill="#EB9481"/>
<path d="M67.7661 83.1211C67.7657 83.1484 67.7719 83.1778 67.7684 83.2178C67.4727 83.2187 67.1618 83.1953 66.8162 83.1424C61.6153 82.3505 61.2037 76.1126 61.2059 74.2062L69.4409 77.2866C69.4409 77.2866 68.1207 80.0991 67.7831 82.5401C67.7635 82.7416 67.7536 82.932 67.7661 83.1211Z" fill="#263238"/>
<path d="M62.3691 63.0331C60.5097 65.7902 59.5923 74.9594 61.263 77.5111C63.6852 81.2105 68.9387 82.9235 72.5548 79.8614C76.0599 76.893 77.0345 64.9233 75.048 62.4776C72.1227 58.8753 65.1156 58.961 62.3691 63.0331Z" fill="#EB9481"/>
<path d="M68.3598 69.7213C68.6523 69.6876 68.9159 69.6101 69.2014 69.5483C69.5234 69.4785 69.7879 69.4546 70.0247 69.2156C70.1518 69.0874 70.1406 68.828 70.0216 68.6985C69.745 68.3969 69.328 68.3883 68.9364 68.4573C68.5118 68.5323 68.2041 68.6934 67.9249 69.0069C67.6542 69.3106 67.9744 69.7656 68.3598 69.7213Z" fill="#263238"/>
<path d="M74.8656 70.5695C74.5832 70.4894 74.3366 70.3705 74.0663 70.264C73.7608 70.1434 73.5048 70.0778 73.313 69.8039C73.21 69.657 73.2667 69.4035 73.4067 69.2944C73.7323 69.0414 74.1448 69.1002 74.5186 69.2305C74.9244 69.3724 75.1987 69.5807 75.4195 69.9347C75.6331 70.2781 75.238 70.6751 74.8656 70.5695Z" fill="#263238"/>
<path d="M67.8629 76.9305C67.9981 77.0932 68.1256 77.3105 68.3566 77.3578C68.5783 77.4029 68.8544 77.3386 69.0698 77.2875C69.0912 77.2824 69.109 77.3054 69.0934 77.3224C68.8945 77.5384 68.523 77.6436 68.2309 77.5571C67.9459 77.4732 67.8335 77.2146 67.7965 76.9509C67.792 76.9139 67.8433 76.9066 67.8629 76.9305Z" fill="#263238"/>
<path d="M68.7861 75.1703C69.0756 75.7483 69.5671 76.1049 70.1264 76.2808C70.3757 76.3609 70.6442 76.4022 70.9109 76.4112C70.9631 76.4163 71.0157 76.4172 71.0639 76.4129C71.1116 76.4133 71.1548 76.4133 71.2079 76.4095C71.2842 76.4082 71.3337 76.3537 71.3555 76.2872L71.356 76.283C71.3587 76.2604 71.3605 76.2421 71.3582 76.2191C71.3582 76.2191 71.3582 76.2191 71.3587 76.2144L71.3645 76.1603C71.4412 75.6878 71.4893 74.9615 71.4893 74.9615C71.6593 75.0701 72.5303 75.5801 72.5486 75.3304C72.694 73.2656 72.8554 70.969 72.5432 68.8846C72.5366 68.8156 72.4264 68.8177 72.4237 68.8859C72.2021 70.8651 72.3461 72.8686 72.1566 74.8601C71.876 74.7174 71.4211 74.4605 71.1611 74.4337C71.0879 74.4444 71.0946 75.8395 71.0424 76.0487C71.0424 76.0487 71.0416 76.058 71.0353 76.0708C70.1884 76.0712 69.5921 75.7543 68.8539 75.1213C68.8102 75.0812 68.7536 75.1166 68.7861 75.1703Z" fill="#263238"/>
<path d="M70.65 76.1356C70.65 76.1356 70.1344 76.6489 69.5051 76.7801C69.2732 76.8291 69.0301 76.8299 68.788 76.7358C68.2907 76.5441 68.3379 76.0917 68.4838 75.7172C68.6024 75.4092 68.7933 75.1545 68.7933 75.1545C68.7933 75.1545 69.4547 75.9175 70.65 76.1356Z" fill="#263238"/>
<path d="M69.5046 76.7801C69.2727 76.8291 69.0296 76.8299 68.7875 76.7358C68.2902 76.5441 68.3375 76.0917 68.4833 75.7172C69.0283 75.8382 69.5265 76.2625 69.5046 76.7801Z" fill="#FF9ABB"/>
<path d="M69.6246 71.3989C69.6237 71.375 69.5702 71.4202 69.5666 71.4453C69.4855 72.0566 69.2848 72.7446 68.6751 72.8588C68.6564 72.8622 68.6528 72.8933 68.6746 72.8937C69.3936 72.9061 69.6505 71.9906 69.6246 71.3989Z" fill="#263238"/>
<path d="M69.1612 70.6768C68.1488 70.4468 67.7416 72.3978 68.68 72.6108C69.6028 72.8209 70.01 70.8698 69.1612 70.6768Z" fill="#263238"/>
<path d="M73.3554 71.8662C73.3652 71.8445 73.3987 71.9045 73.3924 71.9292C73.2412 72.5286 73.1739 73.2396 73.7019 73.5532C73.7185 73.563 73.71 73.5928 73.6895 73.586C73.0124 73.3538 73.1119 72.411 73.3554 71.8662Z" fill="#263238"/>
<path d="M74.0561 71.3478C75.0881 71.4751 74.7451 73.4377 73.7894 73.3193C72.8483 73.203 73.1913 71.2408 74.0561 71.3478Z" fill="#263238"/>
<path d="M63.2843 68.9383C64.6035 67.3642 64.6673 63.9865 65.9117 63.5059C68.6055 62.4657 71.4934 67.2501 74.342 68.2559C77.1023 69.2305 78.6731 67.8516 78.9875 65.5341C79.3019 63.2167 77.9421 61.1148 75.0052 59.5965C71.967 58.0255 68.5694 58.2478 66.6079 58.6709C66.6079 58.6709 67.7131 57.8423 67.5779 57.4188C67.4428 56.9958 65.6967 57.5556 65.116 57.8508C64.5264 58.1507 63.9555 58.8898 63.9555 58.8898C63.9555 58.8898 63.505 58.5716 62.7397 58.3275C62.0297 58.1009 60.9432 58.3203 60.8331 58.4608C60.7229 58.6014 61.6836 59.073 62.3762 59.3516C62.3762 59.3516 60.4263 60.5657 59.9121 62.0039C59.3978 63.4425 59.1485 71.0359 59.6801 71.303C60.3625 71.6455 62.7486 69.5777 63.2843 68.9383Z" fill="#455A64"/>
<path d="M62.7156 59.2728C62.7455 59.2673 62.7669 59.3116 62.7353 59.3231C61.8513 59.6451 61.0605 60.1031 60.4714 60.8256C59.7867 61.6661 59.4643 62.7166 59.3229 63.759C59.0482 65.7876 59.3617 67.8222 59.5388 69.8436C59.5437 69.9028 59.4393 69.913 59.4299 69.8538C59.0986 67.7242 58.8087 65.4357 59.1913 63.2972C59.5178 61.4744 60.6805 59.6507 62.7156 59.2728Z" fill="#455A64"/>
<path d="M66.0655 62.7745C66.9187 62.9475 67.7947 63.3343 68.5159 63.8007C69.2263 64.2604 69.7187 64.9573 70.2811 65.5635C71.5429 66.9237 73.0267 68.1532 74.8838 68.6759C74.9079 68.6827 74.8963 68.7159 74.8727 68.7108C73.1364 68.3347 71.6923 67.3003 70.4845 66.0884C69.8753 65.477 69.3655 64.7273 68.6827 64.1905C67.9066 63.5797 66.9433 63.2601 66.0191 62.9198C65.9228 62.884 65.9661 62.7541 66.0655 62.7745Z" fill="#455A64"/>
<path d="M68.5979 58.5102C69.9167 58.3526 71.2637 58.4161 72.5731 58.6197C73.8299 58.8153 75.0801 59.1446 76.1973 59.741C78.1258 60.7702 79.5374 62.6701 79.2542 64.8474C79.1106 65.9508 78.574 67.0307 77.6776 67.7553C77.6169 67.8043 77.5389 67.7229 77.5946 67.6688C79.1057 66.2004 79.586 63.9511 78.5147 62.1121C77.3641 60.1367 75.0435 59.2114 72.8247 58.8046C71.4278 58.5486 70.0184 58.4987 68.6001 58.526C68.5908 58.5256 68.589 58.5111 68.5979 58.5102Z" fill="#455A64"/>
<path d="M67.3455 74.4316C66.0597 74.0899 65.1258 72.9478 65.1566 71.6161C65.1932 70.0408 66.5642 68.7879 68.2126 68.8224C69.8619 68.8569 71.1736 70.166 71.1374 71.7414C71.1009 73.3159 69.7303 74.5692 68.0815 74.5347C67.8268 74.5296 67.5806 74.4938 67.3455 74.4316ZM68.8414 69.294C68.6385 69.2399 68.4244 69.2092 68.2041 69.2046C66.7756 69.1743 65.5883 70.2602 65.5562 71.6247C65.5254 72.9887 66.6618 74.1249 68.0899 74.1534C69.5185 74.1832 70.7057 73.0978 70.7378 71.7333C70.7641 70.5793 69.956 69.5901 68.8414 69.294Z" fill="#37474F"/>
<path d="M74.1337 75.4054C73.0312 75.1123 72.3448 73.7679 72.5847 72.2952C72.7056 71.5518 73.0419 70.8839 73.5307 70.4144C74.036 69.9283 74.6448 69.7098 75.2447 69.7993C75.8468 69.8874 76.3552 70.2734 76.6826 70.883C76.9988 71.4726 77.1063 72.2062 76.9849 72.9491C76.7312 74.5053 75.5381 75.6252 74.325 75.445C74.2603 75.4352 74.197 75.422 74.1337 75.4054ZM75.3321 70.2074C75.2835 70.1946 75.234 70.1839 75.1836 70.1767C74.7139 70.1068 74.2273 70.2866 73.8139 70.6832C73.3844 71.0964 73.0882 71.6894 72.9794 72.3536C72.76 73.7023 73.3875 74.9198 74.3866 75.0676C75.3816 75.2154 76.3699 74.2386 76.5902 72.8907C76.6982 72.2266 76.6045 71.5753 76.3267 71.0572C76.0885 70.6125 75.7388 70.3156 75.3321 70.2074Z" fill="#37474F"/>
<path d="M70.9854 72.0536L70.7784 71.7265C71.2851 71.4338 72.4005 71.1041 73.0022 71.9493L72.6717 72.164C72.1338 71.4061 71.0317 72.0272 70.9854 72.0536Z" fill="#37474F"/>
<path d="M57.6986 70.8225L57.3757 70.5971C57.4863 70.4536 58.4773 69.1926 59.3822 69.1867C60.2274 69.1837 65.4465 70.4446 65.6681 70.4987L65.5696 70.8689C64.0737 70.506 60.0378 69.5645 59.3849 69.5688C58.7877 69.5722 57.9653 70.4749 57.6986 70.8225Z" fill="#37474F"/>
<path d="M62.2125 70.6657C62.2125 70.6657 60.9142 67.3123 59.3742 67.6825C57.8337 68.0526 58.2681 72.5516 59.6953 73.5089C61.1221 74.4661 62.0756 73.2217 62.0756 73.2217L62.2125 70.6657Z" fill="#EB9481"/>
<path d="M59.5321 68.9694C59.5075 68.9609 59.4933 68.9937 59.5125 69.0078C60.5035 69.7136 60.8179 70.8413 60.9477 71.9616C60.7256 71.4875 60.3353 71.1603 59.6833 71.3976C59.6489 71.41 59.665 71.4602 59.698 71.4615C60.1774 71.4824 60.4843 71.6392 60.6961 72.0634C60.846 72.3638 60.9089 72.7118 60.9869 73.0347C61.0128 73.1425 61.2055 73.1365 61.1979 73.0177C61.1974 73.0092 61.1966 72.9998 61.1957 72.9909C61.5931 71.6485 61.0124 69.4844 59.5321 68.9694Z" fill="#263238"/>
</svg>
