<svg width="417" height="417" viewBox="0 0 417 417" fill="none" xmlns="http://www.w3.org/2000/svg">
<path d="M28.8232 357.256C43.3359 401.38 105.197 379.392 146.939 368.525C217.012 350.281 269.988 392.888 318.367 393.007C349.799 393.091 374.767 373.883 384.465 356.535C395.612 336.616 393.096 308.221 379.565 305.636H30.0412C25.2005 321.403 23.1304 339.942 28.8232 357.256Z" fill="#8FAEBE"/>
<path d="M271.696 24.8029H171.435V204.737H271.696V24.8029Z" fill="#585B5C"/>
<path d="M199.806 200.509C220.09 201.71 239.276 197.976 255.158 185.434C272.654 171.626 270.66 153.574 270.105 131.737C269.569 110.64 267.836 44.7403 264.144 23.859H271.697V203.795H171.435C171.435 185.614 166.997 198.554 199.806 200.509Z" fill="#E6E7E8"/>
<path d="M263.129 29.2549H178.168V183.591H263.129V29.2549Z" fill="white"/>
<path d="M260.244 31.3459H181.055V119.829H260.244V31.3459Z" fill="#FEC782"/>
<path d="M181.055 32.4413C181.055 30.7485 174.689 31.3459 260.244 31.3459C260.244 33.0407 266.61 32.4413 181.055 32.4413Z" fill="#D9A66A"/>
<path d="M181.055 43.9265C181.055 42.2339 174.689 42.8313 260.244 42.8313C260.244 44.5239 266.61 43.9265 181.055 43.9265Z" fill="#D9A66A"/>
<path d="M181.055 46.5269C181.055 44.8342 174.689 45.4316 260.244 45.4316C260.244 47.1243 266.61 46.5269 181.055 46.5269Z" fill="#D9A66A"/>
<path d="M181.055 49.1272C181.055 47.4633 174.514 48.0318 260.244 48.0318C260.244 49.6959 266.787 49.1272 181.055 49.1272Z" fill="#D9A66A"/>
<path d="M181.055 51.7277C181.055 50.0349 174.689 50.6323 260.244 50.6323C260.244 52.3268 266.61 51.7277 181.055 51.7277Z" fill="#D9A66A"/>
<path d="M181.055 58.3796C181.055 56.6871 174.689 57.2843 260.244 57.2843C260.244 58.9792 266.61 58.3796 181.055 58.3796Z" fill="#D9A66A"/>
<path d="M181.055 61.7691C181.055 60.1854 172.255 60.6757 260.244 60.6757C260.244 62.2611 269.044 61.7691 181.055 61.7691Z" fill="#D9A66A"/>
<path d="M181.055 65.1601C181.055 63.4675 174.689 64.0649 260.244 64.0649C260.244 65.7577 266.61 65.1601 181.055 65.1601Z" fill="#D9A66A"/>
<path d="M181.055 68.5495C181.055 66.8568 174.689 67.4542 260.244 67.4542C260.244 69.1469 266.61 68.5495 181.055 68.5495Z" fill="#D9A66A"/>
<path d="M181.055 77.2448C181.055 75.5523 174.689 76.1495 260.244 76.1495C260.244 77.8422 266.61 77.2448 181.055 77.2448Z" fill="#D9A66A"/>
<path d="M181.055 79.7934C181.055 78.1295 174.514 78.698 260.244 78.698C260.244 80.3621 266.787 79.7934 181.055 79.7934Z" fill="#D9A66A"/>
<path d="M181.055 82.342C181.055 80.6494 174.689 81.2466 260.244 81.2466C260.244 82.9416 266.61 82.342 181.055 82.342Z" fill="#D9A66A"/>
<path d="M181.055 84.8927C181.055 83.2286 174.514 83.7956 260.244 83.7956C260.244 85.4595 266.787 84.8927 181.055 84.8927Z" fill="#D9A66A"/>
<path d="M181.055 87.4413C181.055 85.7772 174.514 86.3441 260.244 86.3441C260.244 88.01 266.787 87.4413 181.055 87.4413Z" fill="#D9A66A"/>
<path d="M181.055 100.443C181.055 98.7506 174.689 99.3478 260.244 99.3478C260.244 101.041 266.61 100.443 181.055 100.443Z" fill="#D9A66A"/>
<path d="M181.055 103.118C181.055 101.426 174.689 102.023 260.244 102.023C260.244 103.717 266.61 103.118 181.055 103.118Z" fill="#D9A66A"/>
<path d="M181.055 105.669C181.055 103.976 174.689 104.573 260.244 104.573C260.244 106.266 266.61 105.669 181.055 105.669Z" fill="#D9A66A"/>
<path d="M181.055 108.217C181.055 106.525 174.689 107.122 260.244 107.122C260.244 108.815 266.61 108.217 181.055 108.217Z" fill="#D9A66A"/>
<path d="M181.055 110.766C181.055 109.102 174.514 109.671 260.244 109.671C260.244 111.335 266.787 110.766 181.055 110.766Z" fill="#D9A66A"/>
<path d="M181.055 113.317C181.055 111.651 174.514 112.219 260.244 112.219C260.244 113.885 266.787 113.317 181.055 113.317Z" fill="#D9A66A"/>
<path d="M181.055 115.865C181.055 114.173 174.689 114.77 260.244 114.77C260.244 116.463 266.61 115.865 181.055 115.865Z" fill="#D9A66A"/>
<path d="M181.055 118.414C181.055 116.721 174.689 117.318 260.244 117.318C260.244 119.013 266.61 118.414 181.055 118.414Z" fill="#D9A66A"/>
<path d="M181.055 89.9901C181.055 88.2975 174.689 88.8947 260.244 88.8947C260.244 90.5892 266.61 89.9901 181.055 89.9901Z" fill="#D9A66A"/>
<path d="M181.055 35.4552C181.055 33.079 172.259 33.8122 260.244 33.8122C260.244 36.1906 269.041 35.4552 181.055 35.4552Z" fill="#D9A66A"/>
<path d="M181.055 38.3697C181.055 35.9933 172.259 36.7267 260.244 36.7267C260.244 39.1029 269.041 38.3697 181.055 38.3697Z" fill="#D9A66A"/>
<path d="M181.055 41.2822C181.055 38.9137 172.192 39.6372 260.244 39.6372C260.244 42.006 269.108 41.2822 181.055 41.2822Z" fill="#D9A66A"/>
<path d="M181.055 56.2141C181.055 53.8359 172.259 54.5712 260.244 54.5712C260.244 56.9474 269.041 56.2141 181.055 56.2141Z" fill="#D9A66A"/>
<path d="M181.055 93.6933C181.055 89.7487 169.742 90.9205 260.244 90.9205C260.244 94.8671 271.557 93.6933 181.055 93.6933Z" fill="#D9A66A"/>
<path d="M181.055 98.0266C181.055 94.082 169.742 95.254 260.244 95.254C260.244 99.2004 271.557 98.0266 181.055 98.0266Z" fill="#D9A66A"/>
<path d="M181.055 71.6362C181.055 69.2696 172.192 69.9931 260.244 69.9931C260.244 72.3619 269.108 71.6362 181.055 71.6362Z" fill="#D9A66A"/>
<path d="M181.055 74.4396C181.055 72.0634 172.259 72.7966 260.244 72.7966C260.244 75.1748 269.041 74.4396 181.055 74.4396Z" fill="#D9A66A"/>
<path d="M260.694 123.64H180.605V181.188H260.694V123.64Z" fill="#A7A9AC"/>
<path d="M257.5 125.933H183.799V178.894H257.5V125.933Z" fill="#99DAF0"/>
<path d="M211.363 125.933C193.494 128.532 182.187 138.612 188.607 155.713C198.109 180.999 231.161 179.949 257.5 173.519V178.894H183.799V125.933H211.363Z" fill="#C0E7F2"/>
<path d="M237.042 159.246C238.106 150.945 250.695 152.897 249.222 161.14C251.97 161.061 254.388 163.302 254.388 166.203C254.388 170.71 248.946 172.939 245.771 169.816C243.476 172.706 239.018 172.472 237.043 169.333C227.429 173.272 227.088 155.175 237.042 159.246Z" fill="white"/>
<path d="M192.617 136.561C191.382 130.951 199.26 128.417 201.626 133.532C202.864 130.022 207.771 129.775 209.336 133.185C212.888 131.186 217.367 133.52 217.721 137.61C222.826 137.61 222.791 145.256 217.734 145.256C217.847 149.09 213.365 150.796 210.871 148.266C210.159 148.946 209.198 149.368 208.135 149.368C207.624 149.368 202.925 154.222 197.613 150.413C193.488 155.822 185.203 149.176 189.87 143.996C187.213 141.369 188.91 136.825 192.617 136.561Z" fill="white"/>
<path d="M186.131 111.41C184.653 111.41 185.113 120.381 185.113 30.5955C186.591 30.5953 186.131 21.6243 186.131 111.41Z" fill="#6D6E71"/>
<path d="M184.22 110.892C184.22 112.75 187.024 112.75 187.024 110.892C187.024 109.043 184.22 109.039 184.22 110.892Z" fill="#6D6E71"/>
<path d="M186.706 111.41C185.228 111.41 185.686 120.381 185.686 30.5955C187.166 30.5953 186.706 21.6243 186.706 111.41Z" fill="#6D6E71"/>
<path d="M184.795 110.892C184.795 112.75 187.599 112.75 187.599 110.892C187.598 109.041 184.795 109.039 184.795 110.892Z" fill="#6D6E71"/>
<path d="M253.381 31.3459H260.244V119.829C169.436 119.829 181.055 121.323 181.055 116.139C256.64 124.534 259.093 107.766 253.381 31.3459Z" fill="#FED6A7"/>
<path d="M265.961 28.6824H175.338V35.1835H265.961V28.6824Z" fill="#6D6E71"/>
<path d="M265.961 26.7713H175.338V33.2702H265.961V26.7713Z" fill="#6D6E71"/>
<path d="M252.548 30.9859C268.623 29.7815 265.961 27.612 265.961 33.2704C161.966 33.2704 175.338 34.5515 175.338 30.0995C191.369 31.2196 238.899 32.0143 252.548 30.9859Z" fill="#6D6E71"/>
<path d="M277.203 190.175H165.93V208.54H277.203V190.175Z" fill="#58595B"/>
<path d="M277.203 197.656V208.54H165.93V197.371C195.331 205.909 250.177 208.036 277.203 197.656Z" fill="#BCBEC0"/>
<path d="M370.916 24.8029H270.655V204.737H370.916V24.8029Z" fill="#585B5C"/>
<path d="M342.546 200.509C322.262 201.71 303.077 197.976 287.193 185.434C269.69 171.618 271.691 153.559 272.246 131.737C272.788 110.376 274.519 44.7575 278.207 23.859H270.655V203.795H370.916C370.916 185.615 375.353 198.554 342.546 200.509Z" fill="#E6E7E8"/>
<path d="M364.183 29.2549H279.222V183.591H364.183V29.2549Z" fill="white"/>
<path d="M361.296 31.3459H282.107V119.829H361.296V31.3459Z" fill="#FEC782"/>
<path d="M361.296 32.4413C361.296 30.7485 367.663 31.3459 282.108 31.3459C282.108 33.0407 275.741 32.4413 361.296 32.4413Z" fill="#D9A66A"/>
<path d="M361.296 43.9265C361.296 42.2339 367.663 42.8313 282.108 42.8313C282.108 44.5239 275.741 43.9265 361.296 43.9265Z" fill="#D9A66A"/>
<path d="M361.296 46.5269C361.296 44.8342 367.663 45.4316 282.108 45.4316C282.108 47.1243 275.741 46.5269 361.296 46.5269Z" fill="#D9A66A"/>
<path d="M361.296 49.1272C361.296 47.4633 367.839 48.0318 282.108 48.0318C282.108 49.6959 275.566 49.1272 361.296 49.1272Z" fill="#D9A66A"/>
<path d="M361.296 51.7277C361.296 50.0349 367.663 50.6323 282.108 50.6323C282.108 52.3268 275.741 51.7277 361.296 51.7277Z" fill="#D9A66A"/>
<path d="M361.296 58.3796C361.296 56.6871 367.663 57.2843 282.108 57.2843C282.108 58.9792 275.741 58.3796 361.296 58.3796Z" fill="#D9A66A"/>
<path d="M361.296 61.7691C361.296 60.1854 370.097 60.6757 282.108 60.6757C282.108 62.2611 273.307 61.7691 361.296 61.7691Z" fill="#D9A66A"/>
<path d="M361.296 65.1601C361.296 63.4675 367.663 64.0649 282.108 64.0649C282.108 65.7577 275.741 65.1601 361.296 65.1601Z" fill="#D9A66A"/>
<path d="M361.296 68.5495C361.296 66.8568 367.663 67.4542 282.108 67.4542C282.108 69.1469 275.741 68.5495 361.296 68.5495Z" fill="#D9A66A"/>
<path d="M361.296 77.2448C361.296 75.5523 367.663 76.1495 282.108 76.1495C282.108 77.8422 275.741 77.2448 361.296 77.2448Z" fill="#D9A66A"/>
<path d="M361.296 79.7934C361.296 78.1295 367.839 78.698 282.108 78.698C282.108 80.3621 275.566 79.7934 361.296 79.7934Z" fill="#D9A66A"/>
<path d="M361.296 82.342C361.296 80.6494 367.663 81.2466 282.108 81.2466C282.108 82.9416 275.741 82.342 361.296 82.342Z" fill="#D9A66A"/>
<path d="M361.296 84.8927C361.296 83.2286 367.839 83.7956 282.108 83.7956C282.108 85.4595 275.566 84.8927 361.296 84.8927Z" fill="#D9A66A"/>
<path d="M361.296 87.4413C361.296 85.7772 367.839 86.3441 282.108 86.3441C282.108 88.01 275.566 87.4413 361.296 87.4413Z" fill="#D9A66A"/>
<path d="M361.296 100.443C361.296 98.7506 367.663 99.3478 282.108 99.3478C282.108 101.041 275.741 100.443 361.296 100.443Z" fill="#D9A66A"/>
<path d="M361.296 103.118C361.296 101.426 367.663 102.023 282.108 102.023C282.108 103.717 275.741 103.118 361.296 103.118Z" fill="#D9A66A"/>
<path d="M361.296 105.669C361.296 103.976 367.663 104.573 282.108 104.573C282.108 106.266 275.741 105.669 361.296 105.669Z" fill="#D9A66A"/>
<path d="M361.296 108.217C361.296 106.525 367.663 107.122 282.108 107.122C282.108 108.815 275.741 108.217 361.296 108.217Z" fill="#D9A66A"/>
<path d="M361.296 110.766C361.296 109.102 367.839 109.671 282.108 109.671C282.108 111.335 275.566 110.766 361.296 110.766Z" fill="#D9A66A"/>
<path d="M361.296 113.317C361.296 111.651 367.839 112.219 282.108 112.219C282.108 113.885 275.566 113.317 361.296 113.317Z" fill="#D9A66A"/>
<path d="M361.296 115.865C361.296 114.173 367.663 114.77 282.108 114.77C282.108 116.463 275.741 115.865 361.296 115.865Z" fill="#D9A66A"/>
<path d="M361.296 118.414C361.296 116.721 367.663 117.318 282.108 117.318C282.108 119.013 275.741 118.414 361.296 118.414Z" fill="#D9A66A"/>
<path d="M361.296 89.9901C361.296 88.2975 367.663 88.8947 282.108 88.8947C282.108 90.5892 275.741 89.9901 361.296 89.9901Z" fill="#D9A66A"/>
<path d="M361.296 35.4552C361.296 33.079 370.093 33.8122 282.108 33.8122C282.108 36.1906 273.311 35.4552 361.296 35.4552Z" fill="#D9A66A"/>
<path d="M361.296 38.3697C361.296 35.9933 370.093 36.7267 282.108 36.7267C282.108 39.1029 273.311 38.3697 361.296 38.3697Z" fill="#D9A66A"/>
<path d="M361.296 41.2822C361.296 38.9137 370.16 39.6372 282.108 39.6372C282.108 42.006 273.244 41.2822 361.296 41.2822Z" fill="#D9A66A"/>
<path d="M361.296 56.2141C361.296 53.8359 370.093 54.5712 282.108 54.5712C282.108 56.9474 273.311 56.2141 361.296 56.2141Z" fill="#D9A66A"/>
<path d="M361.296 93.6933C361.296 89.7487 372.609 90.9205 282.108 90.9205C282.108 94.8671 270.795 93.6933 361.296 93.6933Z" fill="#D9A66A"/>
<path d="M361.296 98.0266C361.296 94.082 372.609 95.254 282.108 95.254C282.108 99.2004 270.795 98.0266 361.296 98.0266Z" fill="#D9A66A"/>
<path d="M361.296 71.6362C361.296 69.2696 370.16 69.9931 282.108 69.9931C282.108 72.3619 273.244 71.6362 361.296 71.6362Z" fill="#D9A66A"/>
<path d="M361.296 74.4396C361.296 72.0634 370.093 72.7966 282.108 72.7966C282.108 75.1748 273.311 74.4396 361.296 74.4396Z" fill="#D9A66A"/>
<path d="M361.746 123.64H281.659V181.188H361.746V123.64Z" fill="#A7A9AC"/>
<path d="M358.554 125.933H284.852V178.894H358.554V125.933Z" fill="#99DAF0"/>
<path d="M330.988 125.933C348.895 128.538 360.157 138.642 353.744 155.713C344.248 180.999 311.19 179.949 284.852 173.519V178.894H358.554V125.933H330.988Z" fill="#C0E7F2"/>
<path d="M342.793 155.215C341.826 155.215 340.905 155.407 340.06 155.752C338.651 144.745 321.919 147.34 323.905 158.262C319.865 158.262 317.052 161.414 317.052 164.979C317.052 170.934 324.259 173.922 328.483 169.772C331.53 173.612 337.449 173.286 340.057 169.135C350.757 173.514 354.355 155.215 342.793 155.215Z" fill="white"/>
<path d="M299.15 135.163C298.981 129.352 307.857 129.321 307.724 135.146C309.528 134.77 311.502 136.036 311.824 138.066C312.308 141.147 308.818 143.29 306.294 141.48C305.022 143.726 301.934 144.031 300.243 142.097C294.066 145.844 291.867 133.453 299.15 135.163Z" fill="white"/>
<path d="M356.22 111.41C357.698 111.41 357.24 120.381 357.24 30.5955C355.76 30.5953 356.22 21.6243 356.22 111.41Z" fill="#6D6E71"/>
<path d="M358.131 110.892C358.131 112.75 355.327 112.75 355.327 110.892C355.327 109.041 358.131 109.039 358.131 110.892Z" fill="#6D6E71"/>
<path d="M355.647 111.41C357.125 111.41 356.666 120.381 356.666 30.5955C355.188 30.5953 355.647 21.6243 355.647 111.41Z" fill="#6D6E71"/>
<path d="M357.558 110.892C357.558 112.75 354.755 112.75 354.755 110.892C354.755 109.041 357.558 109.039 357.558 110.892Z" fill="#6D6E71"/>
<path d="M288.972 31.3459H282.107V119.829C372.915 119.829 361.296 121.323 361.296 116.139C285.993 124.503 283.23 108.179 288.972 31.3459Z" fill="#FED6A7"/>
<path d="M367.016 28.6824H276.39V35.1835H367.016V28.6824Z" fill="#6D6E71"/>
<path d="M367.016 26.7713H276.39V33.2702H367.016V26.7713Z" fill="#6D6E71"/>
<path d="M289.805 30.9859C273.73 29.7815 276.39 27.612 276.39 33.2704C380.385 33.2704 367.016 34.5515 367.016 30.0995C350.983 31.2196 303.454 32.0143 289.805 30.9859Z" fill="#6D6E71"/>
<path d="M376.421 190.175H265.148V208.54H376.421V190.175Z" fill="#58595B"/>
<path d="M265.148 197.656V208.54H376.421V197.371C347.021 205.907 292.174 208.036 265.148 197.656Z" fill="#BCBEC0"/>
<path d="M354.295 286.491C355.456 287.179 356.905 286.497 357.256 287.016C357.918 288 357.43 286.034 361.294 287.912C361.713 288.119 363.509 284.931 363.709 284.23C364.009 283.161 363.138 282.93 363.147 281.518C363.898 279.452 364.011 278.014 362.586 276.521C356.591 270.242 357.091 274.916 354.814 276.387C352.539 277.89 351.116 280.484 352.507 282.997C353.719 285.187 353.533 286.039 354.295 286.491Z" fill="#D1D3D4"/>
<path d="M354.295 286.491C355.456 287.179 356.906 286.497 357.256 287.016C357.919 288 357.43 286.034 361.294 287.912C361.794 288.159 361.742 287.523 362.43 286.478C363.017 285.89 362.623 286.38 360.329 286.595C355.473 287.066 352.752 282.714 353.681 279.567C354.502 276.776 357.928 273.984 359.286 273.475C356.739 272.542 356.224 275.477 354.814 276.387C352.54 277.89 351.117 280.485 352.507 282.997C353.719 285.187 353.533 286.039 354.295 286.491Z" fill="#D1D3D4"/>
<path d="M366.322 289.615C367.624 289.291 368.189 287.784 368.796 287.905C369.959 288.13 368.23 287.079 372.295 285.699C372.737 285.547 371.763 282.001 371.42 281.385C370.88 280.408 370.099 280.866 369.112 279.849C368.195 277.865 367.266 276.753 365.196 276.697C356.591 276.435 360.132 279.475 359.582 282.072C359.063 284.55 359.707 287.547 362.594 288.391C364.984 289.092 365.472 289.827 366.322 289.615Z" fill="#D1D3D4"/>
<path d="M366.322 289.615C367.625 289.291 368.189 287.784 368.797 287.905C369.959 288.13 368.23 287.079 372.295 285.699C372.82 285.519 372.343 285.115 372.092 283.878C372.1 283.052 372.178 283.648 370.684 285.442C367.569 289.188 362.571 288.022 361.013 285.126C359.632 282.56 360.097 278.17 360.708 276.856C358.274 277.961 359.927 280.443 359.582 282.072C359.063 284.55 359.707 287.547 362.594 288.391C364.984 289.092 365.472 289.827 366.322 289.615Z" fill="#D1D3D4"/>
<path d="M364.392 282.679C364.649 284.002 366.121 284.638 365.968 285.241C365.673 286.384 366.82 284.718 367.983 288.852C368.111 289.314 371.732 288.502 372.339 288.207C373.335 287.724 372.936 286.907 373.993 285.988C376.034 285.17 377.181 284.302 377.354 282.244C378.049 273.658 374.87 277.041 372.283 276.35C369.737 275.672 366.792 276.237 365.813 279.019C364.976 281.4 364.224 281.817 364.392 282.679Z" fill="#D1D3D4"/>
<path d="M364.392 282.679C364.649 284.002 366.121 284.638 365.968 285.241C365.673 286.384 366.82 284.718 367.983 288.852C368.132 289.389 368.567 288.931 369.811 288.747C370.631 288.797 370.024 288.833 368.325 287.257C364.746 283.939 366.188 279.016 369.156 277.616C371.799 276.373 376.168 277.082 377.432 277.754C376.463 275.268 373.89 276.779 372.283 276.35C369.736 275.672 366.791 276.237 365.813 279.019C364.976 281.4 364.224 281.817 364.392 282.679Z" fill="#D1D3D4"/>
<path d="M355.279 279.833C354.667 278.646 353.072 278.426 353.05 277.815C353.006 276.626 352.371 278.56 350.107 274.909C349.855 274.503 346.624 276.278 346.103 276.741C345.274 277.497 345.9 278.148 345.134 279.338C343.34 280.728 342.551 281.898 342.953 283.866C344.663 292.263 346.827 288.188 349.466 288.113C352.196 288.05 354.777 286.598 354.934 283.744C355.075 281.254 355.68 280.613 355.279 279.833Z" fill="#D1D3D4"/>
<path d="M355.279 279.833C354.667 278.646 353.071 278.426 353.05 277.815C353.006 276.626 352.37 278.56 350.107 274.909C349.81 274.432 349.546 274.987 348.382 275.519C347.556 275.701 348.142 275.489 350.224 276.536C354.594 278.729 354.571 283.859 352.116 286.026C349.929 287.954 345.538 288.494 344.129 288.203C345.764 290.323 347.781 288.161 349.466 288.113C352.196 288.05 354.777 286.598 354.934 283.744C355.074 281.254 355.68 280.613 355.279 279.833Z" fill="#D1D3D4"/>
<mask id="mask0_37_589" style="mask-type:luminance" maskUnits="userSpaceOnUse" x="342" y="287" width="35" height="36">
<path d="M359.393 322.925H346.458L342.325 287.049H376.461L372.331 322.925H359.393Z" fill="white"/>
</mask>
<g mask="url(#mask0_37_589)">
<path d="M359.393 322.925H346.458L342.325 287.049H376.461L372.331 322.925H359.393Z" fill="#9DA5B8"/>
<path d="M344.855 295.815C342.211 292.546 342.211 293.923 344.855 290.509C347.555 293.923 347.555 292.548 344.855 295.815Z" fill="white"/>
<path d="M350.653 295.815C348.007 292.548 348.007 293.923 350.653 290.509C353.353 293.923 353.353 292.548 350.653 295.815Z" fill="white"/>
<path d="M356.451 295.815C353.805 292.548 353.805 293.923 356.451 290.509C359.151 293.923 359.153 292.546 356.451 295.815Z" fill="white"/>
<path d="M362.25 295.815C359.603 292.546 359.605 293.923 362.25 290.509C364.949 293.923 364.949 292.546 362.25 295.815Z" fill="white"/>
<path d="M368.048 295.815C365.401 292.546 365.403 293.923 368.048 290.509C370.746 293.923 370.746 292.548 368.048 295.815Z" fill="white"/>
<path d="M373.846 295.815C371.199 292.546 371.201 293.923 373.846 290.509C376.544 293.923 376.544 292.548 373.846 295.815Z" fill="white"/>
<path d="M342.72 299.826C340.142 296.642 340.142 297.982 342.72 294.656C345.351 297.982 345.353 296.64 342.72 299.826Z" fill="white"/>
<path d="M348.369 299.826C345.79 296.642 345.791 297.982 348.369 294.656C351.002 297.982 351.002 296.64 348.369 299.826Z" fill="white"/>
<path d="M354.02 299.826C351.44 296.642 351.44 297.982 354.02 294.656C356.649 297.982 356.649 296.642 354.02 299.826Z" fill="white"/>
<path d="M359.668 299.826C357.089 296.642 357.091 297.982 359.668 294.656C362.298 297.982 362.298 296.642 359.668 299.826Z" fill="white"/>
<path d="M365.319 299.826C362.738 296.642 362.738 297.982 365.319 294.656C367.948 297.982 367.948 296.642 365.319 299.826Z" fill="white"/>
<path d="M370.968 299.826C368.389 296.642 368.389 297.982 370.968 294.656C373.597 297.982 373.597 296.642 370.968 299.826Z" fill="white"/>
<path d="M376.025 299.826C373.446 296.642 373.448 297.982 376.025 294.656C378.656 297.982 378.656 296.642 376.025 299.826Z" fill="white"/>
<path d="M344.855 304.445C342.211 301.176 342.211 302.551 344.855 299.139C347.555 302.551 347.555 301.176 344.855 304.445Z" fill="white"/>
<path d="M350.653 304.445C348.007 301.176 348.007 302.551 350.653 299.139C353.353 302.551 353.353 301.176 350.653 304.445Z" fill="white"/>
<path d="M356.451 304.445C353.805 301.176 353.805 302.551 356.451 299.139C359.151 302.551 359.153 301.176 356.451 304.445Z" fill="white"/>
<path d="M362.25 304.445C359.603 301.176 359.603 302.551 362.25 299.139C364.949 302.551 364.949 301.176 362.25 304.445Z" fill="white"/>
<path d="M368.048 304.445C365.401 301.176 365.401 302.551 368.048 299.139C370.746 302.551 370.746 301.176 368.048 304.445Z" fill="white"/>
<path d="M373.846 304.445C371.199 301.176 371.199 302.551 373.846 299.139C376.544 302.551 376.544 301.176 373.846 304.445Z" fill="white"/>
<path d="M342.72 308.457C340.142 305.27 340.142 306.611 342.72 303.285C345.351 306.613 345.351 305.27 342.72 308.457Z" fill="white"/>
<path d="M348.369 308.457C345.79 305.27 345.79 306.611 348.369 303.285C351.002 306.613 351.002 305.27 348.369 308.457Z" fill="white"/>
<path d="M354.02 308.457C351.44 305.27 351.44 306.611 354.02 303.285C356.649 306.611 356.651 305.27 354.02 308.457Z" fill="white"/>
<path d="M359.668 308.457C357.089 305.27 357.089 306.611 359.668 303.285C362.297 306.611 362.299 305.27 359.668 308.457Z" fill="white"/>
<path d="M365.319 308.457C362.738 305.27 362.738 306.613 365.319 303.285C367.946 306.611 367.948 305.27 365.319 308.457Z" fill="white"/>
<path d="M370.968 308.457C368.389 305.27 368.389 306.611 370.968 303.285C373.597 306.611 373.599 305.27 370.968 308.457Z" fill="white"/>
<path d="M376.025 308.457C373.446 305.27 373.446 306.611 376.025 303.285C378.654 306.611 378.656 305.27 376.025 308.457Z" fill="white"/>
<path d="M344.855 312.535C342.211 309.265 342.211 310.641 344.855 307.227C347.555 310.639 347.557 309.263 344.855 312.535Z" fill="white"/>
<path d="M350.653 312.535C348.007 309.265 348.007 310.641 350.653 307.227C353.353 310.639 353.355 309.263 350.653 312.535Z" fill="white"/>
<path d="M356.451 312.535C353.805 309.265 353.805 310.641 356.451 307.227C359.151 310.639 359.153 309.265 356.451 312.535Z" fill="white"/>
<path d="M362.25 312.535C359.603 309.265 359.603 310.641 362.25 307.227C364.947 310.639 364.949 309.265 362.25 312.535Z" fill="white"/>
<path d="M368.048 312.535C365.401 309.265 365.401 310.641 368.048 307.227C370.746 310.639 370.748 309.263 368.048 312.535Z" fill="white"/>
<path d="M373.846 312.535C371.199 309.265 371.199 310.641 373.846 307.227C376.544 310.639 376.546 309.263 373.846 312.535Z" fill="white"/>
<path d="M342.72 316.547C340.142 313.362 340.142 314.703 342.72 311.377C345.351 314.703 345.353 313.361 342.72 316.547Z" fill="white"/>
<path d="M348.369 316.547C345.79 313.362 345.791 314.703 348.369 311.377C351.002 314.703 351.002 313.361 348.369 316.547Z" fill="white"/>
<path d="M354.02 316.547C351.44 313.362 351.44 314.703 354.02 311.377C356.649 314.703 356.649 313.362 354.02 316.547Z" fill="white"/>
<path d="M359.668 316.547C357.089 313.362 357.091 314.703 359.668 311.377C362.298 314.703 362.298 313.362 359.668 316.547Z" fill="white"/>
<path d="M365.319 316.547C362.738 313.362 362.738 314.703 365.319 311.377C367.948 314.703 367.948 313.362 365.319 316.547Z" fill="white"/>
<path d="M370.968 316.547C368.389 313.362 368.389 314.703 370.968 311.377C373.597 314.703 373.597 313.362 370.968 316.547Z" fill="white"/>
<path d="M376.025 316.547C373.446 313.362 373.448 314.703 376.025 311.377C378.656 314.703 378.656 313.362 376.025 316.547Z" fill="white"/>
<path d="M344.855 320.625C342.211 317.357 342.211 318.732 344.855 315.319C347.555 318.732 347.557 317.355 344.855 320.625Z" fill="white"/>
<path d="M350.653 320.625C348.007 317.357 348.007 318.732 350.653 315.319C353.353 318.732 353.355 317.355 350.653 320.625Z" fill="white"/>
<path d="M356.451 320.625C353.805 317.357 353.805 318.732 356.451 315.319C359.151 318.732 359.153 317.355 356.451 320.625Z" fill="white"/>
<path d="M362.25 320.625C359.603 317.357 359.603 318.732 362.25 315.319C364.947 318.732 364.949 317.355 362.25 320.625Z" fill="white"/>
<path d="M368.048 320.625C365.401 317.357 365.401 318.732 368.048 315.319C370.746 318.732 370.748 317.355 368.048 320.625Z" fill="white"/>
<path d="M373.846 320.625C371.199 317.357 371.199 318.732 373.846 315.319C376.544 318.732 376.546 317.355 373.846 320.625Z" fill="white"/>
<path d="M342.72 324.635C340.142 321.453 340.142 322.793 342.72 319.465C345.351 322.793 345.353 321.451 342.72 324.635Z" fill="white"/>
<path d="M348.369 324.635C345.79 321.451 345.791 322.791 348.369 319.465C351.002 322.793 351.002 321.451 348.369 324.635Z" fill="white"/>
<path d="M354.02 324.635C351.44 321.451 351.44 322.791 354.02 319.465C356.649 322.791 356.649 321.453 354.02 324.635Z" fill="white"/>
<path d="M359.668 324.635C357.089 321.451 357.091 322.791 359.668 319.465C362.298 322.793 362.298 321.453 359.668 324.635Z" fill="white"/>
<path d="M365.319 324.635C362.738 321.451 362.738 322.793 365.319 319.465C367.948 322.793 367.948 321.453 365.319 324.635Z" fill="white"/>
<path d="M370.968 324.635C368.389 321.451 368.389 322.791 370.968 319.465C373.597 322.791 373.597 321.453 370.968 324.635Z" fill="white"/>
<path d="M376.025 324.635C373.446 321.451 373.448 322.791 376.025 319.465C378.656 322.791 378.656 321.453 376.025 324.635Z" fill="white"/>
<path d="M346.795 325.861C344.353 322.772 345.428 322.668 342.956 325.861H346.795Z" fill="white"/>
<path d="M352.593 325.861C350.15 322.772 351.226 322.67 348.754 325.861H352.593Z" fill="white"/>
<path d="M358.391 325.861C355.95 322.772 357.024 322.668 354.55 325.861H358.391Z" fill="white"/>
<path d="M364.189 325.861C361.746 322.772 362.822 322.668 360.35 325.861H364.189Z" fill="white"/>
<path d="M369.987 325.861C367.544 322.772 368.62 322.668 366.146 325.861H369.987Z" fill="white"/>
<path d="M375.786 325.861C373.342 322.772 374.418 322.668 371.944 325.861H375.786Z" fill="white"/>
</g>
<path d="M372.913 323.578C363.398 323.578 355.383 323.578 345.876 323.578L341.594 286.397H377.195L372.913 323.578ZM371.749 322.272L375.73 287.702H343.057L347.038 322.272C355.283 322.272 363.508 322.272 371.749 322.272Z" fill="#9DA5B8"/>
<path d="M342.325 287.049C343.995 301.536 340.694 290.04 358.238 294.36C374.611 298.394 376.433 319.785 356.07 320.861C344.884 321.458 345.609 315.566 346.458 322.925H372.331L376.461 287.049L342.325 287.049Z" fill="#9DA5B8"/>
<path d="M377.67 285.419C338.398 285.419 340.139 285 340.139 286.397C340.139 291.003 342.391 292.812 344.598 292.812C374.066 292.812 378.648 294.683 378.648 287.386C378.648 286.633 378.805 285.419 377.67 285.419Z" fill="#585B5C"/>
<path d="M340.146 287.567C340.227 290.474 342.191 292.812 344.598 292.812C375.585 292.812 377.428 294.235 378.524 288.64C366.03 292.565 352.779 291.217 340.146 287.567Z" fill="#585B5C"/>
<path d="M83.9363 112.214L65.2743 80.6551L86.2495 60.8136C84.7961 59.2146 88.4974 56.557 63.0969 80.6551C85.2347 118.094 81.7169 113.621 83.9363 112.214Z" stroke="#A7A9AC" stroke-width="5.5465" stroke-miterlimit="10"/>
<path d="M86.3913 109.862C83.9345 105.395 77.5255 105.387 75.0669 109.86C72.6197 111.151 70.6609 113.248 69.5579 115.802H91.8984C90.7956 113.248 88.8385 111.151 86.3913 109.862Z" fill="#293D98"/>
<path d="M68.5544 80.6897C68.5544 85.5495 61.1975 85.5591 61.1975 80.6897C61.1975 75.8201 68.5544 75.8221 68.5544 80.6897Z" fill="#293D98"/>
<path d="M67.4074 80.6897C67.4074 84.0349 62.3464 84.0387 62.3464 80.6897C62.3464 77.3405 67.4074 77.3425 67.4074 80.6897Z" fill="#0073BD"/>
<path d="M86.665 114.025C80.6026 115.785 73.374 114.521 71.0972 113.2C68.2384 116.888 67.413 115.802 91.8981 115.802C89.9951 111.394 89.8685 113.098 86.665 114.025Z" fill="#9B9DA0"/>
<path d="M99.8431 66.2651C102.078 73.4936 91.1497 76.8848 88.9093 69.6467C86.6728 62.4181 97.6048 59.0289 99.8431 66.2651Z" fill="#FCD767"/>
<path d="M87.6398 56.0073C81.6196 55.6703 77.5984 62.0984 80.5433 67.3681C79.2394 73.3042 84.62 78.1449 87.1974 79.2076L101.197 56.7924C98.4279 55.3964 92.7391 51.8827 87.6398 56.0073Z" fill="#293D98"/>
<path d="M102.853 57.8245C86.7495 83.6213 89.5221 80.659 87.1975 79.2076C103.301 53.4108 100.529 56.3748 102.853 57.8245Z" fill="#0073BD"/>
<path d="M85.2692 78.0454C84.2256 68.8082 88.6776 59.2685 95.6534 54.4164C93.1582 53.7826 90.3186 53.8418 87.6398 56.0075C81.6196 55.6705 77.5984 62.0986 80.5433 67.3683C79.5171 72.0443 82.6383 76.0406 85.2692 78.0454Z" fill="#9B9DA0"/>
<path opacity="0.5" d="M97.455 64.1646L201.406 86.7902L135.509 142.912L92.3213 71.0024L97.455 64.1646Z" fill="url(#paint0_linear_37_589)"/>
<path d="M139.473 115.865H48.6152V310.412H139.473V115.865Z" fill="#C49A6C"/>
<path d="M139.473 115.865V129.378C77.8031 108.355 53.0423 132.984 52.6956 188.108C52.3625 240.29 64.1293 284.854 108.705 310.412H48.6152V115.865H139.473Z" fill="#C49A6C"/>
<path d="M135.224 121.075H52.8643V168.851H135.224V121.075Z" fill="#8B5E3C"/>
<path d="M135.224 181.192H52.8643V228.965H135.224V181.192Z" fill="#8B5E3C"/>
<path d="M135.224 241.307H52.8643V289.08H135.224V241.307Z" fill="#8B5E3C"/>
<path d="M135.224 291.849H52.8643V308.508H135.224V291.849Z" fill="#754C29"/>
<path d="M135.224 121.075C135.224 127.724 135.923 126.462 133.123 126.021C130.894 125.671 82.3492 121.188 68.411 128.681C59.8631 133.273 57.3394 142.374 59.6084 147.878C66.8638 165.477 104.134 161.37 135.224 161.691V168.851H52.8643V121.075H135.224Z" fill="#8B5E3C"/>
<path d="M135.224 181.192C135.224 191.096 142.353 183.042 90.5886 188.218C52.1596 192.082 55.1161 211.914 60.2191 217.318C66.831 224.326 93.2482 224.651 111.97 224.906C139.697 225.279 135.224 221.796 135.224 228.965H52.8643V181.192H135.224Z" fill="#8B5E3C"/>
<path d="M135.224 241.307C135.224 246.756 140.323 243.13 91.749 245.374C81.338 245.853 67.6583 247.195 61.7472 255.863C56.3435 263.785 58.6183 276.816 74.4062 281.754C84.618 284.954 100.417 284.736 111.409 284.554C139.974 284.079 135.224 281.877 135.224 289.08H52.8643V241.307H135.224Z" fill="#8B5E3C"/>
<path d="M100.862 305.646C110.763 304.19 125.908 301.477 135.224 297.793V308.508H52.8643C52.8643 294.769 50.9246 312.962 100.862 305.646Z" fill="#8B5E3C"/>
<path d="M66.5342 132.704H57.0596V168.851H66.5342V132.704Z" fill="#8DC63F"/>
<path d="M64.3857 132.704H59.208V165.626H64.3857V132.704Z" fill="white"/>
<path d="M63.754 132.704C63.754 170.584 63.6276 166.921 64.047 166.921C64.047 129.041 64.1733 132.704 63.754 132.704Z" fill="#BCBEC0"/>
<path d="M62.7256 132.704C62.7256 170.584 62.5993 166.921 63.0186 166.921C63.0186 129.041 63.145 132.704 62.7256 132.704Z" fill="#BCBEC0"/>
<path d="M61.6976 132.704C61.6976 170.584 61.5712 166.921 61.9906 166.921C61.9904 129.041 62.1167 132.704 61.6976 132.704Z" fill="#BCBEC0"/>
<path d="M60.6671 132.704C60.6671 170.584 60.5388 166.921 60.9601 166.921C60.9601 129.041 61.0884 132.704 60.6671 132.704Z" fill="#BCBEC0"/>
<path d="M59.639 132.704C59.639 170.584 59.5126 166.921 59.932 166.921C59.932 129.041 60.0583 132.704 59.639 132.704Z" fill="#BCBEC0"/>
<path d="M64.386 132.704C67.3979 132.704 66.5344 127.303 66.5344 168.851H57.0596V132.704C60.0868 132.704 59.208 127.896 59.208 165.626H64.3858V132.704H64.386Z" fill="#F2676D"/>
<path d="M66.2395 133.415L73.3951 168.843L82.6841 166.969L75.5283 131.538L66.2395 133.415Z" fill="#8DC63F"/>
<path d="M68.3457 132.99L73.422 131.965L79.9382 164.234L74.8638 165.259L68.3457 132.99Z" fill="white"/>
<path d="M72.8035 132.09C80.3 169.219 79.4499 165.651 79.8616 165.569C72.3649 128.44 73.2132 132.005 72.8035 132.09Z" fill="#BCBEC0"/>
<path d="M71.7942 132.293C79.2908 169.423 78.4426 165.856 78.8543 165.774C71.3558 128.643 72.2059 132.21 71.7942 132.293Z" fill="#BCBEC0"/>
<path d="M70.7852 132.496C78.2837 169.626 77.4336 166.061 77.8453 165.977C70.5458 129.825 71.2314 132.408 70.7852 132.496Z" fill="#BCBEC0"/>
<path d="M69.7781 132.701C77.2746 169.83 76.4263 166.264 76.8362 166.18C69.3395 129.051 70.1878 132.618 69.7781 132.701Z" fill="#BCBEC0"/>
<path d="M68.769 132.904C76.2656 170.034 75.4173 166.467 75.829 166.385C68.3304 129.254 69.1788 132.821 68.769 132.904Z" fill="#BCBEC0"/>
<path d="M73.422 131.965C76.3746 131.368 74.4598 126.244 82.684 166.969L73.3951 168.843L66.2393 133.415C69.2131 132.813 67.3997 128.304 74.8638 165.259L79.9382 164.234L73.422 131.965Z" fill="#356C99"/>
<path d="M118.93 186.824C128.208 186.824 128.455 186.6 128.455 187.364C128.455 231.432 128.704 228.966 127.915 228.966C118.637 228.966 118.39 229.19 118.39 228.426C118.39 184.524 118.126 186.824 118.93 186.824Z" fill="#EEBC3B"/>
<path d="M118.93 186.824C122.22 186.824 121.737 186.429 121.291 188.296C116.613 207.883 121.211 223.416 125.23 228.965C118.611 228.965 118.39 229.164 118.39 228.425C118.39 184.524 118.126 186.824 118.93 186.824Z" fill="#EEBC3B"/>
<path d="M126.926 189.654H119.918V195.942H126.926V189.654Z" fill="white"/>
<path d="M107.968 186.824C117.245 186.824 117.492 186.6 117.492 187.364C117.492 231.432 117.741 228.966 116.952 228.966C107.675 228.966 107.43 229.19 107.43 228.426C107.43 184.534 107.166 186.824 107.968 186.824Z" fill="#EEBC3B"/>
<path d="M107.968 186.824C111.254 186.824 110.779 186.429 110.329 188.296C105.406 208.909 110.858 224.263 114.268 228.965C107.65 228.965 107.43 229.164 107.43 228.425C107.43 184.534 107.166 186.824 107.968 186.824Z" fill="#EEBC3B"/>
<path d="M115.964 189.654H108.956V195.942H115.964V189.654Z" fill="white"/>
<path d="M82.6383 193.932C93.057 228.621 92.5993 226.325 91.9117 226.534C83.2223 229.142 83.161 229.373 82.9597 228.701L73.353 196.722L82.6383 193.932Z" fill="white"/>
<path d="M78.9751 195.033C80.5838 232.006 98.1504 224.659 83.5784 229.034C82.8853 229.245 83.657 231.022 73.3533 196.721L78.9751 195.033Z" fill="#BCBEC0"/>
<path d="M73.5428 195.627C75.3829 195.073 73.7515 191.714 84.2773 226.749L89.9893 225.033L80.5262 193.528C81.7307 193.166 82.3127 192.85 82.4947 193.457C92.9555 228.28 92.6051 226.324 91.9118 226.534C83.2224 229.142 83.1611 229.374 82.9599 228.702C72.4991 193.878 72.8495 195.835 73.5428 195.627Z" fill="#71566F"/>
<path d="M73.5428 195.626C74.5709 195.316 73.1771 191.818 84.1032 228.184L91.0063 226.112L81.162 193.338C81.5487 193.221 82.309 192.833 82.4947 193.457C92.9555 228.28 92.6051 226.323 91.9118 226.534C83.2224 229.142 83.1611 229.373 82.9599 228.701C72.4991 193.878 72.8495 195.835 73.5428 195.626Z" fill="#71566F"/>
<path d="M72.4723 193.932C82.8928 228.623 82.4333 226.323 81.7459 226.534C73.0563 229.142 72.9932 229.373 72.794 228.701L63.1873 196.722L72.4723 193.932Z" fill="white"/>
<path d="M68.8071 195.033C70.4309 232.1 88.0017 224.653 73.4124 229.034C72.7193 229.247 73.491 231.022 63.187 196.721L68.8071 195.033Z" fill="#BCBEC0"/>
<path d="M63.3767 195.626C65.2035 195.077 63.597 191.75 74.1095 226.748L79.8252 225.032L70.3602 193.527C71.5666 193.166 72.1467 192.852 72.3287 193.457C82.7896 228.282 82.439 226.321 81.7459 226.534C73.0563 229.142 72.9933 229.373 72.794 228.701C62.3523 193.947 62.6797 195.831 63.3767 195.626Z" fill="#526D75"/>
<path d="M63.3767 195.626C64.4068 195.318 63.011 191.818 73.9351 228.184L80.8402 226.112L70.9941 193.338C71.3848 193.219 72.1412 192.832 72.3287 193.457C82.7896 228.282 82.439 226.321 81.7459 226.534C73.0563 229.141 72.9933 229.373 72.794 228.701C62.3523 193.947 62.6797 195.831 63.3767 195.626Z" fill="#526D75"/>
<path d="M62.3138 193.97C72.7268 228.636 72.2749 226.363 71.5875 226.57C62.8979 229.18 62.8366 229.412 62.6355 228.74L53.0288 196.76L62.3138 193.97Z" fill="white"/>
<path d="M58.6489 195.071C60.2286 231.133 77.2995 224.854 63.2559 229.073C62.5609 229.283 63.3326 231.06 53.0288 196.76L58.6489 195.071Z" fill="#BCBEC0"/>
<path d="M53.2183 195.665C55.0584 195.109 53.427 191.753 63.953 226.787L69.6648 225.071L60.2017 193.566C61.4062 193.204 61.9882 192.888 62.1702 193.495C72.631 228.319 72.2806 226.362 71.5875 226.571C62.8979 229.18 62.8366 229.412 62.6355 228.74C52.1844 193.953 52.5234 195.874 53.2183 195.665Z" fill="#A08BC1"/>
<path d="M53.2183 195.664C54.2486 195.354 52.8469 191.831 63.7787 228.223L70.6818 226.149L60.8357 193.376C61.2224 193.259 61.9847 192.871 62.1704 193.495C72.6312 228.318 72.2808 226.361 71.5877 226.57C62.8981 229.18 62.8368 229.412 62.6357 228.74C52.1844 193.953 52.5234 195.873 53.2183 195.664Z" fill="#A08BC1"/>
<path d="M211.533 281.269L194.805 334.341L205.015 279.642L211.533 281.269Z" fill="#00002A"/>
<path d="M233.743 272.108L217.016 325.177L227.225 270.476L233.743 272.108Z" fill="#00002A"/>
<path d="M252.768 279.642L262.978 334.341L246.252 281.269L252.768 279.642Z" fill="#00002A"/>
<path d="M259.602 263.034L269.81 317.736L253.081 264.663L259.602 263.034Z" fill="#00002A"/>
<path d="M185.22 185.127H197.156L235.913 179.241L218.429 180.064L185.22 185.127Z" fill="#0078A2"/>
<path d="M197.156 185.127H185.22L194.805 274.196H206.742L197.156 185.127Z" fill="#00B2F0"/>
<path d="M197.156 185.127L234.127 179.241L234.947 274.196H206.742L197.156 185.127Z" fill="#008DBE"/>
<path d="M253.061 282.506H203.116C198.546 282.506 194.805 278.765 194.805 274.196C194.805 269.623 198.546 265.883 203.116 265.883H253.061C257.63 265.883 261.372 269.623 261.372 274.196C261.372 278.765 257.63 282.506 253.061 282.506Z" fill="#00B2F0"/>
<path d="M232.808 239.915C261.686 245.652 292.95 252.956 299.512 257.043C305.537 260.796 295.954 270.78 295.954 270.78C295.954 270.78 239.859 268.61 230.534 268.551C225.343 268.52 227.28 238.817 232.808 239.915Z" fill="#31456D"/>
<path d="M285.393 319.471C285.338 306.756 288.786 255.168 288.786 255.168C288.786 255.168 301.65 253.651 303.259 262.485C304.099 267.099 296.123 306.681 292.94 319.888L285.393 319.471Z" fill="#31456D"/>
<path d="M216.253 241.715C244.129 251.174 271.308 264.442 277.282 269.352C282.764 273.859 271.957 282.506 271.957 282.506C271.957 282.506 223.927 272.45 215.385 268.704C200.064 261.987 210.912 239.903 216.253 241.715Z" fill="#3A507B"/>
<path d="M260.039 329.468C260.372 316.829 265.414 265.883 265.414 265.883C265.414 265.883 278.351 265.572 279.697 274.499C280.396 279.163 271.185 317.758 267.591 330.586L260.039 329.468Z" fill="#3A507B"/>
<path d="M283.337 334.429C281.47 334.159 280.886 334.416 279.017 334.112C277.171 333.809 275.358 333.162 273.684 332.331C272.029 331.51 269.625 329.833 268.203 328.698C268.022 328.554 267.842 328.436 267.66 328.326C265.132 329.495 263.685 329.415 260.979 328.271C260.72 328.162 260.554 328.003 260.461 327.823C260.381 327.885 260.312 327.958 260.248 328.039C259.815 328.593 259.736 329.359 259.635 330.03C259.445 331.282 258.857 336.486 259.114 337.719C259.478 339.461 268.964 341.538 272.08 341.734C276.27 341.992 279.47 342.169 283.607 341.499C287.644 340.844 286.498 334.894 283.337 334.429Z" fill="#374D7E"/>
<path d="M308.935 323.579C307.065 323.306 306.483 323.565 304.615 323.258C302.771 322.955 300.955 322.311 299.283 321.48C297.626 320.659 295.22 318.983 293.801 317.845C293.621 317.702 293.439 317.585 293.258 317.474C290.728 318.643 289.283 318.564 286.577 317.419C286.319 317.311 286.15 317.152 286.06 316.97C285.978 317.031 285.91 317.104 285.846 317.186C285.411 317.742 285.334 318.506 285.233 319.178C285.041 320.43 284.455 325.635 284.71 326.868C285.074 328.609 294.56 330.687 297.675 330.881C301.867 331.142 305.069 331.318 309.205 330.648C313.241 329.992 312.094 324.043 308.935 323.579Z" fill="#374D7E"/>
<path d="M285.319 202.249C277.347 186.203 273.512 186.102 267.579 179.263C258.895 169.249 242.204 162.074 241.254 170.582C240.79 174.753 274.049 203.115 279.432 208.867C281.652 207.635 282.904 204.157 285.319 202.249Z" fill="#EAB1B8"/>
<path d="M279.178 211.336C274.527 206.617 255.472 187.798 253.52 186.144C242.164 176.516 236.887 172.554 240.388 165.856C244.352 158.27 258.139 168.059 267.684 176.817C273.984 182.6 277.032 185.809 286.103 198.183C287.836 202.464 284.084 212.406 279.178 211.336Z" fill="#F0928B"/>
<path d="M313.999 202.411C305.415 200.693 294.713 198.345 283.237 197.811C280.607 199.778 282.713 198.836 281.186 200.453C279.367 202.376 278.294 209.889 279.153 211.463C293.534 213.574 304.947 210.406 313.863 209.532L313.999 202.411Z" fill="#F0928B"/>
<path d="M309.363 210.255C310.61 210.081 311.817 209.925 312.975 209.814L313.113 202.693C311.923 202.455 310.684 202.223 309.404 201.995L309.363 210.255Z" fill="white"/>
<path d="M233.65 118.466C230.943 118.016 228.328 118.705 225.914 119.919C224.795 120.482 224.003 120.863 222.789 121.186C218.695 122.284 217.774 128.405 218.095 131.933C218.27 133.871 219.057 135.79 219.6 137.643C221.026 142.51 225.003 147.447 230.545 147.202C234.078 147.045 237.712 145.101 239.894 142.332C245.347 135.406 243.893 120.171 233.65 118.466Z" fill="#4865A2"/>
<path d="M223.381 140.836C224.323 142.889 228.135 145.028 228.481 142.993C228.694 141.754 228.526 139.167 227.58 137.113C226.639 135.062 226.933 134.697 225.061 135.558C223.189 136.421 222.436 138.783 223.381 140.836Z" fill="#EAB1B8"/>
<path d="M228.412 144.76C228.754 140.29 241.856 148.596 241.856 148.596L240.452 165.647C240.452 165.647 240.318 164.962 233.875 165.114C229.948 165.207 227.504 166.443 227.699 162.775C227.821 160.508 228.295 146.304 228.412 144.76Z" fill="#EAB1B8"/>
<path d="M228.216 149.071C230.072 155.059 235.391 159.374 240.963 158.932L241.856 148.596C241.856 148.596 228.754 140.29 228.412 144.76C228.377 145.235 228.463 143.837 228.263 145.788C228.344 145.885 228.172 148.929 228.216 149.071Z" fill="#E5958A"/>
<path d="M244.796 151.038C241.064 154.036 233.71 153.209 230.475 149.896C228.519 147.895 227.416 145.658 226.97 142.997C226.473 140.002 226.708 137.174 226.23 134.16C226.023 132.858 225.847 131.544 225.918 130.225C226.027 128.116 226.788 126.031 228.074 124.305C229.336 122.612 231.319 121.751 233.089 120.658C234.589 119.736 236.266 118.596 238.035 118.288C239.255 118.075 240.078 118.801 241.087 119.428C246.564 122.83 249.322 130.585 249.475 136.798C249.591 141.425 248.636 147.951 244.796 151.038Z" fill="#EAB1B8"/>
<path d="M228.66 135.557C230.547 137.007 232.184 138.977 234.227 140.206C236.934 141.834 239.237 142.005 241.905 140.228C244.517 138.482 246.851 138.179 249.465 138.6C249.308 142.993 248.16 148.335 244.797 151.038C241.065 154.036 233.71 153.208 230.475 149.896C228.519 147.896 227.416 145.658 226.97 142.996C226.473 140.007 226.706 137.181 226.232 134.174C227.115 134.489 227.91 134.987 228.66 135.557Z" fill="#4865A2"/>
<path d="M246.773 230.787C247.781 210.614 251.706 180.934 249.161 178.063C244.685 173.011 251.03 176.813 247.787 172.763C242.945 166.708 227.885 160.389 221.83 169.153C219.776 172.122 221.568 178.572 221.079 180.798C220.008 185.726 219.602 210.291 218.384 230.076L246.773 230.787Z" fill="#EAB1B8"/>
<path d="M244.232 162.098C243.115 161.705 241.885 161.398 240.568 161.159C239.035 162.548 237.162 160.537 234.878 160.446C232.5 160.349 229.706 162.122 228.122 160.887C228.026 160.815 227.954 160.737 227.882 160.659C226.712 160.725 225.523 160.809 224.313 160.915C221.152 161.272 217.451 162.203 215.423 163.457C207.109 168.582 208.429 179.48 208.602 182.408C209.069 190.198 209.88 241.694 208.47 250.108C208.47 250.108 248.703 244.533 253.081 244.129C253.936 243.383 257.745 191.316 257.143 181.408C256.341 168.167 250.704 164.375 244.232 162.098Z" fill="#D7847E"/>
<path d="M228.362 155.933L234.878 160.446L229.966 167.968L222.544 161.046C222.544 161.046 224.948 156.232 228.362 155.933Z" fill="white"/>
<path d="M234.878 160.446L238.288 167.968L245.71 162.653C245.71 162.653 244.308 158.139 241.196 157.638L234.878 160.446Z" fill="white"/>
<path d="M249.819 115.327C249.66 113.156 248.349 113.131 246.48 113.416C244.657 113.689 242.856 114.23 240.984 114.312C238.901 114.404 237.087 113.993 235.075 113.671C231.601 113.123 228.011 114.015 224.849 115.666C220.104 118.145 217.219 126.366 218.081 131.765C218.366 133.546 219.059 133.126 220.42 134.314C221.042 134.859 221.862 135.538 222.647 135.816C223.341 136.061 224.298 135.738 225.022 135.661C225.318 135.257 226.14 135.992 226.391 136.338C226.797 136.893 227.046 137.996 227.982 137.717C228.821 137.465 229.11 136.396 229.196 135.647C229.38 134.053 229.158 132.458 229.21 130.863C229.326 127.579 232.338 127.579 234.929 127.099C239.368 126.278 243.448 125.652 247.155 122.71C249.203 121.081 250.009 117.845 249.819 115.327Z" fill="#4865A2"/>
<path d="M238.982 218.744C237.444 217.817 233.365 214.388 233.966 211.804C234.47 209.641 235.515 209.3 235.513 209.3C246.308 203.642 256.54 199.295 265.138 196.441C273.592 193.637 269.178 200.903 269.178 200.903C261.061 206.65 253.879 212.735 238.982 218.744Z" fill="#EAB1B8"/>
<path d="M245.36 212.94C241.478 195.448 237.779 194.43 233.665 186.364C227.644 174.556 213.167 163.578 210.197 171.609C208.746 175.545 234.209 211.073 238.053 217.95C240.504 217.286 242.554 214.214 245.36 212.94Z" fill="#EAB1B8"/>
<path d="M237.213 220.286C233.829 214.585 219.862 191.739 218.366 189.667C209.655 177.588 205.486 172.474 210.493 166.813C216.167 160.404 227.195 173.22 234.353 184.016C239.082 191.144 241.266 194.989 247.096 209.182C247.749 213.754 241.719 222.503 237.213 220.286Z" fill="#F0928B"/>
<path d="M268.431 193.348C266.752 195.399 265.208 197.589 265.628 198.322L265.71 198.466C265.908 198.374 266.105 198.283 266.302 198.19C266.302 198.19 265.819 198.633 266.528 198.085C266.589 198.056 266.648 198.027 266.706 197.999C266.298 198.678 266.17 199.39 266.64 200.082C268.182 202.347 271.553 200.2 273.289 199.311C274.704 198.592 275.983 197.6 277.201 196.59C278.624 195.409 279.669 191.812 277.979 190.429C276.247 189.016 275.154 192.177 273.754 191.036C272.975 190.405 274.055 187.413 271.968 189.309C271.572 189.763 269.948 191.499 268.431 193.348Z" fill="#EAB1B8"/>
<path d="M263.281 196.936C255.004 199.783 244.578 203.157 234.405 208.492C233.123 211.514 234.47 209.641 233.966 211.804C233.365 214.388 236.233 221.411 237.769 222.336C251.247 216.9 259.504 208.404 266.758 203.149L263.281 196.936Z" fill="#F0928B"/>
<path d="M263.865 205.354C264.851 204.574 265.814 203.833 266.756 203.149L263.281 196.934C262.137 197.328 260.948 197.755 259.729 198.203L263.865 205.354Z" fill="white"/>
<path d="M178.926 239.269H174.074V344.36H178.926V239.269Z" fill="#ADAFB2"/>
<path d="M178.926 344.36L181.228 339.931V239.269H178.926V344.36Z" fill="#888A8C"/>
<path d="M322.995 239.269H318.139V344.36H322.995V239.269Z" fill="#ADAFB2"/>
<path d="M322.995 344.36L325.292 339.931V239.269H322.995V344.36Z" fill="#888A8C"/>
<path d="M354.63 233.301H144.382V241.278H354.63V233.301Z" fill="#ADAFB2"/>
<path d="M364.961 228.706L155.392 228.799L144.382 233.301H354.63L364.961 228.706Z" fill="#7D7E81"/>
<path d="M354.63 233.301V241.278L364.961 235.296V228.706L354.63 233.301Z" fill="#4A4B4C"/>
<path d="M291.558 230.729L282.173 233.963H249.76V229.243H290.537L291.558 230.729Z" fill="#4A4B4C"/>
<path d="M298.525 200.56L282.173 233.963H282.182L307.732 231.073L325.15 195.396L298.525 200.56Z" fill="#BCBEC0"/>
<path d="M295.712 200.56L321.846 194.813L325.15 195.396L298.447 201.17L295.712 200.56Z" fill="#A5A7AA"/>
<path d="M282.173 233.963L298.447 201.17L295.711 200.56L279.281 233.963H282.173Z" fill="#4A4B4C"/>
<path d="M322.937 208.07C324.65 205.527 325.469 202.531 323.7 200.996C322.213 199.705 319.752 201.588 318.017 203.035C315.108 205.459 314.147 207.075 314.863 210.193C315.882 214.606 320.396 211.834 322.937 208.07Z" fill="#EAB1B8"/>
<defs>
<linearGradient id="paint0_linear_37_589" x1="90.3397" y1="56.3435" x2="185.303" y2="127.468" gradientUnits="userSpaceOnUse">
<stop stop-color="#FFDE17"/>
<stop offset="1" stop-color="white"/>
</linearGradient>
</defs>
</svg>
